<?xml version="1.0" encoding="utf-8"?>
<!-- Generator: Adobe Illustrator 24.0.2, SVG Export Plug-In . SVG Version: 6.00 Build 0)  -->
<svg version="1.1" id="Layer_1" xmlns="http://www.w3.org/2000/svg" xmlns:xlink="http://www.w3.org/1999/xlink" x="0px" y="0px"
	 viewBox="0 0 512 512" style="enable-background:new 0 0 512 512;" xml:space="preserve">
<style type="text/css">
	.st0{fill:#3B3A34;}
</style>
<path class="st0" d="M256,1.5C115.2,1.5,1,115.7,1,256.5s114.2,255,255,255s255-114.2,255-255S396.8,1.5,256,1.5z M193.6,362.2
	h-51.6V196h51.6V362.2z M167.4,175.6c-16.3,0-26.9-11.6-26.9-25.8c0-14.6,10.9-25.8,27.5-25.8s26.9,11.2,27.2,25.8
	C195.3,164.1,184.8,175.6,167.4,175.6z M382.2,362.2h-51.6v-92.1c0-21.4-7.5-36-26.2-36c-14.3,0-22.7,9.9-26.5,19.3
	c-1.4,3.4-1.7,8.2-1.7,12.9v95.8h-51.7V249c0-20.7-0.7-38.1-1.4-53H268l2.4,23.1h1c6.8-10.8,23.5-26.8,51.3-26.8
	c34,0,59.4,22.8,59.4,71.7V362.2z"/>
</svg>
