<?xml version="1.0" encoding="utf-8"?>
<!-- Generator: Adobe Illustrator 24.0.2, SVG Export Plug-In . SVG Version: 6.00 Build 0)  -->
<svg version="1.1" id="Layer_1" xmlns="http://www.w3.org/2000/svg" xmlns:xlink="http://www.w3.org/1999/xlink" x="0px" y="0px"
	 viewBox="0 0 512 512" style="enable-background:new 0 0 512 512;" xml:space="preserve">
<style type="text/css">
	.st0{fill:#7A7947;}
</style>
<g>
	<path class="st0" d="M256,261.4c14.3,0,26.5-5.1,36.7-15.3c10.2-10.2,15.3-22.4,15.3-36.7c0-14.3-5.1-26.5-15.3-36.7
		c-10.2-10.2-22.4-15.3-36.7-15.3s-26.5,5.1-36.7,15.3c-10.2,10.2-15.3,22.4-15.3,36.7c0,14.3,5.1,26.5,15.3,36.7
		C229.5,256.3,241.7,261.4,256,261.4z M256,511.5c-3.5,0-6.9-0.6-10.4-1.9s-6.5-3-9.1-5.2c-63.2-55.9-110.4-107.7-141.6-155.6
		c-31.2-47.9-46.8-92.6-46.8-134.2c0-65,20.9-116.7,62.7-155.3C152.6,20.8,201,1.5,256,1.5s103.4,19.3,145.2,57.8
		c41.8,38.5,62.7,90.3,62.7,155.3c0,41.6-15.6,86.3-46.8,134.2c-31.2,47.9-78.4,99.7-141.6,155.6c-2.6,2.2-5.6,3.9-9.1,5.2
		S259.5,511.5,256,511.5z"/>
</g>
</svg>
