<?xml version="1.0" encoding="utf-8"?>
<!-- Generator: Adobe Illustrator 24.0.2, SVG Export Plug-In . SVG Version: 6.00 Build 0)  -->
<svg version="1.1" id="Layer_1" xmlns="http://www.w3.org/2000/svg" xmlns:xlink="http://www.w3.org/1999/xlink" x="0px" y="0px"
	 viewBox="0 0 512 512" style="enable-background:new 0 0 512 512;" xml:space="preserve">
<style type="text/css">
	.st0{fill:#7A7947;enable-background:new    ;}
</style>
<path class="st0" d="M454.7,391.7H511c-17.6,35.8-44.7,63.8-81.2,84.1c-41.8,23.3-92.7,34.9-152.8,34.9
	c-58.2,0-108.4-9.9-150.7-29.6c-42.3-19.6-73.8-48.5-94.4-86.7C11.3,356,1,314.2,1,269.1c0-49.5,11.7-95.6,35.2-138.3
	C59.6,88,91.7,55.9,132.4,34.5C173.1,13,219.6,2.3,272,2.3c44.4,0,83.9,8.6,118.4,25.9s60.9,41.9,79.1,73.8
	c18.3,31.7,27.5,66.4,27.5,104.2c0,44.9-13.8,85.6-41.5,121.9c-34.7,45.8-79.2,68.7-133.5,68.7c-14.6,0-25.6-2.6-33-7.7
	c-7.4-5.1-12.3-12.6-14.8-22.5c-20.8,20.1-44.8,30.1-71.9,30.1c-29.3,0-53.6-10-73-30.1c-19.2-20.3-28.8-47.1-28.8-80.6
	c0-41.4,11.6-79.2,34.9-113.4c28.2-41.6,64.3-62.4,108.4-62.4c31.4,0,54.6,12,69.5,36l6.6-29.3h69.8l-39.9,189.6
	c-2.5,12-3.7,19.7-3.7,23.3c0,4.4,1,7.8,2.9,10c2.1,2.1,4.6,3.2,7.4,3.2c8.5,0,19.4-5.1,32.8-15.3c18-13.4,32.5-31.4,43.6-53.9
	c11.1-22.6,16.7-45.9,16.7-70.1c0-43.4-15.7-79.6-47.1-108.7C371,65.6,327.2,50.9,270.9,50.9c-47.8,0-88.3,9.8-121.6,29.3
	c-33.1,19.4-58.2,46.8-75.1,82.2c-16.7,35.3-25.1,72-25.1,110.2c0,37.2,9.3,71,28,101.5c18.9,30.5,45.2,52.7,79.1,66.6
	c34,14.1,72.9,21.2,116.6,21.2c42.1,0,78.3-5.9,108.7-17.7C411.8,432.7,436.2,415.2,454.7,391.7z M168.9,283.1
	c0,22.4,4.5,38.9,13.5,49.4c9.2,10.6,20.4,15.9,33.8,15.9c10,0,19.5-2.5,28.3-7.4c6.7-3.5,13.3-9.1,19.8-16.7
	c9.3-10.8,17.4-26.4,24.1-47.1c6.9-20.6,10.3-39.8,10.3-57.6c0-19.9-4.7-35.2-14-45.7c-9.2-10.8-20.8-16.1-34.9-16.1
	c-15.2,0-29.2,5.9-42,17.7c-12.9,11.6-22.6,28.3-29.1,50C172.1,247.1,168.9,266.3,168.9,283.1z"/>
</svg>
