<?xml version="1.0" encoding="utf-8"?>
<!-- Generator: Adobe Illustrator 24.0.2, SVG Export Plug-In . SVG Version: 6.00 Build 0)  -->
<svg version="1.1" id="Layer_1" xmlns="http://www.w3.org/2000/svg" xmlns:xlink="http://www.w3.org/1999/xlink" x="0px" y="0px"
	 viewBox="0 0 512 512" style="enable-background:new 0 0 512 512;" xml:space="preserve">
<style type="text/css">
	.st0{fill:#7A7947;}
</style>
<g>
	<path class="st0" d="M470.9,86C470.4,34.3,374.4,1.5,256,1.5C137.6,1.5,41.6,34.3,41.1,86c0,0.1,0,0.2,0,0.2v57.4
		c0,8.3,6.7,15,15,15l78.6,0c8.3,0,15-6.7,15-15V98.7c0,0,53.8-19.8,106.4-19.8c52.5,0,106.4,19.8,106.4,19.8v44.9
		c0,8.3,6.7,15,15,15H456c8.3,0,15-6.7,15-15V86.2C471,86.1,470.9,86,470.9,86L470.9,86z"/>
	<path class="st0" d="M372.7,399l30.8,22.2c11.6-22.7,18.3-48.3,18.3-75.5c0-91.6-74.3-165.9-165.9-165.9
		c-91.6,0-165.9,74.2-165.9,165.9c0,91.6,74.3,165.9,165.9,165.9c52.9,0,99.9-24.9,130.3-63.5l-32.2-23.1
		c-7.1-5.1-8.8-15.1-3.6-22.3C355.6,395.5,365.6,393.9,372.7,399L372.7,399z M314.7,213.9c13.7,0,24.9,11.1,24.9,24.9
		c0,13.7-11.1,24.9-24.9,24.9c-13.7,0-24.9-11.1-24.9-24.9C289.9,225,301,213.9,314.7,213.9z M256,199c13.7,0,24.9,11.1,24.9,24.9
		c0,13.7-11.1,24.9-24.9,24.9c-13.7,0-24.9-11.1-24.9-24.9C231.1,210.2,242.3,199,256,199z M194.8,213.9c13.7,0,24.9,11.1,24.9,24.9
		c0,13.7-11.1,24.9-24.9,24.9c-13.7,0-24.9-11.1-24.9-24.9C169.9,225,181.1,213.9,194.8,213.9z M149.6,260.2
		c13.7,0,24.9,11.1,24.9,24.9c0,13.7-11.1,24.9-24.9,24.9c-13.7,0-24.9-11.1-24.9-24.9C124.7,271.4,135.8,260.2,149.6,260.2z
		 M108.5,345.7c0-13.7,11.1-24.9,24.9-24.9c13.7,0,24.9,11.1,24.9,24.9c0,13.7-11.1,24.9-24.9,24.9
		C119.7,370.5,108.5,359.4,108.5,345.7z M149.6,431.4c-13.7,0-24.9-11.1-24.9-24.9c0-13.7,11.1-24.9,24.9-24.9
		c13.7,0,24.9,11.1,24.9,24.9C174.4,420.2,163.3,431.4,149.6,431.4z M194.8,475.6c-13.7,0-24.9-11.1-24.9-24.9
		c0-13.7,11.1-24.9,24.9-24.9c13.7,0,24.9,11.1,24.9,24.9S208.6,475.6,194.8,475.6z M256,492.2c-13.7,0-24.9-11.1-24.9-24.9
		c0-13.7,11.1-24.9,24.9-24.9c13.7,0,24.9,11.1,24.9,24.9C280.9,481,269.7,492.2,256,492.2z M256,428.6c-45.8,0-82.9-37.1-82.9-82.9
		c0-45.8,37.1-82.9,82.9-82.9c45.8,0,82.9,37.1,82.9,82.9C338.9,391.4,301.8,428.6,256,428.6z M332.4,282.3
		c0-13.7,11.1-24.9,24.9-24.9c13.7,0,24.9,11.1,24.9,24.9c0,13.7-11.1,24.9-24.9,24.9C343.5,307.2,332.4,296.1,332.4,282.3z"/>
</g>
</svg>
