<?xml version="1.0" encoding="utf-8"?>
<!-- Generator: Adobe Illustrator 24.0.2, SVG Export Plug-In . SVG Version: 6.00 Build 0)  -->
<svg version="1.1" id="Layer_1" xmlns="http://www.w3.org/2000/svg" xmlns:xlink="http://www.w3.org/1999/xlink" x="0px" y="0px"
	 viewBox="0 0 365 512" style="enable-background:new 0 0 365 512;" xml:space="preserve">
<style type="text/css">
	.st0{fill:url(#SVGID_1_);}
	.st1{fill:#3B3A34;}
	.st2{fill:#33322D;}
	.st3{fill:#F9F9F9;}
	.st4{fill:#604B44;}
	.st5{fill:#473833;}
	.st6{fill:#332825;}
	.st7{fill:none;stroke:url(#SVGID_2_);stroke-miterlimit:10;}
	.st8{fill:#C6C5AE;}
	.st9{fill:#332B11;}
	.st10{fill:none;stroke:url(#SVGID_3_);stroke-miterlimit:10;}
	.st11{fill:#34322D;}
	.st12{fill:none;}
</style>
<g>
	
		<linearGradient id="SVGID_1_" gradientUnits="userSpaceOnUse" x1="381.4141" y1="-113.4095" x2="212.5859" y2="179.0095" gradientTransform="matrix(1 0 0 -1 -123.5 372)">
		<stop  offset="0" style="stop-color:#7A7947"/>
		<stop  offset="0.4247" style="stop-color:#7C7A47"/>
		<stop  offset="0.5777" style="stop-color:#837F48"/>
		<stop  offset="0.6868" style="stop-color:#8E8749"/>
		<stop  offset="0.7749" style="stop-color:#9F934B"/>
		<stop  offset="0.8505" style="stop-color:#B5A34D"/>
		<stop  offset="0.9173" style="stop-color:#D1B64F"/>
		<stop  offset="0.9763" style="stop-color:#F0CC53"/>
		<stop  offset="1" style="stop-color:#FFD754"/>
	</linearGradient>
	<circle class="st0" cx="173.5" cy="339.2" r="168.8"/>
	<g>
		<path class="st1" d="M173.5,508.6c0,0,42.8-0.7,75.9-19.2c0,0,8.9-70-33.5-109.8l-114.8,0.9c0,0-29.8,24.9-30.5,96.2
			C70.6,476.7,120.9,509.5,173.5,508.6z"/>
		<path class="st2" d="M173.5,508.5c1.6,0,3.3-0.1,4.9-0.3c1.6-0.1,3.3-0.3,4.9-0.4c3.3-0.3,6.5-0.7,9.8-1.2c6.5-1,13-2.3,19.3-3.9
			c3.2-0.8,6.3-1.7,9.5-2.7c1.6-0.5,3.1-1,4.7-1.6c1.6-0.6,3.1-1.1,4.6-1.7c3.1-1.2,6-2.5,9-3.8c3-1.4,5.8-2.9,8.7-4.5l-0.6,0.9
			c0.3-2.4,0.4-4.8,0.5-7.3c0-1.2,0.1-2.5,0.1-3.7s0-2.5,0-3.7c0-2.5-0.1-4.9-0.2-7.4c-0.1-2.5-0.2-4.9-0.4-7.3
			c-0.7-9.8-2.2-19.5-4.7-29c-0.6-2.4-1.3-4.8-2-7.1c-0.7-2.3-1.5-4.7-2.4-6.9c-1.7-4.6-3.7-9.1-6-13.4c-1.2-2.2-2.4-4.3-3.7-6.4
			c-0.6-1-1.4-2.1-2-3.1c-0.7-1-1.4-2-2.2-3c-2.9-3.9-6.2-7.6-9.8-11l0.4,0.1l-14.3,0.1l-14.3,0.2c-9.6,0.1-19.1,0.3-28.7,0.5
			l-28.7,0.6c-9.6,0.2-19.1,0.4-28.7,0.5l0.9-0.3c-0.2,0.1-0.4,0.3-0.5,0.5c-0.2,0.2-0.4,0.4-0.5,0.5c-0.4,0.4-0.7,0.7-1.1,1.1
			c-0.7,0.8-1.4,1.6-2,2.4c-1.3,1.6-2.6,3.3-3.7,5.1c-2.4,3.5-4.5,7.2-6.4,11c-3.7,7.6-6.7,15.6-8.9,23.8
			c-2.2,8.2-3.8,16.6-4.8,25.1c-1.1,8.5-1.6,17-1.7,25.6l-0.7-1.4c1.8,1.2,3.8,2.4,5.8,3.5c1.9,1.1,3.9,2.2,5.9,3.3
			c4,2.1,8,4.2,12.1,6.2c8.1,3.9,16.5,7.5,25,10.5c2.1,0.7,4.3,1.5,6.4,2.1c2.2,0.7,4.3,1.3,6.5,1.9c4.4,1.2,8.8,2.2,13.2,3.1
			c2.2,0.4,4.5,0.8,6.7,1.1c2.2,0.3,4.5,0.6,6.8,0.8c2.3,0.2,4.5,0.4,6.8,0.5C168.9,508.5,171.2,508.5,173.5,508.5z M173.5,508.8
			c-4.6,0.1-9.1-0.1-13.6-0.5s-9-0.9-13.6-1.6c-2.3-0.4-4.5-0.8-6.7-1.2c-2.2-0.5-4.5-0.9-6.7-1.5c-2.2-0.5-4.4-1.1-6.6-1.7
			c-2.2-0.6-4.4-1.2-6.6-1.9c-4.4-1.4-8.7-2.8-13-4.4s-8.5-3.3-12.7-5.2c-4.2-1.9-8.3-3.8-12.3-5.9c-2-1.1-4-2.1-6-3.3
			c-2-1.1-4-2.3-5.9-3.5l-0.7-0.5v-0.9c0.1-8.7,0.5-17.3,1.6-25.9c0.5-4.3,1.2-8.6,2-12.9s1.8-8.5,3-12.7c2.4-8.4,5.4-16.6,9.3-24.4
			c2-3.9,4.2-7.7,6.7-11.3c1.3-1.8,2.6-3.6,4-5.3c0.7-0.8,1.4-1.7,2.2-2.5c0.4-0.4,0.8-0.8,1.2-1.2c0.2-0.2,0.4-0.4,0.6-0.6
			s0.4-0.4,0.7-0.6l0.4-0.3h0.5c9.6,0,19.1,0,28.7,0.1l28.7,0.2c9.6,0.1,19.1,0.1,28.7,0l14.3-0.1l14.3-0.1h0.2l0.2,0.1
			c0.9,0.9,1.8,1.7,2.7,2.6c0.4,0.5,0.9,0.9,1.3,1.3l1.3,1.4c1.7,1.8,3.3,3.7,4.8,5.7c0.8,1,1.5,2,2.3,3c0.7,1,1.5,2,2.1,3.1
			c1.4,2.1,2.7,4.2,3.9,6.4c2.5,4.3,4.7,8.8,6.5,13.4c1.9,4.6,3.5,9.3,4.8,14.2c2.7,9.6,4.3,19.5,5.1,29.4c0.2,2.5,0.3,5,0.4,7.5
			c0.1,2.5,0.1,5,0.1,7.5s-0.1,5-0.3,7.5s-0.4,4.9-0.7,7.5l-0.1,0.6l-0.5,0.3c-5.9,3.1-12,5.8-18.3,7.9c-1.6,0.5-3.1,1-4.7,1.6
			c-1.6,0.5-3.2,1-4.8,1.4c-1.6,0.5-3.2,0.8-4.8,1.3c-1.6,0.4-3.2,0.8-4.8,1.1c-3.2,0.7-6.5,1.4-9.7,1.9c-3.3,0.5-6.5,1.1-9.8,1.5
			s-6.5,0.8-9.8,1.1C180.1,508.5,176.8,508.7,173.5,508.8z"/>
	</g>
	<g>
		<g>
			<polygon class="st3" points="132.1,185.1 91.3,262.4 121.3,353.4 158.1,379.6 201.6,373.2 242.4,312.2 250.2,279.7 244.6,243.1 
				223.2,200 215.5,185.1 			"/>
		</g>
		<g>
			<g>
				<path class="st4" d="M147.6,207c0,0,23,28.3,23,45.1c0,0-0.6-24.9,24-43.9C194.7,208.2,170.7,222.9,147.6,207z"/>
			</g>
			<g>
				<path class="st5" d="M147.7,207c0.7,0.6,1.4,1.6,2.1,2.3l2,2.5c1.3,1.7,2.6,3.4,3.9,5.1c2.6,3.5,4.8,7.1,7,10.8
					s4.1,7.6,5.7,11.6c1.5,4,2.7,8.3,2.6,12.7h-0.7c0.1-4.4,1-8.6,2.2-12.8c1.3-4.1,2.8-8.2,4.8-12s4.4-7.5,7.3-10.8
					c1.3-1.7,3-3.2,4.5-4.8c1.6-1.5,3.3-2.8,4.9-4.3l1,1.4c-3.7,2.2-7.7,3.6-11.7,4.7c-4.1,1.1-8.3,1.6-12.5,1.5
					c-2.1,0-4.2-0.3-6.3-0.5c-2-0.5-4.1-0.8-6.1-1.6c-1-0.4-2-0.6-2.9-1.1l-2.8-1.4c-1-0.5-1.7-1-2.6-1.6
					C149.5,208.2,148.6,207.6,147.7,207z M147.6,207c0.9,0.5,1.8,1,2.7,1.5s1.9,1.1,2.8,1.4l2.8,1.2c0.9,0.4,1.9,0.6,2.9,0.9
					c1.9,0.7,4,0.9,5.9,1.3c2,0.2,4,0.5,6.1,0.4c4.1-0.1,8.1-0.6,12.1-1.6c3.9-1,7.8-2.6,11.2-4.5l7.2-3.9L195,209
					c-1.6,1.4-3.3,2.6-4.9,4.1c-1.5,1.5-3.1,2.9-4.5,4.6c-0.7,0.8-1.4,1.6-2.1,2.4l-1.9,2.6c-0.7,0.8-1.3,1.7-1.8,2.6
					s-1.2,1.7-1.7,2.7c-2.2,3.7-3.9,7.6-5.2,11.7c-1.3,4.1-2,8.4-2,12.6h-0.7c-0.1-4.2-1.6-8.3-3.2-12.2c-1.6-3.9-3.6-7.7-5.6-11.4
					c-2.1-3.7-4.3-7.3-6.7-10.9C152.5,214,150.1,210.6,147.6,207z"/>
			</g>
		</g>
		<g>
			<g>
				<path class="st3" d="M170.7,252.1c0,0,6.8-23.2,18.4-22.6c0,0,7.2-30.6,9.7-15.7c2.5,14.9,0,25.1,0,25.1s15.8-26.6,16.1-30.5
					l-7.9-16.5C207,191.9,169.9,225.7,170.7,252.1z"/>
			</g>
			<g>
				<path class="st6" d="M170.7,252.1c-0.2,0,0-0.1,0-0.2l0.1-0.2l0.1-0.5l0.3-0.9c0.2-0.6,0.4-1.2,0.6-1.8c0.4-1.2,0.9-2.4,1.4-3.6
					c1-2.4,2.1-4.7,3.5-6.9s3-4.3,5-6.1c2-1.7,4.7-3,7.5-2.8l-0.7,0.5c1-4.2,2.1-8.4,3.5-12.5c0.7-2,1.5-4.1,2.7-6
					c0.3-0.5,0.7-1,1.2-1.4c0.2-0.1,0.4-0.2,0.5-0.3c0.2-0.1,0.5-0.1,0.7-0.1c0.2,0.1,0.5,0.2,0.6,0.3s0.3,0.3,0.4,0.4
					c0.7,1.1,0.9,2.2,1.1,3.3c0.7,4.3,1,8.6,1,13c-0.1,4.3-0.3,8.7-1.2,12.9l-0.5-0.2c2.9-5,5.8-10,8.5-15.1
					c1.4-2.6,2.7-5.1,3.9-7.7c0.6-1.3,1.2-2.6,1.8-3.9c0.3-0.6,0.6-1.3,0.8-2l0.4-1l0.2-0.9l0.1,0.3l-8-16.4l1.3,0.3
					c-4.3,4.1-8.4,8.5-12.4,13c-3.9,4.5-7.6,9.2-11.1,14.1c-3.4,4.9-6.5,10-9,15.4C172.6,240.3,170.9,246.2,170.7,252.1z
					 M170.7,252.2c-0.3-3.1,0.1-6.1,0.7-9.1c0.6-3,1.6-5.8,2.7-8.6c2.3-5.6,5.3-10.9,8.7-15.9s7.1-9.8,11.1-14.3
					c3.9-4.6,8.1-8.9,12.6-13l0.8-0.7l0.5,1l7.7,16.6l0.1,0.2v0.1c-0.1,0.4-0.2,0.8-0.3,1.2l-0.4,1c-0.3,0.7-0.6,1.3-0.9,2
					c-0.6,1.3-1.3,2.6-2,3.9c-1.4,2.6-2.8,5.1-4.2,7.6c-2.9,5-5.8,10-8.7,14.9l-0.7,1.2l0.3-1.4c0.8-4.2,1.1-8.5,1-12.8
					c-0.2-4.3-0.6-8.6-1.4-12.7c-0.2-1-0.5-2.1-1-2.7c-0.1,0-0.1-0.1-0.2-0.2H197c0,0,0,0-0.1,0s-0.1,0.1-0.2,0.1
					c-0.3,0.3-0.6,0.6-0.8,1.1c-1,1.7-1.8,3.8-2.5,5.8c-1.4,4-2.6,8.2-3.6,12.3l-0.1,0.5h-0.5c-2.4-0.2-4.7,0.9-6.7,2.5
					c-1.9,1.6-3.6,3.6-5,5.7c-1.4,2.1-2.6,4.4-3.7,6.7c-0.5,1.2-1.1,2.3-1.6,3.5l-0.7,1.8l-0.4,0.9l-0.2,0.5L170.7,252.2
					C170.8,252,170.9,252.1,170.7,252.2z"/>
			</g>
		</g>
		<g>
			<g>
				<path class="st3" d="M168.6,252.1c0,0-6.8-21.1-19.9-20.2c0,0,1.4-19-3.9-19.6c-5.3-0.7,1.1,31.1,1.1,31.1s-16.1-20.8-22.9-36.3
					l9.9-16.4c0,0,34.8,33.5,37.8,61.6"/>
			</g>
			<g>
				<path class="st6" d="M168.5,252.2c-1.8-4.7-4.2-9.2-7.4-13.1c-1.6-1.9-3.4-3.7-5.5-4.8c-2.1-1.2-4.5-1.8-6.9-1.7l-0.7,0.1V232
					c0.2-4.4,0.2-8.8-0.5-13.1c-0.2-1.1-0.4-2.1-0.7-3.1s-0.8-1.9-1.5-2.4c-1.4-1.3-1.8,1.8-2,3.7c-0.2,4.3,0.3,8.8,0.7,13.2
					c0.5,4.4,1.2,8.8,2,13.1l0.2,1.2l-0.7-0.9c-4.3-5.8-8.5-11.6-12.5-17.5c-4-6-7.8-12.1-10.8-18.7l-0.1-0.3l0.2-0.3l9.8-16.5
					l0.5-0.9l0.7,0.7c4.4,4.3,8.5,8.9,12.4,13.6c3.9,4.7,7.7,9.6,11,14.8s6.5,10.4,8.9,16.1c2.5,5.6,4.3,11.6,4.9,17.7h-0.2
					c-0.9-6.1-3.1-11.8-5.7-17.3c-2.6-5.5-5.8-10.7-9.3-15.7s-7.2-9.8-11.1-14.5c-3.9-4.7-8-9.2-12.3-13.5l1.3-0.2l-10,16.4V207
					c2.8,6.5,6.4,12.8,10.2,18.8c1.9,3,3.9,6,5.9,9c2,2.9,4.1,5.8,6.4,8.7l-0.5,0.2c-0.9-4.4-1.6-8.7-2.4-13.1
					c-0.6-4.4-1.3-8.8-1.2-13.3c0-1.1,0.1-2.3,0.5-3.5c0.2-0.5,0.5-1.3,1.3-1.7c0.9-0.4,1.6,0,2.2,0.3c1.2,0.8,1.6,2,2.1,3.1
					c0.4,1.1,0.6,2.2,0.8,3.4c0.6,4.5,0.6,9,0.3,13.4l-0.7-0.7c2.6-0.1,5.4,0.6,7.6,2c2.2,1.4,4.1,3.3,5.7,5.3c1.6,2,2.9,4.2,4,6.5
					s2.1,4.7,2.8,7.1h0.3V252.2z"/>
			</g>
		</g>
		<g>
			<g>
				<path class="st1" d="M214.5,165.7l42.8-0.6c0,0,3.1,94.6,1.8,116.1c-1.3,21.5-29,91.2-29,91.2l32.4,84.9c0,0-57.3,51-59.9,52.3
					c-2.6,1.3-40.8-127-40.8-132c0-5.1,83.9-87.4,83.2-97.8c-0.6-10.4-38.1-87.8-38.1-87.8S212.6,178,214.5,165.7z"/>
			</g>
			<g>
				<path class="st2" d="M214.4,165.6l43-1.5h1.1l0.1,1.1c0.8,17.6,1.5,35.3,2.1,53c0.5,17.7,1,35.4,0.9,53.1c0,2.2,0,4.4-0.1,6.7
					l-0.1,3.4c-0.1,1.1-0.2,2.3-0.3,3.5c-0.6,4.6-1.6,8.9-2.7,13.2c-2.3,8.6-4.9,17.1-7.8,25.5c-5.7,16.8-12.2,33.3-18.9,49.6v-1.1
					l15.6,42.7l8,21.3c2.6,7.1,5.4,14.2,8.1,21.2l0.2,0.5l-0.4,0.4L222,495.1l-10.3,9.2l-5.2,4.6l-1.4,1.1l-0.7,0.6
					c-0.1,0.1-0.2,0.2-0.4,0.3l-0.3,0.2l-0.1,0.1c-0.1,0,0.1,0.1-0.7,0.2c-0.7,0-0.7-0.1-1-0.3c-0.2-0.1-0.2-0.2-0.3-0.3
					c-0.1-0.2-0.2-0.2-0.3-0.4c-0.1-0.2-0.2-0.4-0.3-0.5c-0.2-0.3-0.3-0.6-0.5-0.9c-0.3-0.5-0.5-1.1-0.7-1.6
					c-1.8-4.3-3.3-8.7-4.9-13.1c-1.5-4.4-3-8.7-4.5-13.1c-5.8-17.5-11.3-35.1-16.7-52.8c-2.7-8.8-5.3-17.7-7.9-26.5l-3.8-13.3
					c-0.6-2.2-1.2-4.5-1.8-6.8l-0.4-1.7l-0.2-0.9c-0.1-0.4-0.1-0.6-0.2-1.3c0-0.1,0-0.7,0.1-0.9c0.1-0.2,0.1-0.4,0.2-0.5
					c0.1-0.3,0.2-0.5,0.3-0.7c0.2-0.4,0.4-0.6,0.6-0.9c0.4-0.5,0.7-1.1,1.1-1.6c2.9-3.8,6-7.2,9.1-10.7l9.4-10.2l18.9-20.2
					c6.3-6.7,12.6-13.5,18.7-20.3c6.1-6.8,12.3-13.6,18-20.7c1.4-1.8,2.8-3.6,4.1-5.4c0.6-0.9,1.3-1.8,1.8-2.7
					c0.5-0.9,1-1.9,1.3-2.6c0.1-0.2,0.1-0.3,0.1-0.3s0-0.1,0-0.2s0-0.2,0-0.3c-0.1-0.5-0.2-1-0.3-1.5c-0.3-1-0.6-2.1-0.9-3.2
					c-0.7-2.1-1.5-4.3-2.3-6.4c-3.3-8.6-6.9-17-10.5-25.5c-7.3-16.9-15-33.7-22.6-50.5l-0.2-0.4l0.1-0.3c1.7-4.2,3.3-8.4,4.7-12.7
					c0.7-2.2,1.3-4.3,1.9-6.5C213.4,170.1,213.8,167.9,214.4,165.6z M214.7,165.9c-0.2,2.1-0.6,4.4-1.1,6.6c-0.5,2.2-1,4.5-1.6,6.7
					c-1.2,4.4-2.6,8.8-4.2,13.1v-0.7c8.4,16.4,16.4,33.1,24.2,49.8c3.9,8.4,7.7,16.8,11.1,25.4c0.9,2.2,1.7,4.3,2.5,6.6
					c0.4,1.1,0.7,2.3,1.1,3.4c0.2,0.6,0.3,1.2,0.4,1.9c0,0.2,0.1,0.4,0.1,0.5c0,0.2,0,0.4,0,0.7c0,0.5-0.1,1-0.2,1.4
					c-0.4,1.5-1,2.6-1.6,3.7s-1.3,2.1-1.9,3.1c-1.3,2-2.7,3.8-4.1,5.7c-11.5,14.7-24.1,28.2-36.5,41.8l-18.8,20.3l-9.3,10.1
					c-3,3.4-6.2,6.8-8.9,10.3c-0.3,0.4-0.6,0.9-0.9,1.3c-0.1,0.2-0.3,0.4-0.3,0.5c-0.1,0.1,0,0.4,0-0.5c0-0.1,0,0.2,0.1,0.5l0.2,0.8
					l0.4,1.6c0.5,2.2,1.1,4.4,1.7,6.6l3.7,13.3c2.5,8.9,5,17.7,7.6,26.6c5.2,17.7,10.4,35.4,15.8,53c2.8,8.8,5.4,17.6,8.6,26.1
					c0.2,0.5,0.4,1,0.6,1.5c0.1,0.3,0.2,0.5,0.3,0.7l0.1,0.2l0,0l-0.1-0.1c-0.3-0.1-0.2-0.2-0.8-0.2c-0.7,0.1-0.5,0.2-0.5,0.1l0,0
					l0.1-0.1c0.1,0,0.2-0.2,0.3-0.2l0.6-0.5l1.3-1.1l5.3-4.4l10.5-9c14.1-11.9,27.9-24.1,41.7-36.3l-0.2,0.9
					c-2.6-7.1-5.4-14.2-8.1-21.2l-8.2-21.2L228.9,373l-0.2-0.5l0.2-0.6c6.2-16.5,12.1-33.2,17.6-49.9c2.7-8.4,5.4-16.8,7.6-25.2
					c1.1-4.2,2.1-8.5,2.7-12.7c0.2-1.1,0.3-2.1,0.4-3.1l0.1-3.3c0.1-2.2,0.1-4.4,0.2-6.6c0.2-17.6-0.1-35.3-0.4-52.9
					c-0.2-17.7-0.5-35.3-0.8-53l1.1,1.1L214.7,165.9z"/>
			</g>
		</g>
		<g>
			<g>
				<path class="st1" d="M120.6,173.2c0,0-21.2,2.2-35.7,0s-22.5,21-23.9,45.7S29.2,374.1,24.9,393.8l60.8-71.1c0,0-3-75.5-0.9-87.1
					c2.2-11.6,8.2-39.4-2.7-47.2"/>
			</g>
			<g>
				<path class="st2" d="M120.7,173.3c-5.6,0.7-11.2,1.2-16.9,1.4s-11.3,0.2-17-0.4l-2.1-0.2c-0.6-0.1-1.3-0.1-1.9-0.1
					c-1.3,0.1-2.6,0.4-3.7,0.9c-2.4,1.1-4.3,2.9-5.9,5.1c-3.2,4.3-5.3,9.6-6.8,14.9c-1.5,5.3-2.5,10.9-3.1,16.4
					c-0.3,2.8-0.5,5.5-0.7,8.4s-0.6,5.7-1.1,8.5c-1.7,11.2-4,22.3-6.4,33.3l-14.7,66.2l-3.6,16.5l-3.7,16.7l-7,33.2l-2.2-1.1
					L54,357.2l15.1-17.9c5-6,10.1-11.9,15.2-17.8l-0.4,1.2c-0.4-11.4-0.8-22.7-1.1-34.1c-0.2-11.4-0.3-22.7-0.2-34.1
					c0.1-5.7,0.1-11.4,0.7-17.2c0.1-0.7,0.2-1.5,0.3-2.2L84,233l0.8-4.2c0.5-2.8,1.1-5.6,1.5-8.3c0.8-5.6,1.4-11.2,1.2-16.8
					c-0.1-2.8-0.5-5.6-1.3-8.3c-0.8-2.6-2.3-5.2-4.5-6.9l0.2-0.3c2.4,1.6,4,4.2,5,6.9s1.5,5.6,1.7,8.4c0.5,5.7,0.1,11.5-0.6,17.2
					c-0.4,2.8-0.8,5.7-1.2,8.5l-0.7,4.2l-0.4,2.1c-0.1,0.7-0.2,1.3-0.3,2c-0.4,5.6-0.4,11.2-0.3,16.9c0.1,11.3,0.5,22.7,0.8,34
					s0.7,22.7,1.2,34v0.7l-0.5,0.5c-5.1,5.9-10.1,11.9-15.2,17.8L56.1,359l-30.6,35.3l-3.4,3.9l1.2-5c5.2-22,10.7-43.9,15.6-66
					c5-22,9.5-44.2,13.6-66.4c1-5.6,2-11.1,3-16.7c0.9-5.6,1.9-11.1,2.7-16.7c0.4-2.8,0.8-5.6,1-8.3c0.2-2.8,0.4-5.7,0.7-8.5
					c0.7-5.7,1.8-11.3,3.4-16.8c1.7-5.5,3.8-11,7.5-15.6c1.8-2.3,4.2-4.4,7-5.6c1.4-0.6,3-0.9,4.5-0.9c0.8,0,1.5,0,2.3,0.1l2.1,0.3
					c11.1,1.4,22.5,1.1,33.7,0.5L120.7,173.3z"/>
			</g>
		</g>
		<g>
			<g>
				<path class="st1" d="M173.4,368.6c0,0-58.2-54.7-73.8-106.3c0,0,11.5-39,33.3-71.8c0,0-8.6-12.7-9.7-17.5c0,0-29,2.3-38.2,0.1
					c-9.2-2.1,2.8,174,12.2,197c0,0-28.6,62.3-39,95c0,0,40.9,35.1,79.2,42.8c0,0,24.4-96.3,36.8-120.5
					C180.9,373.9,173.4,368.6,173.4,368.6z"/>
			</g>
			<g>
				<path class="st2" d="M173.3,368.8c-7.9-7.5-15.3-15.5-22.6-23.6c-7.2-8.1-14.3-16.5-20.9-25.2c-6.6-8.7-12.8-17.7-18.3-27.2
					s-10.4-19.4-13.7-30l-0.2-0.5l0.2-0.6c1.9-6.5,4-12.7,6.4-18.9s4.9-12.4,7.7-18.4c2.7-6.1,5.8-12,9-17.9
					c3.2-5.8,6.7-11.5,10.4-17.1v2.3c-1.8-2.9-3.6-5.7-5.3-8.7c-0.8-1.5-1.6-3-2.4-4.5c-0.8-1.6-1.5-3.1-2-5l1.8,1.3
					c-9.9,0.5-19.8,0.9-29.8,0.5c-2.5-0.1-5-0.3-7.5-0.7l-1-0.2c-0.1,0-0.4-0.1-0.2,0c0.1,0,0.2,0,0.2-0.1c0,0-0.4,0.5-0.5,1
					c-0.4,1-0.6,2.2-0.8,3.4c-0.7,4.8-0.9,9.7-1.1,14.6c-0.6,19.7,0.4,39.5,1.6,59.2c0.6,9.9,1.4,19.7,2.3,29.6
					c0.9,9.8,1.8,19.7,3,29.5c1.1,9.8,2.3,19.6,3.7,29.4c0.7,4.9,1.5,9.7,2.4,14.6c0.5,2.4,0.9,4.8,1.5,7.2c0.5,2.3,1.2,4.7,2,6.8
					l0.4,0.8l-0.4,0.9c-6.9,15.6-13.8,31.3-20.3,47.1c-3.3,7.9-6.5,15.8-9.5,23.8c-3,7.9-6,16-8.6,24l-0.8-2.8
					c5.7,4.8,11.7,9.3,17.9,13.5c6.2,4.3,12.5,8.3,18.9,12.1c6.5,3.7,13.2,7.1,20,10c3.4,1.4,6.9,2.8,10.4,3.9s7.1,2.1,10.7,2.9
					l-2.7,1.7c3.2-11.8,6.5-23.6,9.9-35.3c3.5-11.7,7-23.4,10.7-35s7.5-23.2,11.8-34.7c2.1-5.7,4.5-11.4,7.2-16.8
					c1.2-2.7,2.1-5.7,2.1-8.7C176.6,373.8,175.6,370.7,173.3,368.8z M173.6,368.5c2.5,2,3.6,5.3,3.6,8.3c0,3.1-0.9,6.1-2.1,9
					c-2.7,5.5-4.8,11.1-6.9,16.9c-4,11.5-7.3,23.2-10.6,35c-3.3,11.7-6.3,23.6-9.3,35.4l-8.8,35.5l-0.5,2.1l-2.2-0.4
					c-7.6-1.5-15-3.9-22.1-6.8s-14-6.4-20.6-10.1c-6.7-3.8-13.2-7.8-19.4-12.2c-6.3-4.4-12.3-8.9-18.3-13.9l-1.3-1.1l0.5-1.7
					c2.6-8.2,5.7-16.3,8.9-24.3c3.2-8,6.5-15.9,9.8-23.8c6.7-15.8,13.7-31.4,20.9-47v1.7c-1-2.6-1.5-5-2.1-7.5
					c-0.5-2.5-1-4.9-1.4-7.4c-0.8-4.9-1.5-9.8-2.1-14.8c-1.2-9.9-2.1-19.7-3-29.6c-0.8-9.9-1.6-19.7-2.2-29.6l-1.8-29.6
					c-0.5-9.9-0.9-19.8-1.3-29.7s-0.6-19.8-0.5-29.7c0.1-5,0.2-9.9,0.8-14.9c0.2-1.3,0.4-2.5,0.8-3.8c0.3-0.6,0.4-1.4,1.4-2.2
					c0.3-0.2,0.7-0.4,1.1-0.4c0.5,0,0.5,0.1,0.7,0.1l0.9,0.1c2.3,0.3,4.8,0.5,7.2,0.5c9.8,0.1,19.7-0.6,29.4-1.4l1.4-0.1l0.4,1.5
					c0.4,1.3,1.1,2.8,1.9,4.2s1.6,2.8,2.5,4.3c1.7,2.8,3.6,5.6,5.4,8.3l0.7,1.1l-0.7,1.2c-3.5,5.5-6.9,11.1-10,16.9
					c-3.1,5.8-6,11.6-8.7,17.6s-5.3,12-7.7,18.1c-2.4,6.1-4.7,12.3-6.7,18.5v-1.1c3,10.2,7.4,20.2,12.5,29.7s11,18.7,17.2,27.6
					s13,17.4,20.1,25.7C158.3,353,165.8,360.9,173.6,368.5z"/>
			</g>
		</g>
		<g>
			<path class="st4" d="M226.8,411.5l2.1-2.8l7.4,3.4l6.1,4.1l3.1,4.7c0,0-21.3,17.1-24.8,18.2c-3.5,1.2-6.1,1-6.1,1l-2-4.5l1-4.4
				l13.6-15.5L226.8,411.5z"/>
		</g>
		<g>
			<g>
				<path class="st4" d="M243.2,421.2c-1.2,2.8-24.2,17.4-20.1,20.2c3.4,2.4,28-16,32.3-18.5c4.3-2.5,14-18.9,14-18.9l-12.5-21.8
					c0,0-7.6,1.7-9.4,1.9c-3.5,0.5-10.3,0.7-11.7,0.7c-1.5,0,2.5,5.2,2.5,6.7s-6.7,6.2-10.2,9.2c-4.4,3.7-22.8,26.9-17.5,29.9
					c0,0,16.7-18.8,17.4-20.8"/>
			</g>
			<g>
				<path class="st6" d="M243.2,421.2c-0.5,0.9-1.2,1.5-1.9,2.2c-0.7,0.6-1.4,1.3-2.2,1.9l-4.4,3.6c-2.9,2.4-5.9,4.8-8.6,7.4
					c-0.6,0.6-1.3,1.3-1.9,2c-0.5,0.7-1.1,1.5-1.2,2.1c-0.1,0.5,0.4,0.7,1.3,0.5c0.8-0.2,1.7-0.5,2.5-0.9c3.4-1.6,6.6-3.6,9.8-5.6
					c6.4-4,12.6-8.4,19-12.4c1.4-1.1,2.6-2.6,3.8-4c1.2-1.5,2.3-3,3.4-4.6c2.1-3.1,4.2-6.3,6.1-9.5v0.3l-6.3-10.9l-6.4-10.8l0.6,0.3
					c-3.2,0.7-6.5,1.5-9.7,2.1c-3.3,0.4-6.6,0.6-9.9,0.8h-1.3h-0.3c-0.2,0,0,0,0.2-0.1c0.2-0.2,0.2-0.3,0.2-0.3v0.1
					c0.2,0.6,0.6,1.4,1,2c0.4,0.7,0.8,1.4,1.2,2.2c0.2,0.4,0.4,0.8,0.5,1.3c0.1,0.2,0.2,0.5,0.1,1c-0.1,0.5-0.3,0.6-0.4,0.9
					c-1.2,1.5-2.4,2.5-3.7,3.6l-3.8,3.1c-1.3,1-2.6,2-3.7,3.1c-1.1,1.1-2.2,2.4-3.3,3.6c-2.1,2.5-4.1,5.1-6,7.7s-3.8,5.3-5.4,8.1
					c-0.8,1.4-1.5,2.8-2,4.3c-0.5,1.4-0.8,3.2,0.1,3.8l-0.8,0.1l9.1-10l4.5-5.1c1.5-1.7,3-3.4,4.2-5.2l0.2,0.1c-1.1,2-2.6,3.7-4,5.5
					s-2.8,3.6-4.3,5.3c-2.9,3.5-5.8,6.9-8.8,10.4l-0.4,0.5l-0.4-0.3c-0.2-0.2-0.5-0.3-0.6-0.5c-0.2-0.2-0.4-0.5-0.4-0.7
					c-0.2-0.5-0.2-1-0.2-1.5c0-0.9,0.3-1.8,0.5-2.6c0.5-1.6,1.3-3.1,2-4.6c1.6-2.9,3.4-5.7,5.3-8.4c1.9-2.7,3.9-5.3,6.1-7.9
					c1.1-1.3,2.2-2.5,3.3-3.7c1.2-1.3,2.6-2.3,3.8-3.3l3.8-3c1.2-1,2.6-2.1,3.4-3.2c0.2-0.4,0.2,0,0.1-0.5c-0.1-0.3-0.3-0.7-0.4-1
					c-0.4-0.7-0.7-1.4-1.1-2.2c-0.4-0.7-0.8-1.4-1.1-2.4c0-0.1-0.1-0.3-0.1-0.5s0-0.5,0.4-0.9c0.2-0.1,0.4-0.2,0.5-0.2h0.2h0.1h0.3
					h1.2c3.3-0.1,6.6-0.3,9.8-0.6l9.6-1.8l0.4-0.1l0.2,0.3l6.1,11l6.2,11l0.1,0.1l-0.1,0.1c-2,3.2-3.9,6.5-6.1,9.6
					c-1.1,1.6-2.1,3.1-3.3,4.7c-1.2,1.5-2.3,3-3.8,4.3c-3.2,2.2-6.2,4.4-9.3,6.6s-6.2,4.3-9.4,6.4c-3.2,2-6.5,4-10,5.6
					c-0.9,0.4-1.8,0.7-2.8,0.9c-0.5,0.1-1.1,0.2-1.8-0.1c-0.4-0.1-0.6-0.4-0.8-0.7c-0.1-0.2-0.2-0.4-0.2-0.5c0-0.2,0-0.4,0-0.5
					c0.2-1.3,0.9-2,1.5-2.8s1.3-1.4,2-2.1c2.8-2.6,5.8-4.9,8.9-7.2l4.6-3.4c0.7-0.6,1.5-1.2,2.2-1.7c0.7-0.6,1.5-1.2,2-2
					L243.2,421.2z"/>
			</g>
		</g>
		<g>
			<path class="st2" d="M283.9,421.4c0,0-19.6-25.7-22.8-53c0,0,13.3,9.1,18.2,22.3C284.1,403.8,283.9,421.4,283.9,421.4z"/>
		</g>
		<g>
			
				<linearGradient id="SVGID_2_" gradientUnits="userSpaceOnUse" x1="331.2" y1="-67.2" x2="331.2" y2="-67.2" gradientTransform="matrix(1 0 0 -1 -123.5 372)">
				<stop  offset="0" style="stop-color:#FFFFFF"/>
				<stop  offset="1" style="stop-color:#000000"/>
			</linearGradient>
			<path class="st7" d="M207.7,439.2"/>
		</g>
		<g>
			<g>
				<path class="st4" d="M242.2,422.6c0,0-5.4,4.6-13.1,11.1c-7,5.8-13.2,7.6-14.4,6.4c-1.6-1.5-0.9-1.9-0.9-1.9s2.4-1.5,5.7-5.4"/>
			</g>
			<g>
				<path class="st6" d="M242.2,422.6c-2.4,2.8-5.1,5.3-7.9,7.5c-1.5,1.1-3,2.1-4.5,3.2c-1.4,1.1-2.8,2.4-4.3,3.5
					c-1.5,1.2-3,2.2-4.7,3c-1.7,0.7-3.4,1.6-5.7,1.4c-0.3-0.1-0.6-0.2-1-0.4c-0.3-0.2-0.4-0.4-0.6-0.6c-0.2-0.2-0.4-0.4-0.5-0.7
					c-0.2-0.3-0.4-0.6-0.3-1.2c0-0.3,0.2-0.6,0.6-0.8l0.2-0.1l0.5-0.4c0.4-0.3,0.7-0.5,1.1-0.8c1.4-1.1,2.8-2.3,4.2-3.5l0.1,0.1
					c-1,1.6-2.1,3-3.4,4.4c-0.3,0.3-0.7,0.6-1,0.9l-0.5,0.5l-0.3,0.2c0.2-0.1,0.2-0.2,0.2-0.3c0-0.2,0.2,0.3,0.5,0.5
					c0.1,0.1,0.3,0.3,0.4,0.4c0,0,0.1,0,0.3,0.1c1.4,0.1,3.2-0.5,4.8-1.1c1.6-0.7,3.2-1.5,4.8-2.3c1.6-0.9,3.1-1.9,4.4-3.1
					c1.4-1.2,2.6-2.6,3.9-3.8C236.2,426.7,239.1,424.5,242.2,422.6L242.2,422.6z"/>
			</g>
		</g>
		<g>
			<g>
				<path class="st4" d="M233.6,416.5c-2,1.2-10.5,12.1-14.7,17s-7.3,6.2-9.5,4s1.2-6.8,1.2-6.8l3-3.4
					c13.4-15.6,12.7-14.4,14.1-16.9"/>
			</g>
			<g>
				<path class="st6" d="M233.7,416.6c-2.4,2.5-4.3,5.4-6.5,8c-1.1,1.4-2.2,2.7-3.3,4s-2.3,2.6-3.5,3.8s-2.4,2.5-3.7,3.7
					c-1.3,1.1-2.7,2.4-4.6,2.6c-0.9,0.2-2-0.2-2.7-0.8c-0.8-0.5-1.3-1.6-1.3-2.6s0.3-1.9,0.6-2.7c0.4-0.9,0.8-1.6,1.3-2.4l0,0l0,0
					l4.3-5.1c1.4-1.7,2.9-3.4,4.4-5s3-3.3,4.6-4.8l2.3-2.4c0.8-0.8,1.5-1.6,2.1-2.5l0.1,0.1c-0.9,2.1-2.4,3.8-3.7,5.6
					c-1.4,1.7-2.8,3.5-4.2,5.2c-2.8,3.4-5.8,6.8-8.8,10l0,0c-0.9,1.3-1.8,2.8-2,4.3c-0.1,0.7,0.2,1.4,0.7,1.9s1.3,0.8,2.1,0.8
					c1.6-0.2,3.1-1.2,4.3-2.4c1.3-1.2,2.3-2.6,3.3-3.9s2.1-2.8,3.1-4.1c1.1-1.4,2.2-2.7,3.3-4s2.3-2.6,3.5-3.8
					c1.2-1.2,2.4-2.5,3.9-3.5L233.7,416.6z"/>
			</g>
		</g>
		<g>
			<g>
				<path class="st3" d="M254.1,379.4l11.5-11.2c0,0,16.1,18.3,16.1,34.2L271,413.2L254.1,379.4z"/>
			</g>
			<g>
				<path class="st6" d="M253.9,379.4c1.6-1.9,3.3-4,5-6c1.8-2.1,3.7-4.1,5.7-6.1l1-1l1,1.1c2.2,2.5,4.2,5,5.9,7.8
					c1.7,2.8,3.2,5.7,4.5,8.7c1.2,3,2.5,6,3.5,9c1,3.1,1.8,6.2,2.1,9.6v0.3l-0.3,0.4c-1.6,1.9-3.3,3.9-5,5.8l-5.2,5.6l-1.5,1.6
					l-1.1-2c-1.5-2.8-3-5.7-4.5-8.7c-1.4-2.9-2.8-5.8-4.1-8.8c-1.3-2.9-2.6-5.8-3.7-8.7C256.1,385,254.9,382.1,253.9,379.4z
					 M254.2,379.4c1.8,2.9,3.5,5.7,5.1,8.4c1.6,2.8,3.2,5.5,4.8,8.2s3,5.4,4.4,8.1s2.7,5.5,4,8.3l-2.6-0.4l5.5-5.3
					c1.8-1.7,3.7-3.5,5.7-5.2l-0.3,0.6c0.1-3.1-0.3-6.2-1.2-9.3c-0.9-3-2.3-5.9-3.9-8.6s-3.6-5.3-5.4-7.8c-1.9-2.5-3.7-5.1-5.7-7.5
					l2,0.1c-1.9,1.7-3.8,3.4-5.8,5.1C258.6,375.9,256.5,377.6,254.2,379.4z"/>
			</g>
		</g>
		<g>
			<g>
				<path class="st1" d="M257.4,165.3c0,0,101.6,130,101.6,133.8c0,3.8-63.8,91-74.9,119.6c0,0-9.3-36.5-21.9-50.3
					c0,0,45.2-53.8,48.9-69.3c0,0-50-41.4-52.8-34.8L257.4,165.3z"/>
			</g>
			<g>
				<g>
					<path class="st2" d="M257.4,165.1c0.1,0,0.3,0.2,0.4,0.3l0.2,0.2l0.4,0.5l0.8,0.9l1.5,1.9l3.1,3.7l6.1,7.5
						c4.1,5,8.1,10,12.1,15.1c8,10.1,16.1,20.2,24,30.3l23.7,30.6c7.8,10.3,15.6,20.6,23.1,31.1c1.9,2.6,3.7,5.3,5.5,8
						c0.5,0.7,0.9,1.4,1.3,2.1l0.3,0.6c0.1,0.2,0.2,0.4,0.3,0.9c0.1,0.8-0.1,0.9-0.2,1.2c-0.1,0.2-0.2,0.4-0.3,0.6
						c-0.8,1.5-1.7,2.8-2.6,4.2c-3.6,5.4-7.2,10.7-10.9,16c-7.4,10.6-14.7,21.2-21.9,31.9c-7.2,10.7-14.2,21.5-21,32.4
						c-3.4,5.5-6.7,11-9.9,16.6c-3.1,5.6-6.2,11.3-8.5,17.2l-0.9,2.2l-0.6-2.3c-1.2-4.4-2.6-8.8-4-13.2c-1.5-4.4-3-8.7-4.8-12.9
						c-1.7-4.2-3.7-8.4-5.8-12.4c-2.2-4-4.6-7.9-7.6-11.1l0,0l-0.8-1l0.8-1c4.5-5.5,8.9-11,13.3-16.6s8.7-11.2,12.9-16.8
						c4.2-5.7,8.4-11.4,12.3-17.3c1.9-2.9,3.8-5.9,5.6-8.9c1.7-3,3.4-6.1,4.3-9.2l0.6,1.8c-8.2-6.8-16.7-13.5-25.2-19.9
						c-4.3-3.2-8.6-6.3-13.1-9.3c-2.2-1.5-4.5-2.9-6.8-4.1c-1.1-0.6-2.3-1.2-3.5-1.6c-0.5-0.2-1.1-0.4-1.6-0.4c-0.2,0-0.4,0-0.4,0
						s0.2-0.1,0.2-0.2l-2.8-0.6c0-16.7,0-33.5,0.3-50.1l0.2-24.7L257.4,165.1z M257.5,165.4l0.5,25.1l0.6,24.8
						c0.5,16.4,0.8,32.7,1.1,49l-2.8-0.6c0.3-0.7,1-1.3,1.6-1.5s1.1-0.2,1.6-0.1c0.9,0.1,1.6,0.3,2.3,0.5c1.4,0.5,2.6,1.1,3.9,1.7
						c2.5,1.3,4.8,2.7,7.1,4.2c4.6,2.9,9,6,13.3,9.3c8.7,6.4,17.2,13.1,25.5,19.9l0.9,0.7l-0.3,1.1c-1.1,3.8-2.8,7-4.6,10.1
						c-1.8,3.1-3.7,6.1-5.7,9.1c-4,5.9-8.2,11.7-12.5,17.4c-4.3,5.7-8.7,11.3-13.2,16.8s-9,11-13.6,16.4v-2l0,0
						c3.2,3.7,5.5,7.8,7.6,11.9c2.1,4.2,3.9,8.5,5.5,12.8c3.3,8.7,6.1,17.5,8.4,26.5l-1.5-0.1c2.5-6,5.7-11.7,8.9-17.3
						c3.2-5.6,6.6-11.1,10-16.6c6.9-10.9,14.1-21.6,21.1-32.4c7.1-10.8,14.4-21.4,21.4-32.2c3.5-5.4,7.1-10.8,10.5-16.2
						c0.8-1.4,1.7-2.7,2.4-4.1c0.1-0.2,0.2-0.3,0.2-0.5c0.1-0.1,0.1-0.4,0.1,0c0,0.1-0.1-0.1-0.1-0.2l-0.3-0.5
						c-0.4-0.6-0.8-1.3-1.3-2c-1.8-2.6-3.7-5.2-5.7-7.8c-7.7-10.3-15.5-20.6-23.3-30.8L303.7,227c-7.9-10.2-15.5-20.6-23.4-30.8
						l-11.6-15.4l-5.8-7.8l-2.9-4l-1.5-1.9l-0.7-1l-0.4-0.5l-0.2-0.3C257.4,165.6,257.5,165.6,257.5,165.4z"/>
				</g>
			</g>
		</g>
		<g>
			<polygon class="st8" points="120.6,241.9 128.3,202.8 133.3,203.4 128.3,242.9 			"/>
		</g>
		<g>
			<path class="st9" d="M111.9,324.9c11.1,1,11.1-9.6,12.9-30.2c4-45.9,7.8-53.7,0.3-54.5c-4.8-0.5-5.8,2.5-7.6,7.9
				c-2.3,7.2-16.4,64.9-13.5,71.2C106.6,324.8,111.9,324.9,111.9,324.9z"/>
		</g>
		<g>
			<polygon class="st3" points="132.1,185.1 91.3,262.4 121.3,353.4 158.1,379.6 201.6,373.2 242.4,312.2 250.2,279.7 244.6,243.1 
				223.2,200 215.5,185.1 			"/>
		</g>
		<g>
			<g>
				<path class="st4" d="M147.6,207c0,0,23,28.3,23,45.1c0,0-0.6-24.9,24-43.9C194.7,208.2,170.7,222.9,147.6,207z"/>
			</g>
			<g>
				<path class="st5" d="M147.7,207c0.7,0.6,1.4,1.6,2.1,2.3l2,2.5c1.3,1.7,2.6,3.4,3.9,5.1c2.6,3.5,4.8,7.1,7,10.8
					s4.1,7.6,5.7,11.6c1.5,4,2.7,8.3,2.6,12.7h-0.7c0.1-4.4,1-8.6,2.2-12.8c1.3-4.1,2.8-8.2,4.8-12s4.4-7.5,7.3-10.8
					c1.3-1.7,3-3.2,4.5-4.8c1.6-1.5,3.3-2.8,4.9-4.3l1,1.4c-3.7,2.2-7.7,3.6-11.7,4.7c-4.1,1.1-8.3,1.6-12.5,1.5
					c-2.1,0-4.2-0.3-6.3-0.5c-2-0.5-4.1-0.8-6.1-1.6c-1-0.4-2-0.6-2.9-1.1l-2.8-1.4c-1-0.5-1.7-1-2.6-1.6
					C149.5,208.2,148.6,207.6,147.7,207z M147.6,207c0.9,0.5,1.8,1,2.7,1.5s1.9,1.1,2.8,1.4l2.8,1.2c0.9,0.4,1.9,0.6,2.9,0.9
					c1.9,0.7,4,0.9,5.9,1.3c2,0.2,4,0.5,6.1,0.4c4.1-0.1,8.1-0.6,12.1-1.6c3.9-1,7.8-2.6,11.2-4.5l7.2-3.9L195,209
					c-1.6,1.4-3.3,2.6-4.9,4.1c-1.5,1.5-3.1,2.9-4.5,4.6c-0.7,0.8-1.4,1.6-2.1,2.4l-1.9,2.6c-0.7,0.8-1.3,1.7-1.8,2.6
					s-1.2,1.7-1.7,2.7c-2.2,3.7-3.9,7.6-5.2,11.7c-1.3,4.1-2,8.4-2,12.6h-0.7c-0.1-4.2-1.6-8.3-3.2-12.2c-1.6-3.9-3.6-7.7-5.6-11.4
					c-2.1-3.7-4.3-7.3-6.7-10.9C152.5,214,150.1,210.6,147.6,207z"/>
			</g>
		</g>
		<g>
			<g>
				<path class="st3" d="M170.7,252.1c0,0,6.8-23.2,18.4-22.6c0,0,7.2-30.6,9.7-15.7c2.5,14.9,0,25.1,0,25.1s15.8-26.6,16.1-30.5
					l-7.9-16.5C207,191.9,169.9,225.7,170.7,252.1z"/>
			</g>
			<g>
				<path class="st6" d="M170.7,252.1c-0.2,0,0-0.1,0-0.2l0.1-0.2l0.1-0.5l0.3-0.9c0.2-0.6,0.4-1.2,0.6-1.8c0.4-1.2,0.9-2.4,1.4-3.6
					c1-2.4,2.1-4.7,3.5-6.9s3-4.3,5-6.1c2-1.7,4.7-3,7.5-2.8l-0.7,0.5c1-4.2,2.1-8.4,3.5-12.5c0.7-2,1.5-4.1,2.7-6
					c0.3-0.5,0.7-1,1.2-1.4c0.2-0.1,0.4-0.2,0.5-0.3c0.2-0.1,0.5-0.1,0.7-0.1c0.2,0.1,0.5,0.2,0.6,0.3s0.3,0.3,0.4,0.4
					c0.7,1.1,0.9,2.2,1.1,3.3c0.7,4.3,1,8.6,1,13c-0.1,4.3-0.3,8.7-1.2,12.9l-0.5-0.2c2.9-5,5.8-10,8.5-15.1
					c1.4-2.6,2.7-5.1,3.9-7.7c0.6-1.3,1.2-2.6,1.8-3.9c0.3-0.6,0.6-1.3,0.8-2l0.4-1l0.2-0.9l0.1,0.3l-8-16.4l1.3,0.3
					c-4.3,4.1-8.4,8.5-12.4,13c-3.9,4.5-7.6,9.2-11.1,14.1c-3.4,4.9-6.5,10-9,15.4C172.6,240.3,170.9,246.2,170.7,252.1z
					 M170.7,252.2c-0.3-3.1,0.1-6.1,0.7-9.1c0.6-3,1.6-5.8,2.7-8.6c2.3-5.6,5.3-10.9,8.7-15.9s7.1-9.8,11.1-14.3
					c3.9-4.6,8.1-8.9,12.6-13l0.8-0.7l0.5,1l7.7,16.6l0.1,0.2v0.1c-0.1,0.4-0.2,0.8-0.3,1.2l-0.4,1c-0.3,0.7-0.6,1.3-0.9,2
					c-0.6,1.3-1.3,2.6-2,3.9c-1.4,2.6-2.8,5.1-4.2,7.6c-2.9,5-5.8,10-8.7,14.9l-0.7,1.2l0.3-1.4c0.8-4.2,1.1-8.5,1-12.8
					c-0.2-4.3-0.6-8.6-1.4-12.7c-0.2-1-0.5-2.1-1-2.7c-0.1,0-0.1-0.1-0.2-0.2H197c0,0,0,0-0.1,0s-0.1,0.1-0.2,0.1
					c-0.3,0.3-0.6,0.6-0.8,1.1c-1,1.7-1.8,3.8-2.5,5.8c-1.4,4-2.6,8.2-3.6,12.3l-0.1,0.5h-0.5c-2.4-0.2-4.7,0.9-6.7,2.5
					c-1.9,1.6-3.6,3.6-5,5.7c-1.4,2.1-2.6,4.4-3.7,6.7c-0.5,1.2-1.1,2.3-1.6,3.5l-0.7,1.8l-0.4,0.9l-0.2,0.5L170.7,252.2
					C170.8,252,170.9,252.1,170.7,252.2z"/>
			</g>
		</g>
		<g>
			<g>
				<path class="st3" d="M168.6,252.1c0,0-6.8-21.1-19.9-20.2c0,0,1.4-19-3.9-19.6c-5.3-0.7,1.1,31.1,1.1,31.1s-16.1-20.8-22.9-36.3
					l9.9-16.4c0,0,34.8,33.5,37.8,61.6"/>
			</g>
			<g>
				<path class="st6" d="M168.5,252.2c-1.8-4.7-4.2-9.2-7.4-13.1c-1.6-1.9-3.4-3.7-5.5-4.8c-2.1-1.2-4.5-1.8-6.9-1.7l-0.7,0.1V232
					c0.2-4.4,0.2-8.8-0.5-13.1c-0.2-1.1-0.4-2.1-0.7-3.1s-0.8-1.9-1.5-2.4c-1.4-1.3-1.8,1.8-2,3.7c-0.2,4.3,0.3,8.8,0.7,13.2
					c0.5,4.4,1.2,8.8,2,13.1l0.2,1.2l-0.7-0.9c-4.3-5.8-8.5-11.6-12.5-17.5c-4-6-7.8-12.1-10.8-18.7l-0.1-0.3l0.2-0.3l9.8-16.5
					l0.5-0.9l0.7,0.7c4.4,4.3,8.5,8.9,12.4,13.6c3.9,4.7,7.7,9.6,11,14.8s6.5,10.4,8.9,16.1c2.5,5.6,4.3,11.6,4.9,17.7h-0.2
					c-0.9-6.1-3.1-11.8-5.7-17.3c-2.6-5.5-5.8-10.7-9.3-15.7s-7.2-9.8-11.1-14.5c-3.9-4.7-8-9.2-12.3-13.5l1.3-0.2l-10,16.4V207
					c2.8,6.5,6.4,12.8,10.2,18.8c1.9,3,3.9,6,5.9,9c2,2.9,4.1,5.8,6.4,8.7l-0.5,0.2c-0.9-4.4-1.6-8.7-2.4-13.1
					c-0.6-4.4-1.3-8.8-1.2-13.3c0-1.1,0.1-2.3,0.5-3.5c0.2-0.5,0.5-1.3,1.3-1.7c0.9-0.4,1.6,0,2.2,0.3c1.2,0.8,1.6,2,2.1,3.1
					c0.4,1.1,0.6,2.2,0.8,3.4c0.6,4.5,0.6,9,0.3,13.4l-0.7-0.7c2.6-0.1,5.4,0.6,7.6,2c2.2,1.4,4.1,3.3,5.7,5.3c1.6,2,2.9,4.2,4,6.5
					s2.1,4.7,2.8,7.1h0.3V252.2z"/>
			</g>
		</g>
		<g>
			<g>
				<path class="st1" d="M214.5,165.7l42.8-0.6c0,0,3.1,94.6,1.8,116.1c-1.3,21.5-29,91.2-29,91.2l32.4,84.9c0,0-57.3,51-59.9,52.3
					c-2.6,1.3-40.8-127-40.8-132c0-5.1,83.9-87.4,83.2-97.8c-0.6-10.4-38.1-87.8-38.1-87.8S212.6,178,214.5,165.7z"/>
			</g>
			<g>
				<path class="st2" d="M214.4,165.6l43-1.5h1.1l0.1,1.1c0.8,17.6,1.5,35.3,2.1,53c0.5,17.7,1,35.4,0.9,53.1c0,2.2,0,4.4-0.1,6.7
					l-0.1,3.4c-0.1,1.1-0.2,2.3-0.3,3.5c-0.6,4.6-1.6,8.9-2.7,13.2c-2.3,8.6-4.9,17.1-7.8,25.5c-5.7,16.8-12.2,33.3-18.9,49.6v-1.1
					l15.6,42.7l8,21.3c2.6,7.1,5.4,14.2,8.1,21.2l0.2,0.5l-0.4,0.4L222,495.1l-10.3,9.2l-5.2,4.6l-1.4,1.1l-0.7,0.6
					c-0.1,0.1-0.2,0.2-0.4,0.3l-0.3,0.2l-0.1,0.1c-0.1,0,0.1,0.1-0.7,0.2c-0.7,0-0.7-0.1-1-0.3c-0.2-0.1-0.2-0.2-0.3-0.3
					c-0.1-0.2-0.2-0.2-0.3-0.4c-0.1-0.2-0.2-0.4-0.3-0.5c-0.2-0.3-0.3-0.6-0.5-0.9c-0.3-0.5-0.5-1.1-0.7-1.6
					c-1.8-4.3-3.3-8.7-4.9-13.1c-1.5-4.4-3-8.7-4.5-13.1c-5.8-17.5-11.3-35.1-16.7-52.8c-2.7-8.8-5.3-17.7-7.9-26.5l-3.8-13.3
					c-0.6-2.2-1.2-4.5-1.8-6.8l-0.4-1.7l-0.2-0.9c-0.1-0.4-0.1-0.6-0.2-1.3c0-0.1,0-0.7,0.1-0.9c0.1-0.2,0.1-0.4,0.2-0.5
					c0.1-0.3,0.2-0.5,0.3-0.7c0.2-0.4,0.4-0.6,0.6-0.9c0.4-0.5,0.7-1.1,1.1-1.6c2.9-3.8,6-7.2,9.1-10.7l9.4-10.2l18.9-20.2
					c6.3-6.7,12.6-13.5,18.7-20.3c6.1-6.8,12.3-13.6,18-20.7c1.4-1.8,2.8-3.6,4.1-5.4c0.6-0.9,1.3-1.8,1.8-2.7
					c0.5-0.9,1-1.9,1.3-2.6c0.1-0.2,0.1-0.3,0.1-0.3s0-0.1,0-0.2s0-0.2,0-0.3c-0.1-0.5-0.2-1-0.3-1.5c-0.3-1-0.6-2.1-0.9-3.2
					c-0.7-2.1-1.5-4.3-2.3-6.4c-3.3-8.6-6.9-17-10.5-25.5c-7.3-16.9-15-33.7-22.6-50.5l-0.2-0.4l0.1-0.3c1.7-4.2,3.3-8.4,4.7-12.7
					c0.7-2.2,1.3-4.3,1.9-6.5C213.4,170.1,213.8,167.9,214.4,165.6z M214.7,165.9c-0.2,2.1-0.6,4.4-1.1,6.6c-0.5,2.2-1,4.5-1.6,6.7
					c-1.2,4.4-2.6,8.8-4.2,13.1v-0.7c8.4,16.4,16.4,33.1,24.2,49.8c3.9,8.4,7.7,16.8,11.1,25.4c0.9,2.2,1.7,4.3,2.5,6.6
					c0.4,1.1,0.7,2.3,1.1,3.4c0.2,0.6,0.3,1.2,0.4,1.9c0,0.2,0.1,0.4,0.1,0.5c0,0.2,0,0.4,0,0.7c0,0.5-0.1,1-0.2,1.4
					c-0.4,1.5-1,2.6-1.6,3.7s-1.3,2.1-1.9,3.1c-1.3,2-2.7,3.8-4.1,5.7c-11.5,14.7-24.1,28.2-36.5,41.8l-18.8,20.3l-9.3,10.1
					c-3,3.4-6.2,6.8-8.9,10.3c-0.3,0.4-0.6,0.9-0.9,1.3c-0.1,0.2-0.3,0.4-0.3,0.5c-0.1,0.1,0,0.4,0-0.5c0-0.1,0,0.2,0.1,0.5l0.2,0.8
					l0.4,1.6c0.5,2.2,1.1,4.4,1.7,6.6l3.7,13.3c2.5,8.9,5,17.7,7.6,26.6c5.2,17.7,10.4,35.4,15.8,53c2.8,8.8,5.4,17.6,8.6,26.1
					c0.2,0.5,0.4,1,0.6,1.5c0.1,0.3,0.2,0.5,0.3,0.7l0.1,0.2l0,0l-0.1-0.1c-0.3-0.1-0.2-0.2-0.8-0.2c-0.7,0.1-0.5,0.2-0.5,0.1l0,0
					l0.1-0.1c0.1,0,0.2-0.2,0.3-0.2l0.6-0.5l1.3-1.1l5.3-4.4l10.5-9c14.1-11.9,27.9-24.1,41.7-36.3l-0.2,0.9
					c-2.6-7.1-5.4-14.2-8.1-21.2l-8.2-21.2L228.9,373l-0.2-0.5l0.2-0.6c6.2-16.5,12.1-33.2,17.6-49.9c2.7-8.4,5.4-16.8,7.6-25.2
					c1.1-4.2,2.1-8.5,2.7-12.7c0.2-1.1,0.3-2.1,0.4-3.1l0.1-3.3c0.1-2.2,0.1-4.4,0.2-6.6c0.2-17.6-0.1-35.3-0.4-52.9
					c-0.2-17.7-0.5-35.3-0.8-53l1.1,1.1L214.7,165.9z"/>
			</g>
		</g>
		<g>
			<g>
				<path class="st1" d="M120.6,173.2c0,0-21.2,2.2-35.7,0s-22.5,21-23.9,45.7S29.2,374.1,24.9,393.8l60.8-71.1c0,0-3-75.5-0.9-87.1
					c2.2-11.6,8.2-39.4-2.7-47.2"/>
			</g>
			<g>
				<path class="st2" d="M120.7,173.3c-5.6,0.7-11.2,1.2-16.9,1.4s-11.3,0.2-17-0.4l-2.1-0.2c-0.6-0.1-1.3-0.1-1.9-0.1
					c-1.3,0.1-2.6,0.4-3.7,0.9c-2.4,1.1-4.3,2.9-5.9,5.1c-3.2,4.3-5.3,9.6-6.8,14.9c-1.5,5.3-2.5,10.9-3.1,16.4
					c-0.3,2.8-0.5,5.5-0.7,8.4s-0.6,5.7-1.1,8.5c-1.7,11.2-4,22.3-6.4,33.3l-14.7,66.2l-3.6,16.5l-3.7,16.7l-7,33.2l-2.2-1.1
					L54,357.2l15.1-17.9c5-6,10.1-11.9,15.2-17.8l-0.4,1.2c-0.4-11.4-0.8-22.7-1.1-34.1c-0.2-11.4-0.3-22.7-0.2-34.1
					c0.1-5.7,0.1-11.4,0.7-17.2c0.1-0.7,0.2-1.5,0.3-2.2L84,233l0.8-4.2c0.5-2.8,1.1-5.6,1.5-8.3c0.8-5.6,1.4-11.2,1.2-16.8
					c-0.1-2.8-0.5-5.6-1.3-8.3c-0.8-2.6-2.3-5.2-4.5-6.9l0.2-0.3c2.4,1.6,4,4.2,5,6.9s1.5,5.6,1.7,8.4c0.5,5.7,0.1,11.5-0.6,17.2
					c-0.4,2.8-0.8,5.7-1.2,8.5l-0.7,4.2l-0.4,2.1c-0.1,0.7-0.2,1.3-0.3,2c-0.4,5.6-0.4,11.2-0.3,16.9c0.1,11.3,0.5,22.7,0.8,34
					s0.7,22.7,1.2,34v0.7l-0.5,0.5c-5.1,5.9-10.1,11.9-15.2,17.8L56.1,359l-30.6,35.3l-3.4,3.9l1.2-5c5.2-22,10.7-43.9,15.6-66
					c5-22,9.5-44.2,13.6-66.4c1-5.6,2-11.1,3-16.7c0.9-5.6,1.9-11.1,2.7-16.7c0.4-2.8,0.8-5.6,1-8.3c0.2-2.8,0.4-5.7,0.7-8.5
					c0.7-5.7,1.8-11.3,3.4-16.8c1.7-5.5,3.8-11,7.5-15.6c1.8-2.3,4.2-4.4,7-5.6c1.4-0.6,3-0.9,4.5-0.9c0.8,0,1.5,0,2.3,0.1l2.1,0.3
					c11.1,1.4,22.5,1.1,33.7,0.5L120.7,173.3z"/>
			</g>
		</g>
		<g>
			<g>
				<path class="st1" d="M173.4,368.6c0,0-58.2-54.7-73.8-106.3c0,0,11.5-39,33.3-71.8c0,0-8.6-12.7-9.7-17.5c0,0-29,2.3-38.2,0.1
					c-9.2-2.1,2.8,174,12.2,197c0,0-28.6,62.3-39,95c0,0,40.9,35.1,79.2,42.8c0,0,24.4-96.3,36.8-120.5
					C180.9,373.9,173.4,368.6,173.4,368.6z"/>
			</g>
			<g>
				<path class="st2" d="M173.3,368.8c-7.9-7.5-15.3-15.5-22.6-23.6c-7.2-8.1-14.3-16.5-20.9-25.2c-6.6-8.7-12.8-17.7-18.3-27.2
					s-10.4-19.4-13.7-30l-0.2-0.5l0.2-0.6c1.9-6.5,4-12.7,6.4-18.9s4.9-12.4,7.7-18.4c2.7-6.1,5.8-12,9-17.9
					c3.2-5.8,6.7-11.5,10.4-17.1v2.3c-1.8-2.9-3.6-5.7-5.3-8.7c-0.8-1.5-1.6-3-2.4-4.5c-0.8-1.6-1.5-3.1-2-5l1.8,1.3
					c-9.9,0.5-19.8,0.9-29.8,0.5c-2.5-0.1-5-0.3-7.5-0.7l-1-0.2c-0.1,0-0.4-0.1-0.2,0c0.1,0,0.2,0,0.2-0.1c0,0-0.4,0.5-0.5,1
					c-0.4,1-0.6,2.2-0.8,3.4c-0.7,4.8-0.9,9.7-1.1,14.6c-0.6,19.7,0.4,39.5,1.6,59.2c0.6,9.9,1.4,19.7,2.3,29.6
					c0.9,9.8,1.8,19.7,3,29.5c1.1,9.8,2.3,19.6,3.7,29.4c0.7,4.9,1.5,9.7,2.4,14.6c0.5,2.4,0.9,4.8,1.5,7.2c0.5,2.3,1.2,4.7,2,6.8
					l0.4,0.8l-0.4,0.9c-6.9,15.6-13.8,31.3-20.3,47.1c-3.3,7.9-6.5,15.8-9.5,23.8c-3,7.9-6,16-8.6,24l-0.8-2.8
					c5.7,4.8,11.7,9.3,17.9,13.5c6.2,4.3,12.5,8.3,18.9,12.1c6.5,3.7,13.2,7.1,20,10c3.4,1.4,6.9,2.8,10.4,3.9s7.1,2.1,10.7,2.9
					l-2.7,1.7c3.2-11.8,6.5-23.6,9.9-35.3c3.5-11.7,7-23.4,10.7-35s7.5-23.2,11.8-34.7c2.1-5.7,4.5-11.4,7.2-16.8
					c1.2-2.7,2.1-5.7,2.1-8.7C176.6,373.8,175.6,370.7,173.3,368.8z M173.6,368.5c2.5,2,3.6,5.3,3.6,8.3c0,3.1-0.9,6.1-2.1,9
					c-2.7,5.5-4.8,11.1-6.9,16.9c-4,11.5-7.3,23.2-10.6,35c-3.3,11.7-6.3,23.6-9.3,35.4l-8.8,35.5l-0.5,2.1l-2.2-0.4
					c-7.6-1.5-15-3.9-22.1-6.8s-14-6.4-20.6-10.1c-6.7-3.8-13.2-7.8-19.4-12.2c-6.3-4.4-12.3-8.9-18.3-13.9l-1.3-1.1l0.5-1.7
					c2.6-8.2,5.7-16.3,8.9-24.3c3.2-8,6.5-15.9,9.8-23.8c6.7-15.8,13.7-31.4,20.9-47v1.7c-1-2.6-1.5-5-2.1-7.5
					c-0.5-2.5-1-4.9-1.4-7.4c-0.8-4.9-1.5-9.8-2.1-14.8c-1.2-9.9-2.1-19.7-3-29.6c-0.8-9.9-1.6-19.7-2.2-29.6l-1.8-29.6
					c-0.5-9.9-0.9-19.8-1.3-29.7s-0.6-19.8-0.5-29.7c0.1-5,0.2-9.9,0.8-14.9c0.2-1.3,0.4-2.5,0.8-3.8c0.3-0.6,0.4-1.4,1.4-2.2
					c0.3-0.2,0.7-0.4,1.1-0.4c0.5,0,0.5,0.1,0.7,0.1l0.9,0.1c2.3,0.3,4.8,0.5,7.2,0.5c9.8,0.1,19.7-0.6,29.4-1.4l1.4-0.1l0.4,1.5
					c0.4,1.3,1.1,2.8,1.9,4.2s1.6,2.8,2.5,4.3c1.7,2.8,3.6,5.6,5.4,8.3l0.7,1.1l-0.7,1.2c-3.5,5.5-6.9,11.1-10,16.9
					c-3.1,5.8-6,11.6-8.7,17.6s-5.3,12-7.7,18.1c-2.4,6.1-4.7,12.3-6.7,18.5v-1.1c3,10.2,7.4,20.2,12.5,29.7s11,18.7,17.2,27.6
					s13,17.4,20.1,25.7C158.3,353,165.8,360.9,173.6,368.5z"/>
			</g>
		</g>
		<g>
			<path class="st4" d="M226.8,411.5l2.1-2.8l7.4,3.4l6.1,4.1l3.1,4.7c0,0-21.3,17.1-24.8,18.2c-3.5,1.2-6.1,1-6.1,1l-2-4.5l1-4.4
				l13.6-15.5L226.8,411.5z"/>
		</g>
		<g>
			<g>
				<path class="st4" d="M243.2,421.2c-1.2,2.8-24.2,17.4-20.1,20.2c3.4,2.4,28-16,32.3-18.5c4.3-2.5,14-18.9,14-18.9l-12.5-21.8
					c0,0-7.6,1.7-9.4,1.9c-3.5,0.5-10.3,0.7-11.7,0.7c-1.5,0,2.5,5.2,2.5,6.7s-6.7,6.2-10.2,9.2c-4.4,3.7-22.8,26.9-17.5,29.9
					c0,0,16.7-18.8,17.4-20.8"/>
			</g>
			<g>
				<path class="st6" d="M243.2,421.2c-0.5,0.9-1.2,1.5-1.9,2.2c-0.7,0.6-1.4,1.3-2.2,1.9l-4.4,3.6c-2.9,2.4-5.9,4.8-8.6,7.4
					c-0.6,0.6-1.3,1.3-1.9,2c-0.5,0.7-1.1,1.5-1.2,2.1c-0.1,0.5,0.4,0.7,1.3,0.5c0.8-0.2,1.7-0.5,2.5-0.9c3.4-1.6,6.6-3.6,9.8-5.6
					c6.4-4,12.6-8.4,19-12.4c1.4-1.1,2.6-2.6,3.8-4c1.2-1.5,2.3-3,3.4-4.6c2.1-3.1,4.2-6.3,6.1-9.5v0.3l-6.3-10.9l-6.4-10.8l0.6,0.3
					c-3.2,0.7-6.5,1.5-9.7,2.1c-3.3,0.4-6.6,0.6-9.9,0.8h-1.3h-0.3c-0.2,0,0,0,0.2-0.1c0.2-0.2,0.2-0.3,0.2-0.3v0.1
					c0.2,0.6,0.6,1.4,1,2c0.4,0.7,0.8,1.4,1.2,2.2c0.2,0.4,0.4,0.8,0.5,1.3c0.1,0.2,0.2,0.5,0.1,1c-0.1,0.5-0.3,0.6-0.4,0.9
					c-1.2,1.5-2.4,2.5-3.7,3.6l-3.8,3.1c-1.3,1-2.6,2-3.7,3.1c-1.1,1.1-2.2,2.4-3.3,3.6c-2.1,2.5-4.1,5.1-6,7.7s-3.8,5.3-5.4,8.1
					c-0.8,1.4-1.5,2.8-2,4.3c-0.5,1.4-0.8,3.2,0.1,3.8l-0.8,0.1l9.1-10l4.5-5.1c1.5-1.7,3-3.4,4.2-5.2l0.2,0.1c-1.1,2-2.6,3.7-4,5.5
					s-2.8,3.6-4.3,5.3c-2.9,3.5-5.8,6.9-8.8,10.4l-0.4,0.5l-0.4-0.3c-0.2-0.2-0.5-0.3-0.6-0.5c-0.2-0.2-0.4-0.5-0.4-0.7
					c-0.2-0.5-0.2-1-0.2-1.5c0-0.9,0.3-1.8,0.5-2.6c0.5-1.6,1.3-3.1,2-4.6c1.6-2.9,3.4-5.7,5.3-8.4c1.9-2.7,3.9-5.3,6.1-7.9
					c1.1-1.3,2.2-2.5,3.3-3.7c1.2-1.3,2.6-2.3,3.8-3.3l3.8-3c1.2-1,2.6-2.1,3.4-3.2c0.2-0.4,0.2,0,0.1-0.5c-0.1-0.3-0.3-0.7-0.4-1
					c-0.4-0.7-0.7-1.4-1.1-2.2c-0.4-0.7-0.8-1.4-1.1-2.4c0-0.1-0.1-0.3-0.1-0.5s0-0.5,0.4-0.9c0.2-0.1,0.4-0.2,0.5-0.2h0.2h0.1h0.3
					h1.2c3.3-0.1,6.6-0.3,9.8-0.6l9.6-1.8l0.4-0.1l0.2,0.3l6.1,11l6.2,11l0.1,0.1l-0.1,0.1c-2,3.2-3.9,6.5-6.1,9.6
					c-1.1,1.6-2.1,3.1-3.3,4.7c-1.2,1.5-2.3,3-3.8,4.3c-3.2,2.2-6.2,4.4-9.3,6.6s-6.2,4.3-9.4,6.4c-3.2,2-6.5,4-10,5.6
					c-0.9,0.4-1.8,0.7-2.8,0.9c-0.5,0.1-1.1,0.2-1.8-0.1c-0.4-0.1-0.6-0.4-0.8-0.7c-0.1-0.2-0.2-0.4-0.2-0.5c0-0.2,0-0.4,0-0.5
					c0.2-1.3,0.9-2,1.5-2.8s1.3-1.4,2-2.1c2.8-2.6,5.8-4.9,8.9-7.2l4.6-3.4c0.7-0.6,1.5-1.2,2.2-1.7c0.7-0.6,1.5-1.2,2-2
					L243.2,421.2z"/>
			</g>
		</g>
		<g>
			<path class="st2" d="M283.9,421.4c0,0-19.6-25.7-22.8-53c0,0,13.3,9.1,18.2,22.3C284.1,403.8,283.9,421.4,283.9,421.4z"/>
		</g>
		<g>
			
				<linearGradient id="SVGID_3_" gradientUnits="userSpaceOnUse" x1="331.2" y1="-67.2" x2="331.2" y2="-67.2" gradientTransform="matrix(1 0 0 -1 -123.5 372)">
				<stop  offset="0" style="stop-color:#FFFFFF"/>
				<stop  offset="1" style="stop-color:#000000"/>
			</linearGradient>
			<path class="st10" d="M207.7,439.2"/>
		</g>
		<g>
			<g>
				<path class="st4" d="M242.2,422.6c0,0-5.4,4.6-13.1,11.1c-7,5.8-13.2,7.6-14.4,6.4c-1.6-1.5-0.9-1.9-0.9-1.9s2.4-1.5,5.7-5.4"/>
			</g>
			<g>
				<path class="st6" d="M242.2,422.6c-2.4,2.8-5.1,5.3-7.9,7.5c-1.5,1.1-3,2.1-4.5,3.2c-1.4,1.1-2.8,2.4-4.3,3.5
					c-1.5,1.2-3,2.2-4.7,3c-1.7,0.7-3.4,1.6-5.7,1.4c-0.3-0.1-0.6-0.2-1-0.4c-0.3-0.2-0.4-0.4-0.6-0.6c-0.2-0.2-0.4-0.4-0.5-0.7
					c-0.2-0.3-0.4-0.6-0.3-1.2c0-0.3,0.2-0.6,0.6-0.8l0.2-0.1l0.5-0.4c0.4-0.3,0.7-0.5,1.1-0.8c1.4-1.1,2.8-2.3,4.2-3.5l0.1,0.1
					c-1,1.6-2.1,3-3.4,4.4c-0.3,0.3-0.7,0.6-1,0.9l-0.5,0.5l-0.3,0.2c0.2-0.1,0.2-0.2,0.2-0.3c0-0.2,0.2,0.3,0.5,0.5
					c0.1,0.1,0.3,0.3,0.4,0.4c0,0,0.1,0,0.3,0.1c1.4,0.1,3.2-0.5,4.8-1.1c1.6-0.7,3.2-1.5,4.8-2.3c1.6-0.9,3.1-1.9,4.4-3.1
					c1.4-1.2,2.6-2.6,3.9-3.8C236.2,426.7,239.1,424.5,242.2,422.6L242.2,422.6z"/>
			</g>
		</g>
		<g>
			<g>
				<path class="st4" d="M233.6,416.5c-2,1.2-10.5,12.1-14.7,17s-7.3,6.2-9.5,4s1.2-6.8,1.2-6.8l3-3.4
					c13.4-15.6,12.7-14.4,14.1-16.9"/>
			</g>
			<g>
				<path class="st6" d="M233.7,416.6c-2.4,2.5-4.3,5.4-6.5,8c-1.1,1.4-2.2,2.7-3.3,4s-2.3,2.6-3.5,3.8s-2.4,2.5-3.7,3.7
					c-1.3,1.1-2.7,2.4-4.6,2.6c-0.9,0.2-2-0.2-2.7-0.8c-0.8-0.5-1.3-1.6-1.3-2.6s0.3-1.9,0.6-2.7c0.4-0.9,0.8-1.6,1.3-2.4l0,0l0,0
					l4.3-5.1c1.4-1.7,2.9-3.4,4.4-5s3-3.3,4.6-4.8l2.3-2.4c0.8-0.8,1.5-1.6,2.1-2.5l0.1,0.1c-0.9,2.1-2.4,3.8-3.7,5.6
					c-1.4,1.7-2.8,3.5-4.2,5.2c-2.8,3.4-5.8,6.8-8.8,10l0,0c-0.9,1.3-1.8,2.8-2,4.3c-0.1,0.7,0.2,1.4,0.7,1.9s1.3,0.8,2.1,0.8
					c1.6-0.2,3.1-1.2,4.3-2.4c1.3-1.2,2.3-2.6,3.3-3.9s2.1-2.8,3.1-4.1c1.1-1.4,2.2-2.7,3.3-4s2.3-2.6,3.5-3.8
					c1.2-1.2,2.4-2.5,3.9-3.5L233.7,416.6z"/>
			</g>
		</g>
		<g>
			<g>
				<path class="st3" d="M254.1,379.4l11.5-11.2c0,0,16.1,18.3,16.1,34.2L271,413.2L254.1,379.4z"/>
			</g>
			<g>
				<path class="st6" d="M253.9,379.4c1.6-1.9,3.3-4,5-6c1.8-2.1,3.7-4.1,5.7-6.1l1-1l1,1.1c2.2,2.5,4.2,5,5.9,7.8
					c1.7,2.8,3.2,5.7,4.5,8.7c1.2,3,2.5,6,3.5,9c1,3.1,1.8,6.2,2.1,9.6v0.3l-0.3,0.4c-1.6,1.9-3.3,3.9-5,5.8l-5.2,5.6l-1.5,1.6
					l-1.1-2c-1.5-2.8-3-5.7-4.5-8.7c-1.4-2.9-2.8-5.8-4.1-8.8c-1.3-2.9-2.6-5.8-3.7-8.7C256.1,385,254.9,382.1,253.9,379.4z
					 M254.2,379.4c1.8,2.9,3.5,5.7,5.1,8.4c1.6,2.8,3.2,5.5,4.8,8.2s3,5.4,4.4,8.1s2.7,5.5,4,8.3l-2.6-0.4l5.5-5.3
					c1.8-1.7,3.7-3.5,5.7-5.2l-0.3,0.6c0.1-3.1-0.3-6.2-1.2-9.3c-0.9-3-2.3-5.9-3.9-8.6s-3.6-5.3-5.4-7.8c-1.9-2.5-3.7-5.1-5.7-7.5
					l2,0.1c-1.9,1.7-3.8,3.4-5.8,5.1C258.6,375.9,256.5,377.6,254.2,379.4z"/>
			</g>
		</g>
		<g>
			<g>
				<path class="st1" d="M257.4,165.3c0,0,101.6,130,101.6,133.8c0,3.8-63.8,91-74.9,119.6c0,0-9.3-36.5-21.9-50.3
					c0,0,45.2-53.8,48.9-69.3c0,0-50-41.4-52.8-34.8L257.4,165.3z"/>
			</g>
			<g>
				<g>
					<path class="st2" d="M257.4,165.1c0.1,0,0.3,0.2,0.4,0.3l0.2,0.2l0.4,0.5l0.8,0.9l1.5,1.9l3.1,3.7l6.1,7.5
						c4.1,5,8.1,10,12.1,15.1c8,10.1,16.1,20.2,24,30.3l23.7,30.6c7.8,10.3,15.6,20.6,23.1,31.1c1.9,2.6,3.7,5.3,5.5,8
						c0.5,0.7,0.9,1.4,1.3,2.1l0.3,0.6c0.1,0.2,0.2,0.4,0.3,0.9c0.1,0.8-0.1,0.9-0.2,1.2c-0.1,0.2-0.2,0.4-0.3,0.6
						c-0.8,1.5-1.7,2.8-2.6,4.2c-3.6,5.4-7.2,10.7-10.9,16c-7.4,10.6-14.7,21.2-21.9,31.9c-7.2,10.7-14.2,21.5-21,32.4
						c-3.4,5.5-6.7,11-9.9,16.6c-3.1,5.6-6.2,11.3-8.5,17.2l-0.9,2.2l-0.6-2.3c-1.2-4.4-2.6-8.8-4-13.2c-1.5-4.4-3-8.7-4.8-12.9
						c-1.7-4.2-3.7-8.4-5.8-12.4c-2.2-4-4.6-7.9-7.6-11.1l0,0l-0.8-1l0.8-1c4.5-5.5,8.9-11,13.3-16.6s8.7-11.2,12.9-16.8
						c4.2-5.7,8.4-11.4,12.3-17.3c1.9-2.9,3.8-5.9,5.6-8.9c1.7-3,3.4-6.1,4.3-9.2l0.6,1.8c-8.2-6.8-16.7-13.5-25.2-19.9
						c-4.3-3.2-8.6-6.3-13.1-9.3c-2.2-1.5-4.5-2.9-6.8-4.1c-1.1-0.6-2.3-1.2-3.5-1.6c-0.5-0.2-1.1-0.4-1.6-0.4c-0.2,0-0.4,0-0.4,0
						s0.2-0.1,0.2-0.2l-2.8-0.6c0-16.7,0-33.5,0.3-50.1l0.2-24.7L257.4,165.1z M257.5,165.4l0.5,25.1l0.6,24.8
						c0.5,16.4,0.8,32.7,1.1,49l-2.8-0.6c0.3-0.7,1-1.3,1.6-1.5s1.1-0.2,1.6-0.1c0.9,0.1,1.6,0.3,2.3,0.5c1.4,0.5,2.6,1.1,3.9,1.7
						c2.5,1.3,4.8,2.7,7.1,4.2c4.6,2.9,9,6,13.3,9.3c8.7,6.4,17.2,13.1,25.5,19.9l0.9,0.7l-0.3,1.1c-1.1,3.8-2.8,7-4.6,10.1
						c-1.8,3.1-3.7,6.1-5.7,9.1c-4,5.9-8.2,11.7-12.5,17.4c-4.3,5.7-8.7,11.3-13.2,16.8s-9,11-13.6,16.4v-2l0,0
						c3.2,3.7,5.5,7.8,7.6,11.9c2.1,4.2,3.9,8.5,5.5,12.8c3.3,8.7,6.1,17.5,8.4,26.5l-1.5-0.1c2.5-6,5.7-11.7,8.9-17.3
						c3.2-5.6,6.6-11.1,10-16.6c6.9-10.9,14.1-21.6,21.1-32.4c7.1-10.8,14.4-21.4,21.4-32.2c3.5-5.4,7.1-10.8,10.5-16.2
						c0.8-1.4,1.7-2.7,2.4-4.1c0.1-0.2,0.2-0.3,0.2-0.5c0.1-0.1,0.1-0.4,0.1,0c0,0.1-0.1-0.1-0.1-0.2l-0.3-0.5
						c-0.4-0.6-0.8-1.3-1.3-2c-1.8-2.6-3.7-5.2-5.7-7.8c-7.7-10.3-15.5-20.6-23.3-30.8L303.7,227c-7.9-10.2-15.5-20.6-23.4-30.8
						l-11.6-15.4l-5.8-7.8l-2.9-4l-1.5-1.9l-0.7-1l-0.4-0.5l-0.2-0.3C257.4,165.6,257.5,165.6,257.5,165.4z"/>
				</g>
			</g>
		</g>
		<g>
			<g>
				<path class="st2" d="M201.6,183.6c0,0,50.6,39.7,60.6,84.3c0,0-8.8-25.8-21.7-2.3C240.5,265.7,207.6,189.5,201.6,183.6z"/>
			</g>
			<g>
				<path class="st11" d="M201.4,183.5c0.1,0,0.3,0.1,0.5,0.1c0.2,0.1,0.4,0.2,0.5,0.3l0.7,0.5c0.5,0.3,0.9,0.6,1.4,0.9l2.7,1.9
					c1.7,1.4,3.5,2.7,5.2,4.1c3.4,2.8,6.7,5.8,10,8.8c1.6,1.5,3.2,3.1,4.7,4.7c1.6,1.6,3.1,3.2,4.5,4.9c1.5,1.7,3,3.3,4.4,5l4.1,5.2
					c5.3,7.2,9.7,15,13.6,22.9c3.8,8,7.1,16.2,9.5,24.8l-1.9,0.5c-1-2.4-2.3-4.8-3.8-6.8s-3.6-3.7-5.5-3.9c-1-0.1-1.9,0.2-2.8,0.6
					c-0.9,0.5-1.8,1.4-2.6,2.2c-1.6,1.8-2.9,4-4.1,6.3l-2.1,4l-1.9-4.2l-9.5-20.6l-4.6-10.4l-4.5-10.4L211,204l-4.5-10.4
					c-0.7-1.7-1.5-3.5-2.3-5.2c-0.4-0.8-0.8-1.7-1.3-2.5c-0.2-0.4-0.5-0.8-0.7-1.2c-0.1-0.2-0.2-0.4-0.4-0.7
					C201.5,183.9,201.5,183.7,201.4,183.5z M201.7,183.8c0.2,0.2,0.4,0.2,0.6,0.3c0.1,0,0.3,0.3,0.4,0.5c0.3,0.4,0.6,0.7,0.9,1.1
					c0.6,0.8,1.1,1.6,1.6,2.4c1.1,1.6,2.1,3.2,3.1,4.8c1.9,3.3,3.8,6.6,5.6,10c3.6,6.7,7,13.5,10.3,20.3l4.8,10.3
					c1.6,3.5,3.1,6.9,4.6,10.4c3,7,5.9,14,8.8,21l-4-0.2c1.4-2.4,3-4.8,5.1-7c1.1-1,2.3-2,3.8-2.7s3.4-1.1,5.1-0.6
					c1.7,0.4,3.1,1.3,4.3,2.4c1.1,1,2,2.2,2.8,3.4c1.5,2.5,2.6,5,3.5,7.7l-1.9,0.5c-1.8-8.5-5-16.7-9.3-24.3
					c-4.5-7.5-9.9-14.4-15.3-21.2c-5.4-6.8-11.1-13.5-17-19.9c-1.5-1.6-2.9-3.3-4.5-4.8c-1.5-1.6-3-3.2-4.5-4.8s-3-3.2-4.6-4.7
					l-2.3-2.3l-1.2-1.2l-0.6-0.6c-0.1-0.1-0.1-0.1-0.1-0.2C201.9,184.1,201.8,183.9,201.7,183.8z"/>
			</g>
		</g>
		<g>
			<g>
				<path class="st2" d="M134.5,190.6c0,0-31.5,6.1-61.8,71.9c0,0,17.2-36,30.2-10.3C103,252.1,122.8,202.9,134.5,190.6z"/>
			</g>
			<g>
				<path class="st11" d="M134.3,190.7c-0.1,0.1,0,0.3-0.1,0.3l-0.4,0.1l-0.7,0.3l-1.4,0.6c-0.9,0.5-1.8,0.9-2.6,1.4l-2.6,1.6
					l-2.5,1.7c-3.2,2.4-6.3,4.8-9.2,7.6c-2.9,2.6-5.6,5.6-8.3,8.5l-3.9,4.5c-1.3,1.5-2.5,3.1-3.7,4.7c-2.6,3-4.9,6.3-7.4,9.5
					c-2.4,3.2-4.7,6.6-6.9,9.9c-2.1,3.5-4.1,6.9-6,10.5c-1.7,3.7-3.5,7.3-5.1,11l-1.8-0.8c1.6-3.4,3.3-6.7,5.3-9.8s4.4-6.2,7.6-8.6
					c1.6-1.2,3.5-2.3,5.7-2.7c2.2-0.5,4.8-0.1,6.7,1c2,1.1,3.6,2.6,4.8,4.1c0.7,0.8,1.2,1.6,1.8,2.4c0.5,0.8,1,1.7,1.5,2.6l-4.6,0.2
					c2.1-5.5,4.3-10.8,6.7-16.1c2.4-5.3,4.9-10.5,7.6-15.7s5.5-10.2,8.6-15.2c1.6-2.5,3.2-4.9,4.9-7.2c0.8-1.2,1.8-2.3,2.7-3.4
					c0.5-0.6,0.9-1,1.4-1.4C133.2,191.7,133.7,191.2,134.3,190.7z M134.8,190.4c-0.4,0.5-0.7,1.2-1.2,1.9c-0.4,0.7-1,1.4-1.3,2
					c-0.7,1.3-1.5,2.4-2.2,3.7l-2,3.8l-1.9,3.9c-2.5,5.2-4.8,10.4-7.2,15.7L105.3,253l-2.2,5.1l-2.4-4.9c-1.5-3-3.4-5.9-5.8-7.3
					c-1.2-0.7-2.4-0.9-3.8-0.8c-1.4,0.2-2.8,0.8-4.1,1.7c-2.7,1.8-5.2,4.3-7.4,7.1c-2.2,2.7-4.3,5.8-5.9,8.9l-1.8-0.8
					c1.9-3.6,3.7-7.2,5.6-10.9c0.9-1.8,1.9-3.6,2.8-5.4l2.8-5.4L86,235c1-1.8,1.9-3.6,2.9-5.4c2.2-3.5,4.2-7,6.7-10.3
					c4.8-6.6,10.6-12.6,17-17.9c1.6-1.4,3.3-2.5,5-3.7c0.8-0.6,1.7-1.1,2.6-1.7c0.9-0.5,1.7-1.1,2.7-1.6l2.8-1.4l2.8-1.2
					c1-0.4,2-0.7,2.9-1l1.5-0.4l0.8-0.1l0.4-0.1C134.3,190.3,134.6,190.4,134.8,190.4z"/>
			</g>
		</g>
		<g>
			<g>
				<path class="st2" d="M103.3,250.3c0,0-6,7.2-11.7,10.3l12.4,26.1C104,286.7,97.8,262.1,103.3,250.3z"/>
			</g>
			<g>
				<path class="st11" d="M103.2,250.5c0,0.1,0.3,0.1,0.3,0.1l-0.1,0.1l-0.1,0.2l-0.2,0.5l-0.5,0.9c-0.3,0.6-0.7,1.1-1.1,1.7
					c-0.8,1.1-1.6,2.2-2.5,3.2c-1.8,2-3.8,3.9-6.4,5.4l1-2.9c1.1,2.1,2,4.4,2.7,6.7c0.7,2.3,1.4,4.7,2.3,6.9c0.9,2.2,2,4.4,3.2,6.5
					s2.6,4.1,3.9,6.1l-3.5,1.3c-1.1-3-1.8-6-2.4-9.1s-1.1-6.2-1.1-9.4c-0.1-3.2,0.1-6.4,0.8-9.6c0.2-0.8,0.3-1.6,0.6-2.4
					c0.3-0.8,0.4-1.6,0.8-2.3c0.3-0.7,0.6-1.6,1-2.1C102.1,251.9,102.8,251.4,103.2,250.5z M103.5,250.1c-0.1,0.5,0,1.5-0.2,2.5
					c-0.1,0.9-0.1,1.6-0.2,2.3s0,1.5,0,2.2c0,0.7,0,1.5,0,2.2c0.1,3,0.4,5.9,0.7,8.9l0.9,9c0.3,3,0.7,6,1.1,9l2.1,18l-5.5-16.7
					c-0.8-2.3-1.5-4.7-2.3-6.9c-0.8-2.3-1.8-4.5-3-6.6s-2.6-4.1-3.9-6.1c-1.4-2-2.6-4.1-3.5-6.3l-0.8-2l1.8-0.9
					c2.1-1.1,4.1-2.5,6.2-3.9l3.1-2.3l1.6-1.1l0.8-0.6l0.4-0.3l0.2-0.1l0.1-0.1C103.1,250.1,103.4,250,103.5,250.1z"/>
			</g>
		</g>
		<g>
			<g>
				<path class="st2" d="M240.5,264c0,0,9.8,8.9,14.9,8.5c0,0-13.7,20.9-23.5,26.6c0,0,13.2-17.1,13.1-20.1
					C244.7,274,240.5,264,240.5,264z"/>
			</g>
			<g>
				<path class="st11" d="M240.3,263.8c0.1,0,0.3,0,0.4,0.1c0.1,0.1,0.1,0.1,0.1,0.1l0.3,0.1l0.5,0.3l1,0.5l1.9,1.1l3.8,2
					c1.3,0.6,2.5,1.2,3.7,1.7s2.5,0.8,3.2,0.7l4.4-0.5l-2.4,3.9c-1.6,2.6-3.5,4.9-5.6,7.1s-4.3,4.3-6.3,6.5c-2,2.3-3.9,4.6-5.8,6.9
					c-1.9,2.3-3.9,4.8-6.7,6.6l-8.6,5.9l6-9l10.9-16.3c0.4-0.6,0.8-1.3,1.2-1.9l0.2-0.4l0.1-0.2c0-0.1,0,0,0,0l0,0c0,0,0.1,0,0-0.1
					v-0.4c0-1.4-0.3-3-0.5-4.6c-0.3-1.6-0.6-3.2-0.9-4.8l-0.5-2.5l-0.2-1.2l-0.1-0.6l-0.1-0.3v-0.2
					C240.3,264.2,240.2,263.9,240.3,263.8z M240.6,264.2c0.2,0,0.2-0.3,0.2-0.2l0.1,0.1l0.2,0.3l0.4,0.5l0.7,1.1
					c0.4,0.7,0.8,1.5,1.3,2.2c0.8,1.5,1.5,3,2.2,4.6c0.6,1.6,1.2,3.2,1.6,5.1l0.1,0.7c0,0.1,0,0.3,0,0.5s0,0.4-0.1,0.6
					c0,0.2-0.1,0.5-0.1,0.6l-0.1,0.4l-0.3,0.8c-0.4,0.9-0.7,1.7-1.2,2.5c-1.6,3.1-3.6,5.8-5.6,8.5c-2,2.6-4.1,5.2-6.4,7.8l-2.6-3.1
					c2.4-1.1,4.9-2.8,7.1-4.6c2.3-1.8,4.4-4,6.2-6.3c1.8-2.4,3.3-4.9,4.7-7.6c1.4-2.6,3-5.1,4.7-7.5l2,3.4c-2.2,0.1-3.8-0.7-5.2-1.4
					c-1.4-0.8-2.7-1.6-3.9-2.6c-1.2-0.9-2.3-2-3.3-3.1c-0.5-0.5-1-1.1-1.5-1.7l-0.7-0.9l-0.3-0.5L240.6,264.2l-0.1-0.1
					C240.4,264.4,240.6,264.2,240.6,264.2z"/>
			</g>
		</g>
		<g id="head_3_">
			<g>
				<g>
					<path class="st1" d="M127.4,127.6c0,0-11.6,3.6-16.2-1.6c-4.6-5.2-4.3-12.1-4.3-12.1s-7.8,1.9-12.5-4.5s-2.2-14.9-2.2-14.9
						s-5.8-4-6.2-12.4c-0.4-8.4,5.1-12.5,5.1-12.5s-2.8-7.2-0.7-16.1c2.2-8.9,11.5-10.5,11.5-10.5s2-12,10-18.9s16.9-3.8,16.9-3.8
						s0.6-8.4,8-12.5s17.4,3,17.4,3s2.5-9,9.1-9.2c6.6-0.3,9,6.2,9,6.2s8.9-9.4,20.6-5.1c10.1,3.8,13,15.3,13,15.3
						s10.7-7.8,19.4-2.7s9.5,15.4,9.5,15.4s10.6,2.8,14.5,13.2c4.2,11.2,0,24.2,0,24.2s5.8,3.2,6.5,13.2s-6.7,14.1-6.7,14.1
						s2.2,7.2-0.4,13.9c-2.6,6.7-10.5,5-10.5,5s-1.8,10.6-7.3,13.2c-5.6,2.6-10.8,0.5-10.8,0.5s0.8,7.4-3.9,8.3
						c-4.7,1-80.3,0.9-80.7-6.7C135.2,122.1,133,126.6,127.4,127.6z"/>
					<path class="st2" d="M127.4,127.8c-1.2,0.4-2.5,0.6-3.7,0.8c-1.3,0.2-2.5,0.4-3.8,0.4s-2.6,0-3.8-0.2c-0.6-0.1-1.3-0.3-1.8-0.5
						c-0.6-0.2-1.2-0.5-1.7-0.8c-0.5-0.4-1.1-0.7-1.5-1.2c-0.2-0.2-0.4-0.5-0.6-0.7c-0.1-0.1-0.2-0.3-0.3-0.4l-0.3-0.4
						c-0.4-0.5-0.7-1.1-1-1.6c-0.3-0.6-0.6-1.1-0.8-1.7c-0.5-1.2-0.8-2.4-1.1-3.7c-0.3-1.3-0.4-2.5-0.4-3.8l0.5,0.4
						c-1.3,0.3-2.5,0.4-3.8,0.3s-2.5-0.3-3.7-0.7c-2.4-0.8-4.6-2.6-6-4.7c-0.7-1.1-1.3-2.2-1.7-3.4l-0.3-0.9
						c-0.1-0.3-0.2-0.6-0.2-0.9c-0.1-0.3-0.1-0.6-0.2-0.9c0-0.3-0.1-0.6-0.1-0.9c-0.1-1.3-0.2-2.6-0.1-3.8c0-0.6,0.1-1.3,0.2-1.9
						s0.2-1.3,0.4-1.9l0.4,1l-0.2-0.2c-0.1-0.1-0.1-0.1-0.2-0.2s-0.3-0.2-0.4-0.3c-0.3-0.2-0.5-0.4-0.7-0.6
						c-0.5-0.5-0.9-0.9-1.3-1.4c-0.8-1-1.5-2-2.1-3.1s-1-2.3-1.4-3.5s-0.5-2.5-0.6-3.7c-0.2-2.5,0.2-5.1,1.1-7.5
						c0.5-1.2,1.1-2.3,1.8-3.4c0.4-0.5,0.8-1,1.2-1.5c0.2-0.2,0.4-0.5,0.7-0.7c0.1-0.1,0.2-0.2,0.4-0.4c0.1-0.1,0.1-0.1,0.2-0.2
						s0.1-0.1,0.2-0.2l-0.5,1.6c-0.1-0.2-0.1-0.4-0.2-0.5c-0.1-0.2-0.1-0.4-0.2-0.5c-0.1-0.4-0.2-0.7-0.3-1
						c-0.2-0.7-0.3-1.4-0.5-2.1c-0.3-1.4-0.4-2.8-0.5-4.3c-0.1-2.8,0.1-5.7,0.8-8.5c0.4-1.5,0.9-2.9,1.7-4.2
						c0.8-1.3,1.8-2.5,2.9-3.4c1.1-1,2.4-1.8,3.7-2.4c0.7-0.3,1.4-0.6,2.1-0.8c0.4-0.1,0.7-0.2,1.1-0.3c0.2-0.1,0.4-0.1,0.5-0.1
						c0.2,0,0.4-0.1,0.6-0.1l-1.2,1.2c0.1-0.5,0.2-0.9,0.3-1.3c0.1-0.4,0.2-0.8,0.3-1.3c0.1-0.4,0.2-0.8,0.4-1.2
						c0.1-0.4,0.3-0.8,0.4-1.2c0.5-1.6,1.2-3.2,1.9-4.8c1.5-3.1,3.4-6,5.8-8.5c2.5-2.5,5.6-4.4,9-5.3c1.7-0.5,3.5-0.6,5.2-0.6h0.6
						l0.6,0.1c0.4,0,0.9,0.1,1.3,0.2s0.9,0.1,1.3,0.3c0.2,0,0.4,0.1,0.6,0.2c0.1,0,0.2,0.1,0.3,0.1s0.2,0.1,0.4,0.1l-1.3,0.9
						c0-0.2,0-0.4,0.1-0.6c0-0.2,0.1-0.4,0.1-0.5c0.1-0.4,0.2-0.7,0.3-1.1c0.2-0.7,0.4-1.4,0.7-2.1c0.5-1.4,1.3-2.7,2.1-3.9
						c0.9-1.2,1.9-2.3,3.1-3.3l0.9-0.7c0.3-0.2,0.6-0.4,0.9-0.6l0.5-0.3c0.2-0.1,0.4-0.2,0.5-0.3c0.3-0.2,0.7-0.3,1.1-0.5
						c1.5-0.5,3-0.7,4.5-0.6c0.7,0,1.5,0.1,2.2,0.3c0.7,0.1,1.5,0.3,2.1,0.5c1.4,0.4,2.7,1,4,1.6c1.3,0.6,2.6,1.4,3.7,2.2l-0.9,0.3
						c0.3-1.1,0.7-2.1,1.3-3c0.5-1,1.1-1.9,1.7-2.8c0.7-0.9,1.5-1.7,2.4-2.3c0.5-0.3,0.9-0.6,1.5-0.8c0.5-0.2,1.1-0.4,1.6-0.5
						s1.1-0.1,1.7-0.1c0.3,0,0.5,0,0.8,0l0.8,0.1c1.1,0.2,2.2,0.6,3.1,1.3c0.9,0.6,1.8,1.4,2.5,2.2c0.2,0.2,0.3,0.5,0.5,0.6
						c0.2,0.2,0.3,0.5,0.5,0.7c0.3,0.5,0.5,0.9,0.8,1.5l-0.7-0.9c0.7-0.7,1.4-1.3,2.1-1.8c0.7-0.5,1.5-1.1,2.3-1.6
						c1.6-0.9,3.3-1.7,5-2.3c1.8-0.5,3.6-0.8,5.5-0.8c1.8,0,3.7,0.3,5.5,0.9c0.9,0.3,1.7,0.6,2.6,1c0.8,0.4,1.6,0.9,2.4,1.4
						c1.6,1,2.9,2.3,4.1,3.7c1.2,1.4,2.2,2.9,3.1,4.6c0.5,0.8,0.8,1.6,1.2,2.5s0.7,1.7,0.9,2.6l-1.3-0.5c0.7-0.5,1.4-0.9,2.2-1.4
						c0.7-0.4,1.5-0.8,2.3-1.2c1.5-0.7,3.1-1.3,4.8-1.7c0.8-0.2,1.7-0.4,2.6-0.4c0.9-0.1,1.7-0.1,2.6-0.1c1.7,0.1,3.5,0.5,5.1,1.3
						c0.8,0.4,1.6,0.8,2.3,1.3c0.4,0.2,0.7,0.5,1.1,0.8c0.3,0.3,0.7,0.5,1,0.8c0.6,0.6,1.3,1.2,1.8,1.9c0.5,0.7,1.1,1.4,1.6,2.1
						c0.9,1.5,1.7,3,2.3,4.7c0.3,0.8,0.5,1.6,0.7,2.5c0.1,0.4,0.2,0.8,0.3,1.3c0,0.2,0.1,0.4,0.1,0.6s0.1,0.4,0.1,0.7l-1-1.2
						c0.3,0.1,0.5,0.2,0.8,0.2c0.2,0.1,0.5,0.2,0.7,0.3c0.5,0.2,0.9,0.4,1.4,0.5c0.9,0.4,1.8,0.8,2.6,1.4c1.7,1,3.3,2.2,4.7,3.6
						c0.7,0.7,1.4,1.4,2,2.2s1.2,1.6,1.7,2.5c0.3,0.4,0.5,0.9,0.7,1.3l0.3,0.7c0.1,0.2,0.2,0.5,0.3,0.7l0.3,0.7l0.2,0.7l0.5,1.4
						c0.5,1.9,0.9,3.8,1.1,5.8c0.2,1.9,0.3,3.9,0.2,5.8l-0.1,1.5l-0.1,1.5c0,0.5-0.1,1-0.2,1.4c-0.1,0.5-0.1,1-0.2,1.4
						c-0.1,0.5-0.2,0.9-0.2,1.4c-0.1,0.5-0.2,0.9-0.3,1.4s-0.2,0.9-0.3,1.4s-0.2,0.9-0.4,1.5l-0.7-1.9c0.2,0.1,0.2,0.1,0.3,0.2
						s0.2,0.1,0.3,0.2c0.2,0.1,0.3,0.2,0.5,0.4c0.2,0.1,0.3,0.3,0.5,0.4s0.3,0.3,0.4,0.4c0.5,0.5,1,1.1,1.5,1.6
						c0.9,1.2,1.6,2.4,2.2,3.7c0.6,1.3,1,2.7,1.3,4.1s0.5,2.8,0.5,4.2v1.1c0,0.2,0,0.4,0,0.5v0.5c0,0.4,0,0.7-0.1,1.1l-0.2,1.1
						l-0.1,0.5l-0.1,0.5c-0.1,0.4-0.2,0.7-0.3,1.1c-0.3,0.7-0.5,1.4-0.8,2c-0.6,1.3-1.5,2.6-2.4,3.7c-0.3,0.3-0.5,0.5-0.7,0.8
						c-0.3,0.3-0.5,0.5-0.8,0.7s-0.5,0.5-0.9,0.7c-0.2,0.1-0.3,0.2-0.5,0.3c-0.1,0.1-0.2,0.1-0.3,0.2s-0.2,0.1-0.3,0.2l0.8-2
						c0.1,0.4,0.2,0.6,0.2,0.9s0.1,0.6,0.2,0.9c0.1,0.6,0.2,1.2,0.3,1.7c0.2,1.2,0.2,2.4,0.3,3.6c0,1.2-0.1,2.4-0.3,3.6
						s-0.5,2.4-0.8,3.6c-0.1,0.3-0.2,0.6-0.3,0.9s-0.3,0.6-0.4,0.9c-0.3,0.6-0.7,1.2-1.1,1.7c-0.9,1.1-2,1.9-3.2,2.5
						c-1.2,0.5-2.5,0.9-3.8,1c-0.6,0.1-1.3,0.1-1.9,0.1c-0.3,0-0.6,0-0.9-0.1c-0.2,0-0.3,0-0.5-0.1c-0.2,0-0.3,0-0.5-0.1l2-1.4
						c-0.1,0.3-0.1,0.6-0.2,0.9s-0.1,0.6-0.2,0.8c-0.1,0.6-0.3,1.1-0.5,1.7c-0.3,1.1-0.7,2.2-1.2,3.3c-0.5,1.1-1,2.2-1.6,3.2
						s-1.4,2-2.4,2.9c-0.5,0.5-1,0.8-1.6,1.2c-0.2,0.1-0.3,0.2-0.5,0.3l-0.2,0.1L232,129l-0.9,0.4c-1.2,0.4-2.4,0.7-3.6,0.9
						c-1.2,0.1-2.5,0.1-3.7,0c-0.6-0.1-1.2-0.2-1.8-0.3c-0.3-0.1-0.6-0.2-0.9-0.3c-0.2,0-0.3-0.1-0.5-0.2l-0.2-0.1l-0.3-0.1l2.2-1.6
						c0,0.2,0,0.3,0,0.5v0.5c0,0.3,0,0.6,0,0.9c0,0.6-0.1,1.2-0.2,1.8c-0.2,1.2-0.5,2.5-1.3,3.6c-0.4,0.6-0.8,1.2-1.4,1.6
						c-0.6,0.5-1.3,0.8-2,1c-0.2,0-0.3,0.1-0.5,0.1s-0.4,0.1-0.5,0.1c-0.3,0-0.6,0.1-0.9,0.1c-0.5,0-1.1,0.1-1.7,0.1
						c-4.4,0.1-8.7,0.1-13.1,0c-8.7-0.2-17.4-0.5-26.1-1.1c-4.3-0.3-8.7-0.6-13-1s-8.7-0.9-13-1.5c-2.2-0.3-4.3-0.7-6.4-1.2
						c-1.1-0.3-2.1-0.5-3.1-0.9c-0.5-0.2-1-0.4-1.5-0.6s-1-0.5-1.4-1c-0.2-0.2-0.4-0.5-0.5-0.8c0-0.1,0-0.2,0-0.2v-0.2v-0.4
						c0-0.5-0.1-1.1-0.2-1.6c-0.1-0.5-0.2-1.1-0.5-1.5c-0.1-0.2-0.3-0.4-0.5-0.5s-0.5-0.1-0.7,0c-0.5,0.1-1,0.4-1.5,0.6
						s-1,0.5-1.5,0.7C129.5,127.2,128.4,127.6,127.4,127.8z M127.3,127.5c1.1-0.2,2.1-0.5,3.1-1c0.5-0.2,1-0.5,1.5-0.7
						s1-0.5,1.6-0.6c0.3-0.1,0.6-0.1,0.9,0c0.3,0.1,0.5,0.3,0.7,0.6s0.3,0.5,0.3,0.8c0.1,0.3,0.1,0.5,0.2,0.8
						c0.1,0.5,0.1,1.1,0.2,1.6v0.4v0.2c0,0.1,0,0.1,0,0.2c0.1,0.2,0.2,0.4,0.4,0.6c0.3,0.4,0.8,0.6,1.3,0.9c0.5,0.2,1,0.4,1.5,0.6
						c1,0.4,2.1,0.6,3.1,0.8c2.1,0.5,4.2,0.8,6.4,1.1c2.1,0.3,4.3,0.5,6.5,0.7s4.3,0.3,6.5,0.5c4.3,0.3,8.7,0.4,13,0.5
						c8.7,0.2,17.4,0.2,26,0c4.3-0.1,8.7-0.2,13-0.4c0.5,0,1.1-0.1,1.6-0.1c0.3,0,0.5,0,0.7-0.1c0.3,0,0.4-0.1,0.5-0.1
						c0.7-0.2,1.2-0.6,1.6-1.3c0.8-1.4,1-3.5,0.8-5.4l-0.2-2.5l2.4,0.9h0.1l0.2,0.1c0.1,0,0.2,0.1,0.4,0.1c0.2,0.1,0.5,0.1,0.7,0.2
						c0.5,0.1,1,0.2,1.5,0.2c1,0.1,2,0.1,3,0s1.9-0.4,2.8-0.7l0.7-0.3l0.2-0.1l0.1-0.1c0.1-0.1,0.2-0.1,0.3-0.2
						c0.4-0.2,0.7-0.5,1-0.8c1.3-1.3,2.4-3.1,3.2-5c0.4-1,0.7-2,1-3c0.2-0.5,0.3-1,0.4-1.6l0.2-0.8c0.1-0.3,0.1-0.5,0.1-0.7l0.3-1.7
						l1.7,0.3c0.1,0,0.2,0,0.3,0s0.2,0,0.4,0s0.5,0,0.7,0c0.5,0,1,0,1.5-0.1c1-0.1,1.9-0.3,2.7-0.7s1.5-0.9,2-1.6
						c0.3-0.3,0.5-0.7,0.7-1.1c0.1-0.2,0.2-0.4,0.3-0.6s0.2-0.5,0.3-0.7c0.4-0.9,0.5-1.9,0.7-2.9c0.1-1,0.2-2,0.2-3.1
						s-0.1-2.1-0.2-3.1c-0.1-0.5-0.2-1-0.3-1.6c-0.1-0.3-0.1-0.5-0.2-0.7c-0.1-0.2-0.1-0.5-0.2-0.7l-0.4-1.3l1.2-0.7l0.1-0.1
						c0.1,0,0.1-0.1,0.2-0.1c0.1-0.1,0.2-0.2,0.3-0.3c0.2-0.2,0.5-0.4,0.7-0.5c0.2-0.2,0.4-0.4,0.6-0.6l0.6-0.6
						c0.8-0.9,1.4-1.8,1.9-2.9c0.3-0.5,0.5-1.1,0.7-1.6l0.2-0.8l0.1-0.4l0.1-0.4l0.1-0.7c0-0.3,0-0.6,0.1-0.9v-0.5
						c0-0.2,0-0.3,0-0.5v-0.9c0-0.6-0.1-1.2-0.1-1.8c0-0.3-0.1-0.6-0.1-0.9l-0.2-0.9c-0.3-1.2-0.6-2.4-1.1-3.5s-1.1-2.1-1.8-3.1
						c-0.4-0.5-0.7-0.9-1.2-1.3c-0.1-0.1-0.2-0.2-0.3-0.3c-0.1-0.1-0.2-0.2-0.3-0.3c-0.1-0.1-0.2-0.2-0.3-0.3
						c-0.1,0-0.1-0.1-0.2-0.1l-0.1-0.1l-1.1-0.7l0.4-1.2c0.1-0.4,0.3-0.8,0.4-1.3c0.1-0.4,0.2-0.9,0.3-1.3c0.1-0.5,0.2-0.9,0.3-1.3
						c0.1-0.5,0.2-0.9,0.2-1.3c0.1-0.5,0.2-0.9,0.2-1.4c0.1-0.5,0.1-0.9,0.2-1.4l0.1-1.4l0.1-1.4c0.1-1.8,0.1-3.6-0.1-5.4
						c-0.1-1.8-0.5-3.5-0.9-5.3l-0.4-1.3l-0.2-0.6l-0.2-0.6c-0.2-0.4-0.4-0.8-0.5-1.2c-0.2-0.4-0.4-0.8-0.6-1.2
						c-0.4-0.7-0.9-1.5-1.5-2.2c-0.5-0.7-1.1-1.4-1.7-2c-1.2-1.2-2.6-2.3-4.1-3.2c-0.7-0.5-1.6-0.9-2.3-1.3
						c-0.4-0.2-0.8-0.4-1.2-0.5c-0.2-0.1-0.4-0.2-0.6-0.2c-0.2-0.1-0.4-0.1-0.6-0.2l-0.9-0.3l-0.1-0.9c0-0.1,0-0.4-0.1-0.5
						c0-0.2-0.1-0.4-0.1-0.5c-0.1-0.4-0.1-0.7-0.2-1.1c-0.2-0.7-0.4-1.5-0.6-2.2c-0.5-1.5-1.1-2.9-1.9-4.2c-0.4-0.6-0.8-1.3-1.3-1.9
						s-1-1.2-1.6-1.7c-0.3-0.3-0.6-0.5-0.8-0.8c-0.3-0.2-0.6-0.5-0.9-0.7c-0.6-0.5-1.3-0.8-1.9-1.2c-1.4-0.6-2.8-1.1-4.3-1.2
						c-0.7-0.1-1.5-0.1-2.3,0s-1.6,0.2-2.3,0.3c-1.5,0.3-3,0.8-4.5,1.5c-0.7,0.3-1.5,0.7-2.1,1c-0.7,0.4-1.4,0.8-2,1.2l-1,0.7
						l-0.3-1.1c-0.2-0.8-0.5-1.6-0.8-2.5c-0.3-0.8-0.7-1.6-1.1-2.4c-0.8-1.6-1.7-3-2.8-4.4c-2.2-2.7-5.1-4.8-8.4-5.9
						c-1.6-0.5-3.4-0.8-5.1-0.9c-1.7,0-3.5,0.2-5.2,0.7s-3.3,1.2-4.8,2.1c-0.7,0.5-1.5,0.9-2.2,1.5c-0.7,0.5-1.4,1.1-2,1.7l-0.9,1
						l-0.3-0.7c-0.4-0.9-0.9-1.8-1.6-2.6s-1.4-1.5-2.2-2s-1.8-0.9-2.8-1.1l-0.7,0.1c-0.3,0-0.5,0-0.7,0c-0.5,0-1,0-1.5,0.1
						s-1,0.2-1.4,0.5c-0.5,0.2-0.9,0.5-1.3,0.7c-0.8,0.6-1.5,1.3-2.2,2.1c-0.6,0.8-1.2,1.7-1.6,2.6c-0.5,0.9-0.8,1.9-1.1,2.8
						l-0.2,0.7l-0.6-0.5c-1.1-0.7-2.4-1.5-3.6-2s-2.6-1.1-3.9-1.5c-0.6-0.2-1.3-0.3-2-0.4s-1.4-0.2-2-0.2c-1.4,0-2.7,0.2-3.9,0.6
						c-0.3,0.1-0.6,0.2-0.9,0.4c-0.1,0.1-0.3,0.2-0.4,0.2l-0.4,0.3c-0.3,0.2-0.6,0.4-0.8,0.5l-0.8,0.6c-1,0.9-1.9,1.9-2.6,3
						c-0.7,1.1-1.3,2.3-1.8,3.6c-0.2,0.6-0.4,1.3-0.6,1.9c-0.1,0.3-0.1,0.6-0.2,1c0,0.2-0.1,0.3-0.1,0.5s0,0.3-0.1,0.5l-0.1,1.2
						l-1.2-0.4l-0.3-0.1c-0.1,0-0.2,0-0.3-0.1c-0.2,0-0.4-0.1-0.5-0.1c-0.4-0.1-0.8-0.1-1.2-0.2c-0.4,0-0.8-0.1-1.2-0.1h-0.6h-0.6
						c-1.6,0-3.1,0.3-4.6,0.7c-1.5,0.4-2.9,1.1-4.2,1.9l-1,0.6l-0.9,0.7l-0.5,0.4c-0.1,0.1-0.3,0.3-0.4,0.4l-0.8,0.8
						c-1.1,1.2-2.1,2.4-2.9,3.7c-0.5,0.6-0.8,1.4-1.2,2c-0.2,0.4-0.4,0.7-0.5,1.1c-0.2,0.4-0.4,0.7-0.5,1.1
						c-0.7,1.5-1.2,2.9-1.7,4.5c-0.1,0.4-0.3,0.8-0.4,1.2s-0.2,0.8-0.3,1.2c-0.1,0.4-0.2,0.8-0.3,1.2c-0.1,0.4-0.2,0.8-0.2,1.1
						l-0.2,1l-1,0.2c-0.1,0-0.3,0.1-0.4,0.1c-0.2,0-0.3,0.1-0.5,0.1c-0.3,0.1-0.6,0.2-0.9,0.3c-0.6,0.2-1.2,0.5-1.7,0.7
						c-1.1,0.5-2.2,1.2-3.1,2s-1.7,1.7-2.4,2.7c-0.6,1-1.1,2.2-1.4,3.4c-0.1,0.3-0.1,0.6-0.2,0.9c-0.1,0.3-0.2,0.6-0.2,1
						c-0.1,0.6-0.2,1.3-0.3,1.9c-0.1,1.7-0.1,3-0.1,4.3s0.2,2.6,0.4,3.9c0.1,0.6,0.2,1.3,0.4,1.9c0.1,0.3,0.2,0.6,0.3,0.9
						c0,0.2,0.1,0.3,0.1,0.5s0.1,0.3,0.1,0.4l0.3,0.9l-0.8,0.6l-0.1,0.1l-0.1,0.1c-0.1,0.1-0.2,0.2-0.3,0.3
						c-0.2,0.2-0.4,0.4-0.5,0.5c-0.4,0.4-0.7,0.8-1,1.3c-0.6,0.9-1.2,1.8-1.6,2.8c-0.1,0.3-0.2,0.5-0.3,0.8L87.9,77l-0.1,0.4
						l-0.2,0.8L87.4,79l-0.1,0.4v0.4l-0.1,0.8c0,0.3,0,0.5,0,0.8s0,0.5,0,0.8c0.1,1.1,0.2,2.2,0.5,3.3c0.2,1.1,0.6,2.1,1.1,3.1
						s1.1,2,1.7,2.8c0.3,0.5,0.7,0.9,1.1,1.3c0.2,0.2,0.4,0.4,0.6,0.6s0.4,0.4,0.6,0.5l0.5,0.4L93.1,95c-0.2,0.5-0.3,1.1-0.4,1.7
						s-0.2,1.2-0.2,1.8c-0.1,1.2-0.1,2.4,0,3.6c0,0.3,0.1,0.6,0.1,0.9s0.1,0.6,0.1,0.9c0.1,0.3,0.1,0.6,0.2,0.9l0.2,0.8
						c0.4,1.1,0.8,2.2,1.5,3.2c0.3,0.5,0.6,1,1,1.4c0.4,0.5,0.8,0.9,1.2,1.2c0.9,0.7,1.9,1.4,3,1.8s2.3,0.7,3.5,0.8s2.4,0.1,3.6-0.2
						l0.5-0.1v0.5c0,1.2,0.1,2.5,0.3,3.7c0.2,1.2,0.5,2.4,1,3.6c0.2,0.6,0.5,1.1,0.8,1.7c0.3,0.5,0.6,1.1,1,1.6l0.3,0.4
						c0.1,0.1,0.2,0.3,0.3,0.4c0.2,0.2,0.4,0.5,0.6,0.7c0.4,0.5,0.9,0.8,1.4,1.2s1.1,0.6,1.6,0.8c0.6,0.2,1.2,0.4,1.8,0.5
						c1.2,0.2,2.5,0.3,3.7,0.3c1.3,0,2.5-0.2,3.7-0.4C124.9,128.1,126.1,127.8,127.3,127.5z"/>
				</g>
			</g>
			<g>
				<path class="st2" d="M120.4,152.7c0,0-13.2-80.5,51.2-78.2c65.8,2.3,42.8,83.4,42.8,83.4L120.4,152.7z"/>
			</g>
			<g>
				<g>
					<path class="st1" d="M119,160.4c0,0-13.6-82.8,52.7-80.5c67.7,2.4,44.1,85.8,44.1,85.8L119,160.4z"/>
					<path class="st2" d="M118.9,160.5l-0.1-0.1v-0.1v-0.1V160l-0.1-0.5l-0.2-0.9c-0.1-0.6-0.2-1.2-0.3-1.7
						c-0.2-1.2-0.3-2.4-0.5-3.5c-0.3-2.4-0.5-4.7-0.6-7.1c-0.1-2.4-0.2-4.8-0.2-7.1c0-2.4,0.1-4.8,0.3-7.1c0.2-2.4,0.5-4.8,0.8-7.1
						c0.3-2.3,0.8-4.7,1.4-7c0.5-2.3,1.2-4.7,2-6.9c0.8-2.3,1.7-4.5,2.8-6.7c1.1-2.2,2.3-4.3,3.7-6.3c1.4-2,2.9-3.9,4.6-5.7
						c3.4-3.5,7.4-6.4,11.8-8.5l0.8-0.4l0.4-0.2l0.4-0.2l1.7-0.7c1.1-0.4,2.3-0.8,3.5-1.1c1.2-0.4,2.3-0.6,3.5-0.9
						c0.6-0.1,1.2-0.2,1.8-0.3l0.9-0.2c0.3-0.1,0.6-0.1,0.9-0.1c4.8-0.7,9.5-0.8,14.3-0.5c1.2,0.1,2.4,0.1,3.6,0.3l1.8,0.2l1.8,0.3
						c1.2,0.2,2.4,0.4,3.5,0.6c0.6,0.1,1.2,0.3,1.7,0.4c0.6,0.2,1.2,0.3,1.7,0.5c2.3,0.6,4.6,1.4,6.8,2.3s4.3,2.1,6.3,3.3
						c4,2.6,7.6,5.8,10.5,9.7c2.9,3.8,5.2,8.1,6.9,12.6c0.8,2.3,1.5,4.6,2.1,6.9c0.5,2.3,1,4.7,1.3,7.1c0.6,4.8,0.9,9.5,0.8,14.3
						s-0.5,9.5-1.1,14.3c-0.3,2.4-0.7,4.7-1.1,7.1c-0.2,1.2-0.5,2.4-0.7,3.5c-0.3,1.2-0.5,2.3-0.8,3.5l-0.5,1.3l-1.4-0.1l-12.2-0.6
						c-2-0.1-4.1-0.2-6.1-0.4l-6.1-0.4c-8.1-0.5-16.3-1.1-24.4-1.6l-12.1-0.9l-12.1-0.9C134.8,161.8,126.8,161.2,118.9,160.5z
						 M119.1,160.3c8.3,0.2,16.4,0.4,24.6,0.6l12.1,0.4l12.1,0.4c8,0.3,16,0.6,24,1l6,0.3c2,0.1,4,0.2,6,0.3l12,0.6l-1.7,1.3
						c0.3-1.1,0.6-2.2,0.8-3.3c0.3-1.1,0.5-2.3,0.7-3.4c0.5-2.3,0.9-4.6,1.2-6.9c0.7-4.6,1.2-9.2,1.3-13.9c0.2-4.7,0.1-9.3-0.5-13.9
						c-0.2-2.3-0.6-4.6-1-6.9c-0.5-2.3-1-4.5-1.7-6.7c-1.4-4.4-3.4-8.6-6.1-12.4c-2.7-3.8-6-7.1-9.9-9.7c-1.9-1.3-4-2.4-6.1-3.3
						l-1.6-0.6c-0.3-0.1-0.5-0.2-0.8-0.3l-0.8-0.3c-0.5-0.2-1.1-0.4-1.6-0.5l-1.7-0.5c-0.5-0.2-1.1-0.3-1.7-0.4
						c-0.6-0.1-1.1-0.3-1.7-0.4c-1.2-0.2-2.3-0.5-3.5-0.6l-1.7-0.2l-1.7-0.1c-1.2-0.1-2.3-0.1-3.5-0.2c-4.7-0.1-9.4,0.2-13.9,1.1
						c-0.3,0.1-0.6,0.1-0.8,0.2l-0.8,0.2c-0.5,0.1-1.1,0.3-1.7,0.4c-1.1,0.3-2.2,0.6-3.3,1s-2.2,0.8-3.2,1.2l-1.6,0.7l-0.4,0.2
						l-0.4,0.2l-0.8,0.4l-0.8,0.4l-0.7,0.4l-0.7,0.4l-0.4,0.2l-0.4,0.2l-1.4,0.9l-1.4,1c-0.9,0.7-1.8,1.4-2.6,2.2l-0.6,0.6l-0.6,0.6
						c-0.4,0.4-0.8,0.8-1.2,1.2c-1.6,1.6-3,3.4-4.3,5.3s-2.5,3.8-3.5,5.9c-1,2-2,4.2-2.7,6.3c-0.8,2.2-1.5,4.4-2.1,6.6
						c-1.2,4.5-2,9.1-2.6,13.7c-0.3,2.3-0.5,4.7-0.6,7s-0.2,4.7-0.2,7c0,2.4,0,4.7,0.1,7c0,1.2,0.1,2.4,0.2,3.5
						c0,0.6,0.1,1.2,0.1,1.7l0.1,0.9v0.5v0.2L119.1,160.3L119.1,160.3C119.2,160.3,119.2,160.3,119.1,160.3z"/>
				</g>
			</g>
			<g>
				<path class="st4" d="M214.8,153.3c0,0,1.4-6.3,5.9-5.4c6,1.2,0.3,24-5,22.7C211.8,169.7,214.8,153.3,214.8,153.3z"/>
			</g>
			<g>
				<path class="st4" d="M121.9,151.7c0,0-1.4-6.3-5.9-5.4c-6,1.2-0.3,24,5,22.7C124.9,168.1,121.9,151.7,121.9,151.7z"/>
			</g>
			<g>
				<g>
					<path class="st4" d="M168.6,230.2c14.9,1.5,43.5-29.5,46.5-64.6c2.3-27.2-3.7-58-23.2-59.1c-12.5-0.7-15.3,3.9-22.4,3.5
						c-4.9-0.3-8.8-4.5-20.5-4.3c-13,0.2-29.7,9-27.4,54.6C123.8,204.2,161.7,229.5,168.6,230.2z"/>
				</g>
				<g>
					<path class="st5" d="M168.6,230.1c1.8,0.2,3.7-0.2,5.4-0.7s3.4-1.3,5-2.3c3.2-1.8,6.1-4.1,8.8-6.7c5.4-5.1,9.9-11,13.7-17.3
						c7.6-12.6,12.5-26.9,13.1-41.6c0.5-7.3,0.4-14.7-0.5-22.1c-0.9-7.3-2.6-14.6-6.1-21.1c-1.8-3.2-4-6.2-7-8.3
						c-2.9-2.2-6.6-3.3-10.2-3.3c-3.7-0.2-7.4,0.2-10.9,1.4c-1.7,0.5-3.5,1.2-5.3,1.7s-3.7,0.8-5.7,0.6c-1.9-0.2-3.7-0.9-5.5-1.5
						c-1.7-0.6-3.5-1.2-5.2-1.6c-3.5-0.8-7.2-1.1-10.9-0.8c-3.6,0.3-7.1,1.3-10.2,3.2c-3.1,1.9-5.6,4.5-7.5,7.6
						c-3.8,6.1-5.7,13.4-6.6,20.6c-0.9,7.3-0.9,14.7-0.6,22c0.5,7.3,1.6,14.6,4.1,21.5c2.4,6.9,5.6,13.6,9.6,19.8
						c4.1,6.1,8.8,11.8,14.2,16.9c2.6,2.6,5.6,4.8,8.6,7c1.6,1,3.1,2.1,4.7,2.9l1.2,0.7l1.3,0.5
						C166.8,229.7,167.7,229.9,168.6,230.1z M168.5,230.3c-0.9-0.2-1.8-0.4-2.6-0.8l-1.3-0.5l-1.2-0.7c-1.6-0.8-3.2-1.9-4.8-2.9
						c-3-2.1-5.9-4.4-8.7-6.9c-5.5-4.9-10.5-10.5-14.8-16.6c-4.2-6.1-7.6-12.9-10.1-19.9l-1.7-5.3c-0.5-1.8-0.8-3.7-1.2-5.5
						c-0.2-0.9-0.4-1.8-0.5-2.7l-0.3-2.8c-0.2-1.9-0.4-3.7-0.5-5.6c-0.3-7.4-0.3-14.9,0.6-22.3c1-7.4,2.9-14.8,7-21.3
						c2.1-3.1,4.8-6,8.1-7.9c3.3-2,7.1-3,10.8-3.2c3.8-0.2,7.5,0.1,11.2,1c1.8,0.5,3.6,1.1,5.3,1.8c1.7,0.6,3.4,1.4,5.2,1.6
						s3.6,0,5.3-0.5s3.5-1.1,5.3-1.6c3.6-1.1,7.4-1.4,11.1-1.3c3.7,0,7.5,1.2,10.5,3.5c3,2.2,5.4,5.2,7.2,8.5
						c3.6,6.6,5.4,13.9,6.5,21.2c1.1,7.4,1.4,14.8,1,22.3c-0.5,14.9-5.5,29.6-13.6,42.1c-4,6.3-8.8,12.1-14.3,17.1
						c-2.8,2.5-5.7,4.8-9,6.6c-1.6,0.9-3.3,1.7-5.1,2.2C172.3,230.2,170.4,230.5,168.5,230.3z"/>
				</g>
			</g>
		</g>
		<g>
			<g>
				<polygon class="st8" points="120.6,241.9 128.3,202.8 133.3,203.4 128.3,242.9 				"/>
			</g>
			<g>
				<path class="st9" d="M111.9,324.9c11.1,1,11.1-9.6,12.9-30.2c4-45.9,7.8-53.7,0.3-54.5c-4.8-0.5-5.8,2.5-7.6,7.9
					c-2.3,7.2-16.4,64.9-13.5,71.2C106.6,324.8,111.9,324.9,111.9,324.9z"/>
			</g>
			<g>
				<path class="st4" d="M72.7,322.2l11.4,35.6c0,0,8.1-23.2,13.6-28.7s13.5-32.6,13.5-32.6l0.3-1.1l5.3-2.4c0,0,8.5-3.5,12.1-1.7
					c0,0-12-9.9-15.5-8.3s8.4-6.4,14.2-2.7c0,0-16.9-9.5-22-7.5s-16.1-1.3-19.7,6.7C82.2,287.7,80.3,316,72.7,322.2z"/>
			</g>
			<g>
				<g>
					<path class="st4" d="M72.7,323.1c0,0,4.5-11.4,6-25.7c1.6-14.3,2.6-20,4.9-22.2c2.4-2.2,17.3-16.2,23.5-15.8
						c6.2,0.3,20.8-1.6,23.5,3.5s1.1,9.2,0,9.5s-3.4-4.1-5.9-3.5s-17.2,5.3-17.6,3.7"/>
				</g>
				<g>
					<path class="st6" d="M72.7,323c1.7-5.5,3-11.1,4.1-16.7s1.5-11.3,2.3-17.1c0.5-2.8,0.9-5.7,1.7-8.5c0.4-1.4,0.8-2.8,1.6-4.1
						c0.4-0.6,0.8-1.3,1.4-1.8l1.6-1.5c4.3-3.8,8.6-7.6,13.4-11c1.2-0.8,2.4-1.6,3.7-2.3c1.3-0.6,2.7-1.3,4.3-1.4
						c2.9,0,5.7-0.2,8.6-0.2c2.9-0.1,5.8-0.1,8.8,0.3c1.5,0.2,2.9,0.5,4.4,1.2l1.1,0.6l1,0.8c0.3,0.3,0.5,0.7,0.8,1.1
						c0.2,0.4,0.3,0.7,0.5,1c0.6,1.4,1,2.9,1.1,4.5c0,1.6,0,3.2-1.3,4.7c-0.2,0.2-0.4,0.4-0.8,0.5c-0.2,0.1-0.5,0.1-0.7,0
						c-0.2,0-0.3-0.1-0.5-0.2c-0.5-0.3-0.7-0.5-1-0.8c-0.5-0.5-1-1.1-1.5-1.5c-0.5-0.5-1-0.8-1.5-1c-0.3-0.1-0.5-0.1-0.7-0.1
						c-0.3,0-0.6,0.2-1,0.2c-2.8,0.7-5.6,1.5-8.4,2.1c-1.4,0.3-2.8,0.6-4.2,0.9c-0.7,0.1-1.4,0.2-2.2,0.3c-0.4,0-0.7,0.1-1.1,0
						c-0.4,0-0.8,0-1-0.4h0.2c0.1,0.2,0.5,0.2,0.9,0.2s0.7-0.1,1.1-0.1c0.7-0.1,1.4-0.3,2.1-0.5c1.4-0.4,2.7-0.8,4.1-1.2
						c2.7-0.8,5.5-1.7,8.2-2.6c0.4-0.1,0.6-0.2,1.1-0.3c0.5-0.1,1-0.1,1.4,0.1c0.9,0.3,1.5,0.8,2.1,1.3s1.1,1,1.6,1.5
						c0.2,0.2,0.5,0.5,0.7,0.5l0,0h-0.1c0,0,0,0,0.1-0.1c0.6-0.8,0.8-2.3,0.7-3.5c-0.1-1.3-0.4-2.6-1-3.9c-0.8-2.5-3.7-3.1-6.4-3.6
						c-2.7-0.4-5.6-0.5-8.5-0.5c-2.8,0-5.8,0.1-8.6,0c-1.3,0-2.6,0.6-3.9,1.1c-1.3,0.6-2.5,1.3-3.7,2c-4.8,3-9.3,6.7-13.5,10.6
						c-1,1-2.2,1.9-2.8,3.1c-0.6,1.3-0.9,2.6-1.3,4c-0.6,2.8-0.9,5.7-1.2,8.5c-0.4,2.8-0.6,5.7-1,8.6s-0.9,5.7-1.5,8.6
						c-1.3,5.7-2.9,11.2-5.2,16.5L72.7,323z"/>
				</g>
			</g>
			<g>
				<g>
					<path class="st4" d="M106.5,271.9c0,0,0.5,2.2,6.5,0c5.9-2.2,17.9-2.9,19.4,0.6c1.5,3.3-0.5,7.2-2.7,8.8"/>
				</g>
				<g>
					<path class="st6" d="M106.6,271.9c0.4,0.6,1.2,0.6,1.9,0.5s1.4-0.3,2.1-0.5s1.4-0.5,2.1-0.7c0.7-0.3,1.5-0.5,2.3-0.7
						c1.6-0.3,3.2-0.3,4.7-0.5c1.6-0.1,3.1-0.3,4.7-0.5s3.2-0.2,4.8,0.1c0.8,0.1,1.6,0.4,2.4,0.8c0.4,0.2,0.8,0.5,1.1,0.9
						c0.2,0.2,0.3,0.5,0.5,0.7c0.1,0.2,0.2,0.4,0.2,0.6c1,3.5-0.9,7.1-3.7,8.6l-0.1-0.1c2-2.3,3-5.4,2.1-7.9
						c-0.1-0.2-0.1-0.3-0.2-0.5c-0.1-0.1-0.1-0.2-0.2-0.3c-0.2-0.2-0.4-0.4-0.6-0.5c-0.5-0.3-1.2-0.6-1.9-0.8
						c-1.4-0.4-2.9-0.6-4.4-0.7s-3.1-0.1-4.6,0.1c-1.5,0.3-3,0.8-4.4,1.3l-2.1,0.7c-0.7,0.3-1.5,0.5-2.3,0.6s-1.6,0.2-2.5,0.1
						c-0.4,0-0.8-0.2-1.2-0.4S106.6,272.3,106.6,271.9L106.6,271.9z"/>
				</g>
			</g>
			<g>
				<g>
					<path class="st4" d="M111.2,284.8c0,0,5.8-5.1,12.7-5.1s7.6,3.6,7.6,5.6c0,2.3-3.8,5.6-3.8,5.6"/>
				</g>
				<g>
					<path class="st6" d="M111.1,284.7c1.7-2.1,4-3.7,6.6-4.6c1.3-0.4,2.7-0.5,4-0.6s2.6-0.2,4-0.2s2.8,0.2,4.1,1s2.3,2.3,2.4,3.8
						c0.1,0.4,0.1,0.7,0,1.1c0,0.5-0.1,0.9-0.3,1.2c-0.3,0.7-0.7,1.3-1.2,1.8c-0.9,1-1.9,1.9-3.1,2.6l-0.1-0.1
						c0.8-1.1,1.6-2.1,2.2-3.2c0.3-0.5,0.6-1.1,0.7-1.6c0.1-0.3,0.1-0.5,0.1-0.7c0-0.3,0-0.6-0.1-0.8c-0.2-1.1-0.6-2.1-1.6-2.7
						c-0.9-0.7-2.1-1.1-3.3-1.4c-1.3-0.3-2.6-0.4-3.8-0.1c-1.3,0.3-2.5,0.8-3.6,1.4c-2.3,1-4.6,2.2-7,3.4L111.1,284.7z"/>
				</g>
			</g>
			<g>
				<path class="st2" d="M92.4,358.7c0,0-5.1-25.7-21.6-36.2c0,0-1.6,9.8,5.8,22.6C84.1,357.9,92.4,358.7,92.4,358.7z"/>
			</g>
			<g>
				<g>
					<path class="st4" d="M83.7,358.9c0,0,10-29.4,16.8-32.1c6.7-2.6,14.9-20.2,17.9-22c2.9-1.7,3.3,1.7,4.8,1.4
						c1.5-0.3,7.3-5.8,7.5-9.5c0.2-3.7-0.2-6.7-6.8-5.7c-6.7,1-11.1,4.4-12.4,4.4"/>
				</g>
				<g>
					<path class="st6" d="M83.7,358.8c1.2-4.3,2.6-8.6,4.3-12.8c1.7-4.2,3.5-8.3,5.8-12.2c1.2-1.9,2.5-3.8,4.1-5.5
						c0.8-0.8,1.8-1.6,2.9-2c1-0.4,1.9-1.1,2.7-1.8c1.7-1.5,3.1-3.2,4.4-5s2.5-3.7,3.7-5.6s2.3-3.9,3.5-5.8c0.6-0.9,1.2-1.9,2-2.8
						c0.3-0.4,0.9-1,1.5-1.3c0.5-0.3,1.3-0.6,2.1-0.4c0.8,0.2,1.4,0.7,1.8,1.2s0.8,0.7,0.7,0.6c0,0,0.6-0.3,1-0.6
						c0.4-0.3,0.8-0.7,1.2-1c1.6-1.5,3-3.2,3.9-5c0.2-0.5,0.4-0.9,0.5-1.4c0.1-0.2,0.1-0.5,0.1-0.7c0-0.3,0-0.5,0-0.8
						c0-1.1,0-2.1-0.4-2.9s-1.1-1.2-2.1-1.4c-1-0.2-2.1-0.2-3.1,0c-2.2,0.2-4.3,0.7-6.4,1.5c-1,0.4-2.1,0.8-3.1,1.2
						c-1,0.4-2,1-3.2,1.2v-0.2c1-0.3,2-1,2.9-1.5c1-0.5,2-1.1,3-1.6c2.1-0.9,4.3-1.6,6.6-2c1.1-0.2,2.3-0.3,3.6-0.1
						c0.6,0.1,1.3,0.3,1.8,0.6c0.6,0.4,1.1,0.9,1.5,1.5c0.6,1.3,0.6,2.5,0.7,3.7c0,0.3,0,0.6,0,0.9c-0.1,0.3-0.1,0.7-0.2,1
						c-0.2,0.6-0.4,1.2-0.6,1.7c-1.1,2.2-2.6,3.9-4.4,5.5c-0.4,0.4-0.9,0.8-1.4,1.1c-0.3,0.2-0.5,0.4-0.8,0.5s-0.6,0.4-1.2,0.4
						c-0.5,0-1-0.3-1.3-0.5s-0.5-0.5-0.6-0.7c-0.4-0.4-0.6-0.7-0.9-0.7c-1.5-0.3-2.9,2-4.1,3.7l-3.8,5.5c-2.6,3.7-5.1,7.4-8.4,10.6
						c-0.8,0.8-1.7,1.5-2.8,2c-1,0.5-1.7,1.1-2.5,2c-1.4,1.6-2.5,3.6-3.6,5.6c-4.2,7.8-7.6,16.1-11.1,24.4h-0.3L83.7,358.8
						L83.7,358.8z"/>
				</g>
			</g>
			<g>
				<g>
					<path class="st3" d="M66.5,332.1l6.3-12.7l19.8,25l-8.8,26.4C83.7,370.8,64.6,335.8,66.5,332.1z"/>
				</g>
				<g>
					<path class="st6" d="M66.3,332c1-2.1,2-4.3,2.9-6.5s1.7-4.4,2.6-6.6l0.5-1.4l1.1,1.2c1.8,1.9,3.7,3.9,5.3,6
						c1.7,2,3.3,4.2,4.8,6.3l4.6,6.6c1.5,2.2,3.1,4.3,4.7,6.4l0.2,0.2l-0.1,0.3c-0.7,2.2-1.4,4.4-2.1,6.7l-1.8,6.7
						c-0.6,2.3-1.2,4.5-1.8,6.7l-2,6.7l-1.1,3.5l-1.8-3.2c-1.8-3.1-3.6-6.2-5.2-9.4c-1.6-3.2-3.2-6.4-4.7-9.7
						c-1.5-3.3-2.6-6.7-3.7-10.1c-0.5-1.7-1.1-3.4-1.6-5.1c-0.3-0.9-0.5-1.7-0.7-2.6C66.3,333.9,66,333,66.3,332z M66.6,332.2
						c-0.2,0.7,0,1.7,0.3,2.5c0.2,0.8,0.6,1.7,0.9,2.5c0.7,1.6,1.5,3.2,2.3,4.8c1.7,3.1,3.6,6.2,5.2,9.3c1.7,3.1,3.4,6.2,5,9.4
						c1.6,3.1,3.2,6.3,4.8,9.5l-2.9,0.3l2.4-6.6c0.8-2.2,1.7-4.3,2.6-6.5l2.6-6.5c0.8-2.2,1.6-4.4,2.3-6.6l0.1,0.5
						c-1.7-2.1-3.4-4.1-5.2-6.1l-5.4-5.9c-1.7-2-3.5-4-5-6.2c-1.6-2.1-3.1-4.3-4.6-6.5l1.7-0.2c-1.2,2-2.5,4-3.7,6.1
						C68.8,328,67.7,330.1,66.6,332.2z"/>
				</g>
			</g>
			<g>
				<g>
					<path class="st1" d="M23.3,400c0,0,9.4,49.1,22.4,46.4c13.1-2.7,42.3-84.2,45.6-89.2c0,0-17.3-12.1-22.8-33
						C68.4,324.2,19.1,391.4,23.3,400z"/>
				</g>
				<g>
					<path class="st2" d="M23.5,399.9c0.9,3.2,1.8,6.2,2.7,9.3c1,3.1,2,6.1,3,9.2c2.1,6.1,4.4,12.1,7.3,17.6c1.5,2.7,3.2,5.4,5.3,7
						c1,0.8,2.1,1.3,3,1.2c0.5,0,0.8-0.2,1.3-0.5s1-0.7,1.5-1.2c2.1-2,3.9-4.6,5.6-7.2c1.8-2.6,3.4-5.4,5-8.1
						c6.4-11.1,12.3-22.7,17.4-34.6c2.5-5.9,4.9-12,7.2-18l3.4-9.1l1.7-4.6l0.9-2.3c0.3-0.8,0.6-1.5,1.1-2.5l0.4,2.3
						c-3-2-5.6-4.3-8.1-6.8s-4.8-5.1-6.9-7.9c-4.1-5.7-7.4-12.1-9.4-19l4.5,0.8l-12.8,18.1l-6.4,9.1l-6.4,9.1
						c-4.2,6.1-8.4,12.2-12.3,18.4c-2,3.1-3.8,6.3-5.7,9.5c-0.9,1.6-1.7,3.2-2.4,4.9c-0.4,0.8-0.6,1.7-0.9,2.6
						C23.4,398.2,23.2,399.1,23.5,399.9z M23,400.1c-0.5-0.9-0.4-2-0.3-2.9c0.1-1,0.3-1.9,0.6-2.8c0.5-1.8,1.2-3.6,1.9-5.3
						c1.4-3.5,3.1-6.8,4.8-10.1c3.5-6.6,7.2-13.1,11.1-19.4l6-9.4l6.2-9.3c2.1-3.1,4.2-6.1,6.4-9.1s4.3-6,6.6-9l3.2-4.2l1.3,5.1
						c1.6,6.3,4.4,12.3,8.1,17.7c1.9,2.7,3.9,5.3,6.1,7.8c2.2,2.4,4.7,4.8,7.1,6.8l1.3,1.1l-0.9,1.3c-0.3,0.4-0.7,1.2-1,1.9l-1,2.2
						l-2,4.4l-3.9,8.9c-2.6,5.9-5.1,11.9-7.7,17.8c-5.1,11.9-9.6,24.1-15.3,35.8c-1.4,2.9-3,5.8-4.7,8.7c-1.8,2.8-3.7,5.6-6.3,8.1
						c-0.7,0.6-1.4,1.2-2.3,1.7c-0.9,0.5-2.2,1-3.3,1c-2.4,0.1-4.4-1-5.9-2.2c-2.9-2.5-4.5-5.6-6.1-8.5c-1.5-3-2.7-6.1-3.7-9.2
						s-1.9-6.3-2.7-9.4c-0.8-3.2-1.5-6.3-2.1-9.5C23.9,406.5,23.4,403.2,23,400.1z"/>
				</g>
			</g>
			<g>
				<g>
					<circle class="st12" cx="137.7" cy="152.1" r="49.5"/>
				</g>
				<g>
					<path class="st9" d="M137.7,106.7c25,0,45.4,20.4,45.4,45.4s-20.4,45.4-45.4,45.4s-45.4-20.4-45.4-45.4
						S112.6,106.7,137.7,106.7 M137.7,98.4c-29.6,0-53.7,24-53.7,53.7s24,53.7,53.7,53.7s53.7-24,53.7-53.7S167.3,98.4,137.7,98.4
						L137.7,98.4z"/>
				</g>
			</g>
		</g>
		<g>
			<path class="st6" d="M169.2,262.4c0.2,8.3,0.2,16.7-0.1,25c-0.2,4.2-0.5,8.3-0.5,12.5c-0.1,4.2,0,8.3,0.2,12.5
				c0.4,8.3,0.8,16.6,1.3,24.9s0.9,16.6,2.1,24.8H172c-2.2-8.1-3.1-16.4-3.7-24.8c-0.5-8.3-0.6-16.7-0.4-25
				c0.1-4.2,0.2-8.3,0.1-12.5c-0.1-4.2-0.3-8.3-0.3-12.5c0-8.3,0.4-16.7,1.3-25L169.2,262.4z"/>
		</g>
		<g>
			<path class="st6" d="M176.9,279.2c1,0,2.2,0.4,2.9,1.4c0.8,0.9,1,2.1,0.9,3.2s-0.7,2.2-1.3,3c-0.6,0.9-1.6,1.6-2.8,1.7
				s-2.5-0.6-3.1-1.6c-0.7-1-1-2.2-1-3.3s0.4-2.4,1.3-3.2C174.7,279.6,175.9,279.2,176.9,279.2z M176.9,279.5c-1,0-1.9,0.7-2.2,1.6
				c-0.3,0.8-0.4,1.7-0.4,2.6c0,1.7,0.6,3.6,2.4,4.1c0.8,0.3,1.8-0.2,2.3-1.1s0.5-1.9,0.4-2.8s-0.2-1.8-0.4-2.7
				C178.7,280.2,178,279.4,176.9,279.5z"/>
		</g>
		<g>
			<path class="st6" d="M176.5,320.2c1,0,2.2,0.4,2.9,1.4c0.8,0.9,1,2.1,0.9,3.2s-0.7,2.2-1.3,3c-0.6,0.9-1.6,1.6-2.8,1.7
				s-2.5-0.6-3.1-1.6c-0.7-1-1-2.2-1-3.3s0.4-2.4,1.3-3.2C174.3,320.5,175.5,320.2,176.5,320.2z M176.5,320.4c-1,0-1.9,0.7-2.2,1.6
				c-0.3,0.8-0.4,1.7-0.4,2.6c0,1.7,0.6,3.6,2.4,4.1c0.8,0.3,1.8-0.2,2.3-1.1s0.5-1.9,0.4-2.8s-0.2-1.8-0.4-2.7
				C178.4,321.2,177.6,320.4,176.5,320.4z"/>
		</g>
		<g>
			<g>
				<path class="st1" d="M164.8,372.1c4.4,0,4,8.8,0,8.8C160.4,381,160,372.1,164.8,372.1z"/>
			</g>
			<g>
				<path class="st2" d="M164.8,372.1c1,0,2.2,0.4,2.9,1.4c0.8,0.9,1,2.1,0.9,3.2s-0.7,2.2-1.3,3c-0.6,0.9-1.6,1.6-2.8,1.7
					s-2.5-0.6-3.1-1.6c-0.7-1-1-2.2-1-3.3c0-1.2,0.4-2.4,1.3-3.2C162.6,372.2,163.8,372.1,164.8,372.1z M164.8,372.2
					c-1,0-1.9,0.7-2.2,1.6c-0.3,0.8-0.4,1.7-0.4,2.6c0,1.7,0.6,3.6,2.4,4.1c0.8,0.3,1.8-0.2,2.3-1.1s0.5-1.9,0.4-2.8
					s-0.2-1.8-0.4-2.7C166.6,373.1,165.9,372.2,164.8,372.2z"/>
			</g>
		</g>
	</g>
</g>
</svg>
