<?xml version="1.0" encoding="utf-8"?>
<!-- Generator: Adobe Illustrator 24.0.2, SVG Export Plug-In . SVG Version: 6.00 Build 0)  -->
<svg version="1.1" id="tsworkerrh" xmlns="http://www.w3.org/2000/svg" xmlns:xlink="http://www.w3.org/1999/xlink" x="0px" y="0px"
	 viewBox="0 0 380 512" style="enable-background:new 0 0 380 512;" xml:space="preserve">

<g>
	
		<linearGradient id="SVGID_1_" gradientUnits="userSpaceOnUse" x1="290.628" y1="1246.2842" x2="105.7384" y2="1566.5226" gradientTransform="matrix(1 0 0 -1 -8.3622 1724.8346)">
		<stop  offset="0" style="stop-color:#7A793F"/>
		<stop  offset="0.4247" style="stop-color:#7C7A3F"/>
		<stop  offset="0.5777" style="stop-color:#837F3E"/>
		<stop  offset="0.6868" style="stop-color:#8E873C"/>
		<stop  offset="0.7749" style="stop-color:#9F9339"/>
		<stop  offset="0.8505" style="stop-color:#B5A236"/>
		<stop  offset="0.9173" style="stop-color:#D1B432"/>
		<stop  offset="0.9763" style="stop-color:#F0CA2D"/>
		<stop  offset="1" style="stop-color:#FFD42B"/>
	</linearGradient>
	<path class="st0" d="M189.8,503.3c102.1,0,184.8-82.7,184.8-184.8s-82.7-184.9-184.8-184.9S5,216.3,5,318.4S87.7,503.3,189.8,503.3
		z"/>
	<path class="st1" d="M273.9,338c-0.2,1.4-0.4,2.8-0.5,4.2l-0.4,4.2c-0.4,5.7-0.6,11.4-0.7,17.1c-0.2,11.4,0.1,22.9,0.6,34.2
		c0.3,5.7,1,11.3,1.9,16.9s2,11.2,3.3,16.8c2.5,11.1,5.6,22.1,8.8,33.1c0.9,3.1,1.9,6.3,2.9,9.4c5.6-3.7,17.7-12,25.2-19.4
		c7.1-7.1,11.5-11.4,15.2-15.7c-0.8-7.5-1.6-14.9-3.1-22.2l-0.7-3.6c-0.1-0.6-0.2-1.2-0.4-1.8l-0.5-1.7l-1-3.5l-1-3.5
		c-0.7-2.3-1.3-4.7-1.9-7.1s-1.1-4.8-1.6-7.2c-1.9-9.6-3.3-19.3-4.2-29c-0.5-4.9-0.8-9.8-1.1-14.6c-0.1-2.4-0.2-4.9-0.3-7.3
		l-0.1-3.7v-1.8v-0.9v-0.5c0-0.1,0-0.2,0-0.4c-1.5,0.6-3.1,1-4.7,1.5s-3.3,0.8-4.9,1.2c-3.3,0.6-6.7,1-10,1.5
		c-1.7,0.2-3.4,0.2-5.1,0.1s-3.4-0.4-5-0.8c-3.1-0.7-6.1-1.7-9-3c0,0.1-0.1,0.2-0.1,0.4c-0.1,0.3-0.2,0.7-0.3,1
		c-0.2,0.7-0.3,1.4-0.5,2.1C274.3,335.2,274.1,336.6,273.9,338z"/>
	<path class="st1" d="M82.8,324.2c0,0-17.4,65.2-51.4,72.7c0,0,45-72.7,29.2-94.9C60.5,301.9,70.2,308.1,82.8,324.2z"/>
	<path class="st2" d="M82.9,324.1c-0.1,0.3-0.1,0.5-0.2,0.8l-0.2,0.7l-0.4,1.4l-0.8,2.8c-0.5,1.9-1.1,3.7-1.7,5.6
		c-1.2,3.7-2.5,7.3-3.9,10.9c-2.8,7.2-6.2,14.3-10.1,21c-2,3.4-4.1,6.6-6.5,9.7s-5,6-7.8,8.7s-5.9,5.1-9.3,7.1
		c-3.4,2-7,3.6-10.8,4.4l-0.8,0.2l0.4-0.7c4.4-7.3,8.4-14.9,12.1-22.5c1.8-3.9,3.7-7.7,5.4-11.6s3.4-7.8,5-11.7s3-7.9,4.4-12
		c1.3-4,2.5-8.1,3.3-12.2c0.9-4.1,1.5-8.3,1.5-12.5c0-4.1-0.7-8.3-3-11.7l-2.8-4.1l4,2.8c1.2,0.8,2.2,1.6,3.2,2.4c1,0.8,2,1.7,3,2.6
		c1.9,1.8,3.8,3.7,5.6,5.6c1.8,1.9,3.5,3.9,5.2,6c0.8,1,1.6,2.1,2.4,3.1C81.3,322,82.1,323.1,82.9,324.1z M82.6,324.2l-2.5-2.9
		c-0.9-1-1.7-1.9-2.6-2.9s-1.8-1.9-2.7-2.8c-0.9-1-1.8-1.9-2.8-2.8c-1.9-1.8-3.8-3.6-5.8-5.3c-2-1.7-4-3.3-6.2-4.7l1.3-1.3
		c1.3,1.8,2.2,4,2.8,6.1c0.6,2.2,0.8,4.4,0.9,6.6c0.1,4.4-0.5,8.7-1.3,13c-1.8,8.5-4.7,16.6-8.1,24.6c-1.7,4-3.4,7.9-5.3,11.7
		c-1.9,3.9-3.8,7.7-5.9,11.4c-4.1,7.5-8.4,14.9-12.8,22.3l-0.4-0.5c3.7-0.8,7.3-2.4,10.5-4.5l1.2-0.8c0.4-0.3,0.8-0.6,1.2-0.8
		c0.7-0.6,1.6-1.1,2.2-1.8c0.7-0.6,1.5-1.2,2.2-1.9l2-2c5.3-5.6,9.6-11.9,13.5-18.5c2-3.3,3.8-6.7,5.5-10.1s3.3-6.9,4.9-10.4
		c1.5-3.5,3-7.1,4.4-10.7c0.7-1.8,1.4-3.6,2-5.4l1-2.7L82.6,324.2z"/>
	<path class="st3" d="M100.9,316.3c0,0,2.2,10.3,4,10.4s1.7-13.7,1.7-14C106.6,312.4,105.4,314.4,100.9,316.3z"/>
	<path class="st4" d="M318.2,319.3c0,0-0.2,7.1,0,8.5s-12.5,5.4-23.6,5.9s-19.5-4.2-19.5-4.2l0.8-8.2"/>
	<path class="st2" d="M318.3,319.3c0.3,2.2,0.5,4.5,0.6,6.7c0,0.5,0.1,1.1,0.1,1.6v0.1l0,0v0.1c0,0.1,0,0.1,0,0.2
		c0,0.2-0.1,0.3-0.1,0.4s-0.1,0.2-0.1,0.2c-0.2,0.2-0.4,0.4-0.5,0.5c-0.3,0.2-0.6,0.4-0.8,0.6c-1.1,0.6-2.1,1-3.2,1.4
		c-2.2,0.7-4.4,1.1-6.6,1.4s-4.4,0.7-6.6,1.1s-4.4,0.8-6.7,1.1c-2.3,0.3-4.6,0.2-6.8,0c-4.6-0.4-9-1.8-13-4.2l-0.6-0.3l0.1-0.6
		c0.2-1.3,0.5-2.7,0.7-4.1c0.2-1.3,0.5-2.7,0.9-4h0.2c0.1,1.4,0.1,2.8,0.1,4.1c0,1.4,0,2.8-0.1,4.1l-0.5-0.9c1.9,0.8,4,1.6,6.1,2.1
		c2.1,0.6,4.2,1.1,6.3,1.5c2.1,0.4,4.3,0.5,6.5,0.6s4.4,0,6.6-0.2s4.4-0.7,6.5-1.4c2.1-0.7,4.2-1.5,6.2-2.2c1-0.4,2.1-0.7,2.9-1.2
		c0.2-0.1,0.4-0.2,0.6-0.3c0.1,0,0.1-0.1,0.1-0.1c0,0.1,0,0-0.1,0.2v0.1l0,0l0,0v-0.1c0-0.7,0-1.2,0-1.8c0.1-2.3,0.4-4.5,0.8-6.7
		L318.3,319.3z"/>
	<path class="st4" d="M292.5,200.2c0,0,2.9,0.8,5.4,11.2s21.6,62.6,26.5,70.5c5,7.9-6.2,33.6-6.2,37.3c0,0-13.3,6.2-22,6.7
		c-8.7,0.4-20.3-4.6-20.3-4.6S282.5,223.9,292.5,200.2z"/>
	<path class="st2" d="M292.4,200.1h0.1l0,0h0.1l0.1,0.1c0.1,0,0.1,0.1,0.2,0.1c0.1,0.1,0.3,0.2,0.4,0.3c0.2,0.2,0.5,0.5,0.7,0.7
		c0.4,0.5,0.8,1.1,1.1,1.7c0.7,1.2,1.2,2.4,1.7,3.6c1,2.5,1.6,5.1,2.4,7.6c1.6,5,3.4,10,5.2,14.9c3.6,9.9,7.3,19.8,11.1,29.6
		c1.9,4.9,3.8,9.8,5.8,14.7c1,2.4,2,4.9,3.2,7.1l0.5,0.8c0.2,0.3,0.4,0.6,0.5,1s0.2,0.7,0.4,1c0.1,0.4,0.2,0.7,0.2,1
		c0.2,1.4,0.2,2.7,0.2,4.1c-0.1,2.7-0.7,5.3-1.2,7.9c-0.6,2.6-1.3,5.1-2.1,7.7c-0.7,2.5-1.6,5.1-2.4,7.6l-1.2,3.8
		c-0.2,0.6-0.4,1.3-0.5,1.9s-0.3,1.3-0.4,1.8v0.2l-0.2,0.1c-1.7,0.8-3.4,1.5-5.1,2.2s-3.4,1.3-5.2,1.9c-1.7,0.6-3.5,1.2-5.3,1.6
		c-1.8,0.5-3.6,0.8-5.5,1.1c-1.9,0.2-3.8,0.2-5.6,0c-1.9-0.2-3.7-0.5-5.5-0.9c-3.6-0.8-7.1-1.9-10.6-3.3l-0.7,0v-0.7
		c0.6-10.2,1.4-20.4,2.3-30.6c0.8-10.2,1.9-20.3,3.1-30.5c1.3-10.2,2.7-20.3,4.4-30.4c0.9-5,1.9-10,3-15c0.6-2.5,1.2-5,2-7.4
		l0.6-1.8c0.2-0.6,0.4-1.2,0.6-1.8C291.3,202.6,291.9,201.3,292.4,200.1z M292.5,200.4c-0.4,1.2-0.8,2.3-1.1,3.6l-0.5,1.8l-0.5,1.8
		c-0.6,2.5-1.1,5-1.6,7.5c-1,5-1.8,10-2.5,15.1c-1.5,10.1-2.7,20.2-3.7,30.4c-1.1,10.2-2.1,20.3-3.1,30.5s-1.9,20.3-2.7,30.5l-0.6-1
		c3.3,1.4,6.8,2.6,10.3,3.5c1.7,0.5,3.5,0.8,5.3,1.1c1.8,0.2,3.6,0.4,5.3,0.2c1.8-0.1,3.6-0.5,5.3-0.9c1.8-0.4,3.5-0.9,5.3-1.5
		c3.5-1.1,6.9-2.4,10.2-3.9l-0.2,0.4c0-0.7,0.2-1.4,0.4-2.1c0.2-0.6,0.4-1.3,0.6-1.9l1.2-3.8c0.8-2.5,1.6-5,2.3-7.6
		c1.4-5.1,2.7-10.2,2.8-15.4c0-1.3,0-2.6-0.3-3.8l-0.2-0.9c-0.1-0.3-0.2-0.6-0.3-0.8l-0.4-0.8l-0.5-0.9c-1.3-2.4-2.4-4.8-3.5-7.2
		c-1.1-2.4-2.2-4.8-3.1-7.3c-1-2.4-2-4.9-3-7.4c-3.8-9.9-7.4-19.8-10.8-29.8c-1.7-5-3.3-10-4.7-15.1c-0.7-2.6-1.2-5.2-1.9-7.6
		c-0.4-1.2-0.8-2.5-1.4-3.6c-0.3-0.6-0.6-1.2-1-1.7c-0.2-0.2-0.4-0.5-0.6-0.7c-0.1-0.1-0.2-0.2-0.4-0.3c-0.1,0-0.1-0.1-0.2-0.1
		l-0.1-0.1L292.5,200.4C292.6,200.4,292.6,200.4,292.5,200.4L292.5,200.4z"/>
	<path class="st4" d="M96,319.3c0,0-9.7,9.8-12.7,10.3c0,0-3.8-6.5-23.9-28.2c-20.1-21.6-20.3-23-21.2-23s4.9-9,8.1-10.5"/>
	<path class="st2" d="M96.1,319.4c-1.7,2.2-3.6,4.2-5.6,6.1c-1,1-2,1.9-3.1,2.8c-0.3,0.2-0.6,0.4-0.8,0.6c-0.3,0.2-0.6,0.4-0.9,0.6
		s-0.6,0.4-1,0.6c-0.3,0.2-0.8,0.3-1.2,0.5l-0.6,0.1l-0.4-0.6c-0.8-1.3-1.9-2.7-2.9-4s-2.1-2.7-3-4.1c-2-2.7-4-5.5-6.3-8.1
		c-2.2-2.6-4.5-5.1-6.9-7.5c-2.4-2.4-4.9-4.8-7.3-7.2c-4.7-4.9-9.5-9.8-13.9-15.1l-3.2-3.9c-0.2-0.3-0.6-0.7-0.7-0.8
		c-0.1-0.1,0,0,0,0h0.1c0,0,0,0-0.1,0s-0.1,0-0.2,0c-0.1,0-0.3-0.1-0.4-0.3c-0.1-0.1-0.2-0.2-0.2-0.4c0-0.1,0-0.2-0.1-0.2
		c0-0.5,0.1-0.5,0.1-0.7c0-0.1,0.1-0.2,0.1-0.4c0.4-0.9,0.9-1.6,1.4-2.3c1-1.4,2.1-2.8,3.3-4c0.6-0.6,1.2-1.2,1.9-1.8
		c0.7-0.6,1.4-1.1,2.2-1.4l0.1,0.2c-1.4,0.9-2.4,2.3-3.4,3.6c-1,1.3-1.9,2.8-2.7,4.2c-0.4,0.7-0.8,1.5-1.1,2.2
		c0,0.1-0.1,0.2-0.1,0.2s0,0.1,0-0.1c0-0.1,0-0.1,0-0.2s-0.1-0.2-0.2-0.3c-0.2-0.2-0.6-0.3-0.6-0.3c0.1,0,0.3,0,0.4,0
		c0.2,0.1,0.5,0.2,0.6,0.3c0.5,0.4,0.8,0.7,1.1,1c1.2,1.3,2.3,2.5,3.5,3.7c4.6,5,9.1,10.2,13.6,15.2c4.5,5.1,8.7,10.5,13.3,15.6
		c2.3,2.5,4.7,5,7,7.5c1.2,1.3,2.3,2.6,3.3,3.9c1.1,1.4,2.1,2.7,3,4.3l-1-0.5c0.2-0.1,0.4-0.1,0.7-0.2l0.4-0.2l0.4-0.2
		c0.3-0.1,0.6-0.3,0.8-0.5c0.3-0.2,0.6-0.4,0.8-0.6c1.1-0.8,2.2-1.6,3.2-2.4s2.1-1.7,3.2-2.6l3.2-2.6L96.1,319.4z"/>
	<path class="st4" d="M128.2,287.4c0,0-16.3,25.9-32.2,31.9c0,0-38.3-31.9-49.6-51.4c0,0,13.9-49.3,45.8-76.5
		C92.2,191.4,133.9,227,128.2,287.4z"/>
	<path class="st2" d="M128.3,287.4c-2,3.4-4.1,6.5-6.4,9.6s-4.7,6.1-7.3,8.9c-2.6,2.9-5.3,5.6-8.3,8.1c-1.5,1.2-3.1,2.4-4.7,3.4
		c-1.7,1-3.4,2-5.3,2.7l-0.5,0.2l-0.4-0.4c-4.6-3.8-9.1-7.8-13.5-11.8S73.1,300,69,295.7c-4.2-4.3-8.3-8.7-12.2-13.2
		c-2-2.3-3.8-4.6-5.6-7l-2.6-3.6l-2.4-3.8l-0.1-0.1v-0.1c2.2-7.2,4.8-14.3,7.8-21.2c2.9-6.9,6.2-13.8,9.8-20.4
		c3.6-6.6,7.7-13,12.3-19c2.3-3,4.8-5.9,7.3-8.7c2.6-2.8,5.3-5.4,8.2-7.9l0.7-0.7l0.7,0.7c3.4,3,6.4,6.3,9.3,9.7s5.5,7,8,10.8
		c2.4,3.7,4.7,7.6,6.7,11.6s3.7,8.1,5.3,12.3c1.6,4.2,2.8,8.5,3.9,12.8l0.7,3.3c0.2,1.1,0.4,2.2,0.6,3.3l0.3,1.6l0.2,1.7l0.5,3.3
		C129.4,269.7,129.4,278.6,128.3,287.4z M128.1,287.3c0.5-8.8,0.2-17.7-1-26.4c-1.4-8.7-3.6-17.2-6.8-25.4
		c-3.2-8.1-7.3-16-12.1-23.3c-2.4-3.6-5-7.2-7.8-10.6c-2.8-3.4-5.7-6.7-8.9-9.5H93c-2.8,2.4-5.6,5-8.1,7.7s-5,5.5-7.3,8.5
		c-2.3,2.9-4.6,5.9-6.7,9.1c-2.1,3.1-4.1,6.3-6,9.5c-3.8,6.4-7.3,13.2-10.3,20c-3,6.9-5.7,13.9-7.8,21.1v-0.3c3,5.1,6.9,9.6,10.9,14
		s8.2,8.6,12.5,12.7s8.6,8.2,13.1,12.2c4.4,4,8.8,8,13.4,11.9l-1-0.1c3.4-1.3,6.7-3.4,9.6-5.7c3-2.3,5.8-4.9,8.4-7.7
		c2.6-2.8,5.1-5.6,7.5-8.6C123.6,293.5,125.9,290.4,128.1,287.3z"/>
	<path class="st3" d="M221.6,154.4c0,0,6.9-5.8,8.3-5.5c1.4,0.3-4.7,20.2-8.3,26.2c-3.6,6.1-25.8,25.2-29.5,30.1c0,0-6.2-5-10-7.7
		c-3.9-2.8-16.3-11.6-22.1-22.1s-11.3-28.7-8.8-28.2s9.9,4.4,9.9,4.4s21.6,13.2,35.4,14.1C211.5,166.6,218.1,157.1,221.6,154.4z"/>
	<path class="st1" d="M160.3,140.6c0,0,2.9,19.4-14.4,46.1c0,0,30.1,31.1,49.3,30.5c19.3-0.7,42.8-30.9,42.8-30.9
		s-14.3-8.9-15.6-42.1c0,0-11.4,14.1-29.1,12.3C175.5,154.8,160.3,140.6,160.3,140.6z"/>
	<path class="st4" d="M288,210.5c1.2-6.2,2.5-12.3,4-18.4l-7.9-2.4c-1.5-0.5-3-1.1-4.4-1.7c-1.4-0.6-2.8-1.3-4.2-1.9
		c-5.6-2.7-11-5.5-16.4-8.4c-10.6-5.7-21-11.5-31.5-17.3c-0.8,4.8-2.4,9.4-4.7,13.6c-1.2,2.3-2.7,4.4-4.3,6.3
		c-1.6,1.9-3.3,3.9-5,5.7c-3.5,3.7-7.1,7.2-10.7,10.7c-0.9,0.9-1.8,1.7-2.7,2.6c-0.8,0.9-1.6,1.9-2.3,3c-1.4,2.1-2.6,4.3-3.6,6.6
		l-0.1,0.3L194,209c-1.9-1.5-3.6-3.2-5.3-4.8l-5.1-5c-3.4-3.3-6.9-6.5-10.6-9.6c-1.8-1.5-3.7-3-5.4-4.6c-1.7-1.7-3.3-3.4-4.7-5.3
		c-2.9-3.8-5.3-8-6.8-12.5l-2.4-7.4c-1.4-0.2-2.9-0.2-4.3-0.2c-1.5,0.1-2.9,0.2-4.4,0.4c-2.9,0.4-5.8,1-8.7,1.8
		c-1.4,0.4-2.8,1-4.1,1.6s-2.6,1.3-3.9,2.1c-2.6,1.5-5.1,3.1-7.5,4.7c-4.9,3.3-9.7,6.9-14.3,10.5c-4.6,3.6-9.1,7.3-13.6,11.1
		c2.8,11.2,5.1,22.6,7,34c2,11.5,3.5,23,4.8,34.6c1.2,11.6,2.1,23.2,2.7,34.8c0.3,5.8,0.5,11.6,0.5,17.5c0,2.9,0,5.8-0.2,8.8
		c0,0.7-0.1,1.5-0.2,2.2c0,0.4-0.1,0.8-0.2,1.2c0,0.2-0.1,0.4-0.2,0.6c0,0.1-0.1,0.2-0.1,0.4c0,0.1-0.1,0.1-0.1,0.2
		c-0.1,0.1-0.1,0.2-0.3,0.4c-0.2,0.2-0.4,0.3-0.8,0.3c-0.1,0-0.2,0-0.3,0c-0.1,0,0,0-0.1,0h-0.1l-0.4-0.1c-0.2-0.1-0.5-0.2-0.7-0.3
		l0,0c1.9,16.3,2.8,32.7,2.8,49.1c0,17.6-1,35.1-2.5,52.6c-1.5,17.4-3.6,34.7-5.3,52.1c10.8,6.9,39.5,23.2,73,23.4
		c41.7,0.3,80.9-6.2,106.9-22.9c-0.1-1.5-0.1-3.1-0.2-4.6c-0.2-3.3-0.3-6.5-0.4-9.8l-0.3-9.8c-0.1-3.3-0.1-6.5-0.2-9.8l-0.2-9.8
		l-0.1-9.8c-0.2-13.1-0.2-26.2-0.2-39.4c0-13.1,0.1-26.2,0.2-39.4l0.3-19.7l0.5-19.7c0.4-13.1,0.8-26.2,1.7-39.4
		c1-13.1,2.7-26.2,4.8-39.2C285.5,223.4,286.7,216.9,288,210.5z"/>
	<path class="st5" d="M113.8,175.5c-3.6,2.6-7.1,5.3-10.6,8.1c-3.2,2.6-6.4,5.3-9.5,8.1c1.4,2.5,2.1,5.2,2.9,7.8
		c0.8,2.9,1.4,5.9,2,8.8c1.1,5.9,2,11.8,2.7,17.8c1.5,11.9,2.5,23.8,3.4,35.7c0.9,11.9,1.5,23.8,2,35.8c0.2,6,0.4,11.9,0.5,17.9
		c0,1.5,0,3,0,4.5s-0.1,3-0.3,4.6c-0.1,0.8-0.2,1.5-0.5,2.3c-0.1,0.2-0.2,0.4-0.3,0.6c-0.1,0.1-0.1,0.2-0.2,0.4
		c-0.1,0.1-0.2,0.3-0.5,0.4c-0.2,0.1-0.6,0.1-0.8,0.1c-0.3-0.1-0.4-0.2-0.6-0.3l0,0c1.7,15.7,2.2,31.5,2.2,47.3
		c0,17.5-0.9,35.1-2.5,52.6c-1.5,17.3-4,34.5-5.3,51.7c10.3,6.7,39.5,23.5,73.5,23.8c41.5,0.3,80.5-6.2,106.5-22.6
		c-0.4-4.9-0.6-9.8-0.8-14.6l-0.5-9.8l-0.2-4.9l-0.1-4.9l-0.4-19.7v-2.5V422v-4.9v-9.8v-9.8l0.2-9.8c0.2-6.5,0.3-13.1,0.5-19.7
		l0.8-19.7c1.3-26.2,3.2-52.4,5.6-78.5c1.2-13.1,2.6-26.1,4.1-39.1l1.2-9.8l1.2-9.8c0.4-3.3,0.9-6.5,1.3-9.7l0.7-4.9l0.4-2.4
		c0.1-0.8,0.2-1.6,0.4-2.3c-1.1-0.2-2.1-0.4-3.1-0.6c-1-0.3-2.1-0.6-3.1-1l-3.1-1.1l-3-1.2c-4-1.7-7.9-3.6-11.8-5.6
		c-7.7-3.9-15.2-8.1-22.6-12.6c-2.3,2.2-4.1,5-5.7,7.8c-1.7,2.9-3.1,6-4.5,9.1c-2.8,6.2-5.1,12.5-7.4,18.9
		c-4.4,12.8-8.2,25.8-11.8,38.9c-3.5,13.1-6.8,26.2-10,39.4c-3.1,13.2-6.1,26.4-8.8,39.7l-0.7,3.5l-1.3-3.3l-15-40.7l-15.2-40.4
		l-30-79.7c-3.7,1.5-7.3,3.3-10.7,5.4C121.1,170.4,117.4,172.9,113.8,175.5z"/>
	<path class="st6" d="M281.8,187.8c0,0-41.7,102.3-40.9,162.4c0,0,17.9,2.9,37,0.7c0,0-0.2,23.1-0.1,29.5c0,0-59.9,6.3-91.7,3.7
		c0,0,5.8-29.1,6.1-33.4l15.4-1.3c0,0,15.1-120.9,46.8-174.6C254.4,174.8,269.1,179.9,281.8,187.8z"/>
	<path class="st6" d="M191,350.8l-21.2,0.7c0,0-33.6-168.6-40.6-187.1c0,0-16.4,10.4-26,17.7c0,0,28.1,94.3,33.6,169.3
		c0,0-19.2,1-31.8-1.2l0.7,37.1c0,0,53.8-5.8,79.1-3.4C184.7,384.1,187.9,365,191,350.8z"/>
	<path class="st2" d="M246.2,168.9c-0.2,0.1-0.4,0.2-0.5,0.4c-0.2,0.1-0.4,0.3-0.5,0.5l-0.9,1c-0.5,0.7-1.1,1.5-1.6,2.2l-1.5,2.3
		c-0.5,0.8-0.9,1.6-1.3,2.4c-0.4,0.8-0.9,1.6-1.3,2.4l-1.2,2.5l-1.2,2.5l-1.1,2.5c-0.7,1.7-1.5,3.4-2.1,5.1l-1.9,5.1l-1,2.6
		l-0.9,2.6l-1.8,5.2l-0.9,2.6l-0.8,2.6l-1.7,5.2l-1.7,5.3l-1.5,5.3l-1.5,5.3c-0.5,1.8-1.1,3.5-1.5,5.3l-2.9,10.6l-1.5,5.3L212,261
		l-2.8,10.7c-1.9,7.1-3.5,14.3-5.2,21.4s-3.1,14.4-4.6,21.6c-1.6,7.2-2.8,14.4-4.2,21.7l-2,10.9l-1.9,10.9
		c-1.3,7.3-2.6,14.5-3.8,21.7c-1.2,7.3-2.5,14.5-3.6,21.8l-1.8,10.9l-1.7,10.9c-2.2,14.5-4.3,29.1-6,43.7
		c-0.8,7.3-1.6,14.6-2.3,21.9c-0.6,7.3-1.1,14.7-1.1,22h-0.2c-0.3-3.7-0.3-7.4-0.2-11.1c0-3.7,0.2-7.4,0.4-11
		c0.2-3.7,0.4-7.4,0.7-11c0.3-3.7,0.5-7.4,0.9-11c0.7-7.3,1.5-14.6,2.4-22c0.9-7.3,1.9-14.6,3-21.9l1.7-10.9l1.8-10.9
		c1.2-7.3,2.5-14.5,3.9-21.8c1.3-7.3,2.7-14.5,4.2-21.7c1.4-7.2,2.9-14.4,4.5-21.6l2.3-10.8c0.4-1.8,0.8-3.6,1.2-5.4l1.2-5.4
		l2.3-10.8l1.1-5.4c0.4-1.8,0.8-3.6,1.2-5.4l2.4-10.8c0.8-3.6,1.5-7.2,2.4-10.8l2.5-10.8l1.2-5.4c0.4-1.8,0.9-3.6,1.3-5.3l2.8-10.7
		c1-3.6,2.1-7.1,3.1-10.6l1.6-5.3l1.7-5.3l1.7-5.2l0.9-2.6l1-2.6l1.9-5.2l1-2.6l1.1-2.5l2.1-5.1c0.7-1.7,1.5-3.4,2.3-5.1l1.2-2.5
		l1.3-2.4l1.3-2.4c0.4-0.8,1-1.6,1.4-2.4c0.5-0.8,0.9-1.6,1.5-2.4l1.6-2.3c0.5-0.7,1.2-1.5,1.8-2.2c0.7-0.7,1.3-1.3,2.1-1.8
		L246.2,168.9L246.2,168.9z"/>
	<path class="st4" d="M258.1,207.5c0,0-11-26-6-40.9c3.6-10.6-18.1-19.8-23.9-16.7c0,0,1.7-0.3,0,5.7s-4.6,14-5.2,17.6
		c-0.6,3.6-5,6.8-5,6.8l2.8,15.1c0,0,6.2,0.4,19.5,6.6C253.6,207.7,258.1,207.5,258.1,207.5z"/>
	<path class="st2" d="M258,207.4C257.9,207.4,257.9,207.5,258,207.4C257.9,207.5,257.9,207.4,258,207.4l-0.1-0.2l-0.1-0.3l-0.2-0.5
		c-0.2-0.4-0.3-0.7-0.5-1.1l-0.9-2.2c-0.6-1.5-1.2-2.9-1.7-4.4c-1.1-3-1.9-6-2.7-9.1c-0.7-3.1-1.3-6.2-1.6-9.4s-0.4-6.4,0.1-9.7
		l0.2-1.2c0.1-0.4,0.2-0.8,0.3-1.2s0.2-0.8,0.4-1.2c0.1-0.4,0.3-0.8,0.4-1.1c0.4-1.3,0.4-2.8,0-4.1c-0.9-2.8-3.2-5.1-5.6-6.9
		c-2.5-1.8-5.3-3.2-8.3-4.2c-1.5-0.5-3-0.8-4.5-1c-1.5-0.1-3.1-0.1-4.4,0.5l-0.3-0.9c0.5,0,0.7,0.1,0.9,0.4c0.2,0.2,0.3,0.4,0.3,0.6
		c0.1,0.4,0.1,0.8,0.1,1.2c0,0.7-0.1,1.5-0.2,2.2c-0.2,1.4-0.6,2.7-1,4.1c-0.7,2.7-1.5,5.3-2.3,8s-1.5,5.3-2,7.9
		c-0.3,1.6-1.2,2.9-2.1,4.1c-1,1.2-2,2.2-3.2,3.1l0.5-1.2c0.5,2.5,1,5,1.5,7.5s1,5,1.3,7.5l-1.1-1c1,0.1,1.8,0.3,2.6,0.5
		s1.6,0.4,2.4,0.6c1.6,0.5,3.2,1,4.7,1.6c3.1,1.2,6.2,2.5,9.1,4c2.9,1.5,5.9,2.9,8.9,4.1c1.5,0.6,3,1.2,4.6,1.7
		c0.8,0.2,1.6,0.5,2.3,0.7c0.4,0.1,0.8,0.2,1.2,0.3c0.2,0,0.4,0.1,0.6,0.1h0.3h0.1C258,207.4,258,207.3,258,207.4z M258.2,207.5
		c-0.2,0.1-0.2,0-0.2,0.1h-0.2h-0.3c-0.2,0-0.4,0-0.6,0c-0.4,0-0.8-0.1-1.2-0.1c-0.8-0.1-1.6-0.3-2.4-0.5c-1.6-0.4-3.2-0.8-4.8-1.3
		c-3.1-1.1-6.2-2.3-9.2-3.6s-6-2.4-9.1-3.5c-1.6-0.5-3.1-1-4.6-1.4c-0.8-0.2-1.6-0.4-2.3-0.6c-0.7-0.2-1.6-0.3-2.3-0.4l-0.9-0.1
		l-0.2-0.9c-0.5-2.5-0.9-5-1.4-7.5s-0.9-5-1.3-7.5l-0.1-0.7l0.6-0.4c2-1.5,4-3.5,4.5-5.7c0.1-0.2,0.1-0.7,0.2-1l0.2-1
		c0.2-0.7,0.4-1.3,0.6-2c0.4-1.3,0.8-2.7,1.3-4c0.8-2.6,1.8-5.2,2.7-7.8c0.4-1.3,0.9-2.6,1.2-3.9c0.1-0.6,0.3-1.3,0.3-1.9
		c0-0.3,0-0.6-0.1-0.9c0-0.1-0.1-0.2-0.1-0.3s-0.1,0,0-0.1l-0.3-0.9c1.6-0.7,3.3-0.6,4.9-0.5c1.6,0.2,3.1,0.6,4.7,1.1
		c3,1,5.9,2.3,8.6,4.1c1.3,0.9,2.6,1.9,3.7,3c1.1,1.2,2.2,2.5,2.8,4.1c0.7,1.6,0.8,3.4,0.4,5.1c-0.1,0.5-0.2,0.8-0.3,1.2
		s-0.2,0.7-0.3,1.1c-0.1,0.4-0.1,0.7-0.2,1.1l-0.2,1.1c-0.7,6,0,12.3,1.2,18.4c0.6,3.1,1.3,6.1,2.2,9.1c0.4,1.5,0.8,3,1.3,4.5
		l0.7,2.3l0.4,1.1l0.2,0.6l0.1,0.3L258.2,207.5L258.2,207.5C258.2,207.4,258.2,207.5,258.2,207.5z"/>
	<path class="st4" d="M165.7,182.4l-4.2,16.1c0,0-13.6,4.2-27,17.9c0,0-6.9-41-2.2-53.5c4.7-12.4,15.4-16.9,18.8-16.4
		C151.1,146.5,153.4,170.8,165.7,182.4z"/>
	<path class="st2" d="M165.8,182.3c-0.5,2.7-1.1,5.3-1.7,8.1c-0.6,2.7-1.2,5.5-1.9,8.2l-0.1,0.4l-0.4,0.2c-2.4,0.9-4.9,2.1-7.3,3.4
		c-2.4,1.3-4.7,2.7-6.9,4.2s-4.4,3.1-6.5,4.8c-1.1,0.8-2.1,1.7-3.1,2.6c-1,0.9-2,1.8-3,2.7l-1.1,1l-0.2-1.4c-0.5-3.3-0.8-6.7-1.2-10
		l-1.1-10c-0.7-6.7-1.4-13.3-1.6-20c0-1.7-0.1-3.4,0-5.1c0.1-1.7,0.2-3.4,0.5-5.1c0.1-0.8,0.3-1.7,0.5-2.5l0.4-1.3l0.5-1.2l0.5-1.2
		l0.6-1.2c0.4-0.8,0.8-1.5,1.3-2.3c1.8-2.9,4.2-5.6,7-7.6c1.4-1,2.9-1.9,4.6-2.7l1.2-0.5c0.4-0.1,0.8-0.3,1.3-0.4
		c0.9-0.2,1.8-0.4,3-0.2l0.9,0.1l0.1,1c0.1,1.6,0.4,3.2,0.7,4.8c0.2,1.6,0.6,3.2,0.9,4.8c0.7,3.2,1.5,6.3,2.5,9.4
		c1,3.1,2.3,6.1,3.8,8.9c0.8,1.4,1.6,2.9,2.5,4.1C163.6,179.8,164.8,181.1,165.8,182.3z M165.6,182.4l-1.8-1.7
		c-0.6-0.5-1.1-1.2-1.6-1.8s-1.1-1.3-1.5-1.9c-0.5-0.7-1-1.3-1.4-2.1c-1.7-2.8-3.2-5.8-4.5-8.9c-1.2-3.1-2.2-6.3-3-9.5
		s-1.5-6.5-1.8-9.8l1,1.1c-0.5-0.1-1.3,0.1-2,0.2c-0.4,0.1-0.7,0.2-1.1,0.4l-1.1,0.4c-1.5,0.6-2.8,1.5-4.1,2.4s-2.5,2-3.6,3.1
		c-0.5,0.6-1.1,1.2-1.6,1.8s-1,1.3-1.4,1.9s-0.9,1.3-1.2,2.1l-0.6,1.1l-0.5,1.1l-0.5,1.1l-0.4,1.1c-0.2,0.8-0.4,1.5-0.6,2.3
		c-0.6,3.2-0.8,6.5-0.9,9.8c-0.2,6.6,0.1,13.3,0.8,20c0.3,3.3,0.7,6.6,1.3,9.9c0.5,3.3,1.1,6.6,1.7,9.8l-1.3-0.4
		c1.9-2,3.8-4,5.9-5.8c2.1-1.8,4.3-3.5,6.6-5s4.7-2.9,7.1-4.2c2.5-1.2,5-2.4,7.7-3.2l-0.5,0.6c0.7-2.6,1.5-5.2,2.3-7.9
		C163.9,187.8,164.7,185.1,165.6,182.4z"/>
	<path class="st4" d="M165.7,182.4c0,0-4.7,21.5-8.4,28.7c0,0,24.3-6.9,33.8,6.2c0,0,0.9-5.4,2.9-8.6
		C194,208.6,169.1,186.2,165.7,182.4z"/>
	<path class="st2" d="M165.7,182.5c0,0.1,0.1,0.1,0,0.1v0.2l-0.1,0.5l-0.1,0.9l-0.3,1.8c-0.2,1.2-0.4,2.5-0.7,3.7
		c-0.5,2.4-1,4.9-1.6,7.3c-0.6,2.4-1.3,4.8-2,7.3c-0.8,2.4-1.6,4.8-2.9,7.1l-1.1-1.3c3-0.7,6.1-1,9.1-1.2s6.1-0.2,9.2,0.1
		c1.5,0.1,3,0.4,4.6,0.7c1.5,0.3,3,0.7,4.5,1.3s2.9,1.3,4.1,2.3c1.3,1,2.4,2.1,3.4,3.3L190,217c0.1-0.8,0.3-1.6,0.4-2.3
		c0.2-0.8,0.4-1.5,0.6-2.3c0.5-1.5,1-3,1.9-4.5l0.2,1.5c-2.4-2.1-4.8-4.2-7.2-6.4s-4.7-4.4-7-6.6c-2.3-2.2-4.6-4.5-6.9-6.8
		c-1.1-1.2-2.2-2.3-3.3-3.5c-0.5-0.6-1.1-1.2-1.6-1.8c-0.2-0.3-0.6-0.6-0.8-0.9C166.1,183.1,166,182.8,165.7,182.5z M165.6,182.2
		l7.4,6.3c2.4,2.1,4.9,4.2,7.3,6.3c2.4,2.1,4.8,4.2,7.3,6.4c2.4,2.2,4.8,4.3,7.1,6.5l0.7,0.7l-0.5,0.8c-0.7,1.1-1.3,2.5-1.8,3.9
		c-0.2,0.7-0.5,1.4-0.6,2.1c-0.2,0.7-0.4,1.5-0.5,2.2l-0.5,2.3l-1.3-1.8c-0.8-1.2-1.8-2.2-2.9-3.2c-1.1-1-2.3-1.7-3.6-2.4
		c-2.6-1.3-5.6-2.1-8.5-2.4c-3-0.4-6-0.2-9,0.2s-5.9,1.1-8.7,1.9l-1.8,0.6l0.8-1.8l0.7-1.7l0.6-1.7l0.6-1.7l0.6-1.8
		c0.8-2.3,1.5-4.7,2.2-7.1l2.2-7.1l1.1-3.6l0.6-1.8l0.3-0.9l0.1-0.5l0.1-0.2C165.5,182.5,165.6,182.3,165.6,182.2z"/>
	<path class="st2" d="M218.2,180c-1.2,2-2.6,3.8-4,5.6c-0.7,0.9-1.5,1.8-2.2,2.6s-1.6,1.7-2.4,2.5c-1.7,1.6-3.5,2.9-5.2,4.5
		c-0.4,0.4-0.8,0.8-1.3,1.2c-0.4,0.4-0.8,0.8-1.2,1.2s-0.8,0.8-1.1,1.3s-0.7,0.9-1,1.4c-2.4,3.8-4.3,7.9-5.8,12.1
		c-1.6,4.2-2.9,8.5-3.3,13h-0.2c-0.6-2.3-0.6-4.7-0.4-7c0.2-2.3,0.8-4.6,1.5-6.9c0.7-2.2,1.8-4.4,2.9-6.4c0.6-1,1.2-2,1.9-3
		c0.4-0.5,0.7-0.9,1.1-1.4c0.4-0.5,0.8-0.9,1.2-1.3c0.8-0.8,1.6-1.7,2.5-2.4c0.8-0.8,1.7-1.5,2.5-2.3c1.6-1.6,2.9-3.5,4.4-5.3
		c0.7-0.9,1.5-1.7,2.3-2.5s1.6-1.6,2.4-2.4c1.7-1.6,3.3-3.1,5.2-4.6L218.2,180z"/>
	<path class="st2" d="M196.2,257.4c-0.7-3.1-1.2-6.2-1.7-9.3c-0.4-3.1-0.7-6.2-1-9.4c-0.5-6.3,0-12.6,0.8-18.8
		c0.2-1.6,0.5-3.1,0.9-4.7c0.1-0.4,0.2-0.8,0.4-1.1c0.1-0.4,0.3-0.7,0.5-1.1l0.5-1.1l0.5-1.1c0.4-0.7,0.8-1.4,1.2-2.1
		c0.2-0.4,0.5-0.7,0.7-1l0.4-0.5l0.4-0.5c1-1.3,2.3-2.4,3.7-3.3c1.4-0.9,3-1.5,4.6-1.9s3.2-0.6,4.8-0.7c3.2-0.2,6.4,0,9.6,0.4
		l-1.3,1.4c-0.7-3.8-1.3-7.6-1.9-11.4c-0.3-1.9-0.5-3.8-0.8-5.7c-0.2-1.9-0.5-3.8-0.6-5.8h0.2c0.6,1.9,1,3.7,1.6,5.6
		c0.5,1.9,1,3.7,1.4,5.6c0.9,3.7,1.7,7.5,2.5,11.2l0.3,1.6l-1.7-0.2c-3.1-0.3-6.1-0.6-9.1-0.5c-1.5,0-3,0.2-4.5,0.5
		c-0.4,0.1-0.7,0.2-1.1,0.3c-0.4,0.1-0.7,0.2-1.1,0.3l-1,0.4l-1,0.5c-2.6,1.3-4.8,3.5-6.4,6.1l-0.6,1l-0.6,1c-0.2,0.4-0.4,0.7-0.5,1
		c-0.2,0.4-0.3,0.7-0.4,1.1c-0.5,1.5-0.7,3-0.9,4.5c-0.4,3.1-0.2,6.2-0.1,9.3c0.2,3.1,0.4,6.2,0.5,9.3c0.3,6.2,0.7,12.5,0.8,18.7
		L196.2,257.4z"/>
	<path class="st2" d="M204.5,237.2c-1.2,0-2.5-0.5-3.4-1.3c-1-0.9-1.6-2.1-1.6-3.3c0-1.7,0.5-3,1.5-4c0.8-0.8,1.9-1.3,3.1-1.2
		c3.3,0,5.3,2.1,5.3,5.1c0,2.8-1.7,4.5-4.5,4.8C204.8,237.2,204.7,237.2,204.5,237.2z M204.1,228.1c-1,0-1.9,0.4-2.5,1
		c-0.8,0.8-1.2,2-1.2,3.5c0,1,0.5,2,1.3,2.8c0.9,0.8,2.1,1.2,3.3,1.1c2.4-0.2,3.8-1.7,3.8-4.1C208.7,229.7,206.9,228.1,204.1,228.1
		L204.1,228.1z"/>
	<path class="st6" d="M169.8,503.2c0.2-14.1,2.2-33.5,2.2-33.5c-54.9,4.3-72.8-3.9-72.8-3.9c-0.6,5-1.1,9.3-1.5,13.2
		C107.2,485.3,135.9,502.3,169.8,503.2z"/>
	<path class="st6" d="M171.9,503.2c39.4,2.1,79.9-5.2,107.1-23.1c-0.5-9.8-0.8-20.1-0.8-20.1s-13.2,1.1-26.1,3.3
		c-29.4,5-78.3,6.3-78.3,6.3c-1.4,16.3-1.9,27.2-2.2,33.5C171.7,503.2,171.8,503.2,171.9,503.2z"/>
	<path class="st1" d="M233.3,95c0,0,6.7-10.5,9.2-10.5s7.1,5,7.1,7.1s-8.8,25.1-10.5,25.1s-5.9,0-5.9,0S230.6,105.5,233.3,95z"/>
	<path class="st1" d="M149,91.1c0,0-5.4-10.8-7.5-10.8c-2,0-6.4,9.3-6.1,14.2c0.4,4.9,6.3,19.6,8,19.6s5.6-3,5.6-3
		S151.9,101.3,149,91.1z"/>
	<path class="st1" d="M151.3,56.3c0,0,2.4,47.2,3.3,49.3c0.8,2.1,11.8,16.3,12.4,17.8c0.6,1.5,1.5,8.9,1.5,8.9s5.7-9.4,6.3-10.2
		c0.6-0.8,14.8-2.8,18.9-2.8c4.1,0,16,3.1,18.6,4.1s5.6,8.8,5.6,8.8s14-26.3,14.3-30.6c0.2-4.3,0-40.4,0-40.4s-23.3-7.6-38.3-7.6
		C178.9,53.7,151.3,56.3,151.3,56.3z"/>
	<path class="st2" d="M152,55.9c0,0-4,1.8-5.6,3s1.8,63.6,1.8,64.5s17.4,25.5,35.5,45.7c1.8,2,19.4,1.5,22.6,0
		c3.3-1.5,26.6-42.1,28.8-48.2s1-53.9,0-56.5c-1-2.5-5.1-3.2-5.1-3.2s0.1,40.4-1.2,45.6c-1.3,5.1-10.6,25.3-10.6,25.3
		s-4.4-10.4-6.3-11c-1.9-0.6-14.8-2.5-17.1-2.5c-2.2,0-17.9,2.1-19.5,2.8c-1.6,0.6-6.4,7.3-6.4,7.3s-1.8-9.6-3.4-10.2
		s-10.9-9.6-10.5-16C155.2,96,152,55.9,152,55.9z"/>
	<path class="st1" d="M172.6,134.7c0,0,4.1-6.4,5-6.7c0.8-0.2,14.2,3.4,16.3,3.3c2.2-0.1,13.8-3.8,15.3-3.3c1.5,0.4,4.7,5,5,6.7
		c0.2,1.7-9.9,12.9-13.8,12.9c-3.9,0-7-5-7-5s-3.3,5.4-6.1,5C184.4,147.3,176.3,140.9,172.6,134.7z"/>
	<path class="st3" d="M135.7,69.4c0,0,5.7-6.7,10.6-10.5c0,0-0.5,3.6-0.4,10.5s0.2,7.4,0.2,7.4S138,71.6,135.7,69.4z"/>
	<path class="st3" d="M235,64.5c0,0,12.1,9.8,12.5,10.7c0.4,0.9-11.6,5.1-11.6,5.1L235,64.5z"/>
	<path class="st7" d="M136.8,63.3c0,0,4.6-59.8,57.9-59.2s49.7,64.3,49.7,64.3s-8.4-8.8-11.4-8.8s-36.5-8.2-39.8-8.2
		s-33.1,2.4-34.1,2.4s-12,1.8-12,1.8L136.8,63.3z"/>
	<path class="st2" d="M244.8,69.4l-0.6-0.6c-2.3-2.4-8.8-8.7-11.1-8.7c-1.5,0-10-1.9-19-3.9c-9.4-2.1-19.1-4.3-20.8-4.3
		c-2.2,0-15.8,1-24.8,1.7c-5.7,0.4-9,0.7-9.3,0.7c-0.8,0-8.7,1.2-11.8,1.7l-10.9,8.2l0.1-0.8c0-0.1,1.2-15.2,9-30
		c7.2-13.7,21.6-29.9,49.3-29.6C209.1,4,220.6,8.6,229,17.7c17.5,18.8,15.9,50.6,15.9,50.9L244.8,69.4z M193.3,51
		c1.8,0,11.5,2.2,21,4.3c8.6,1.9,17.4,3.9,18.8,3.9c2.7,0,8.9,6.1,11,8.3c0.1-5.3-0.1-32.6-15.7-49.4C220,9.3,208.8,4.7,194.8,4.6
		c-27.3-0.3-41.5,15.7-48.6,29.1c-6.7,12.6-8.5,25.4-8.8,28.8l9.7-7.3h0.1c0.5-0.1,11-1.8,12-1.8c0.3,0,4.5-0.3,9.3-0.7
		C178,52,191.1,51,193.3,51z"/>
	<path class="st7" d="M163.2,51.1c0,0,1.3-14.3,2.2-16.6c1-2.2,15.6-3.5,20.2-10.8s4-19.6,4-19.6s2-2.8,6.9-2.6
		c4.9,0.1,5.2,3.1,5.2,3.1s-0.3,18.1,5,21.7s15.5,9,16.8,10c1.2,1,0,18.6,0,18.6s-19-5.2-29.1-5.4C184.2,49.4,176,49.3,163.2,51.1z"
		/>
	<path class="st2" d="M163.1,51.1c-0.1-0.3,0-0.4,0-0.6V50v-1l0.1-1.9l0.2-3.8c0.2-2.5,0.4-5,0.8-7.5c0-0.3,0.1-0.6,0.2-1
		c0-0.1,0.1-0.4,0.1-0.5l0.1-0.2c0.1-0.1,0.1-0.2,0.2-0.4c0.3-0.4,0.6-0.6,1-0.8c0.3-0.2,0.6-0.3,0.9-0.5c1.2-0.5,2.4-0.9,3.6-1.3
		c2.4-0.8,4.7-1.6,7-2.6c2.2-1,4.4-2.2,6-3.9c0.4-0.4,0.8-0.8,1.1-1.3c0.4-0.4,0.6-1,0.9-1.5c0.3-0.5,0.5-1.1,0.8-1.6
		c0.2-0.6,0.4-1.1,0.6-1.7c1.5-4.6,2.1-9.6,2.1-14.5V3.9l0.1-0.1c0.5-0.6,1-1,1.5-1.3c0.5-0.4,1.1-0.6,1.7-0.8
		c1.2-0.4,2.4-0.6,3.7-0.6c1.2,0,2.5,0.2,3.6,0.7c1.2,0.5,2.2,1.5,2.5,2.9l0,0c0,2.5,0.1,5.1,0.3,7.6s0.6,5,1.3,7.5
		c0.4,1.2,0.7,2.4,1.3,3.5c0.5,1.1,1.2,2.1,2.2,2.7c2.1,1.3,4.3,2.6,6.5,3.8l6.7,3.6c1.1,0.6,2.2,1.2,3.4,1.9l0.2,0.2l0.1,0.1
		l0.2,0.2c0.2,0.2,0.2,0.3,0.2,0.5c0.1,0.1,0.1,0.2,0.1,0.3c0.1,0.4,0.1,0.7,0.2,1.1c0.1,0.7,0.1,1.3,0.1,2
		c0.1,5.2-0.1,10.3-0.4,15.4l-0.1,1.5l-1.5-0.4c-4.9-1.3-9.8-2.4-14.8-3.5c-2.5-0.5-5-1-7.4-1.3c-2.5-0.4-5-0.6-7.4-0.7
		c-2.5-0.1-5.1-0.1-7.6-0.2c-2.5,0-5.1-0.1-7.6,0s-5.1,0.2-7.6,0.3c-1.3,0.1-2.5,0.1-3.8,0.2C165.8,51,164.4,51.1,163.1,51.1z
		 M163.3,51l1.8-0.4c0.6-0.1,1.2-0.2,1.8-0.3c1.3-0.2,2.5-0.4,3.8-0.5c2.5-0.4,5.1-0.6,7.6-0.8s5.1-0.3,7.6-0.4
		c2.5-0.1,5.1-0.1,7.6-0.1c5.2,0,10.3,0.7,15.3,1.7c2.5,0.5,5,1,7.5,1.6s5,1.2,7.4,1.9l-1.5,1.1c0.4-5,0.7-10.1,0.7-15.1
		c0-0.6,0-1.2-0.1-1.8c0-0.3-0.1-0.6-0.1-0.8V37c0,0,0-0.1,0,0l0.1,0.1l0-0.1l-0.1-0.1c-1-0.6-2.1-1.3-3.2-1.9
		c-2.2-1.3-4.4-2.6-6.5-3.9c-2.2-1.3-4.3-2.7-6.4-4.2c-1.2-0.8-1.9-2.1-2.4-3.3c-0.5-1.2-0.9-2.5-1.2-3.7c-1.1-5-1.4-10.2-1.5-15.2
		l0,0c-0.1-0.4-0.4-1-0.7-1.3c-0.4-0.4-0.8-0.7-1.3-0.8c-1-0.4-2.2-0.5-3.3-0.5s-2.3,0.2-3.3,0.7c-0.5,0.2-1,0.5-1.5,0.8
		c-0.4,0.3-0.9,0.7-1.1,1.1l0.1-0.4c0.1,2.6,0.1,5.1-0.1,7.7c-0.2,2.5-0.7,5.1-1.4,7.6c-0.2,0.6-0.4,1.2-0.7,1.8
		c-0.3,0.6-0.5,1.2-0.8,1.8c-0.4,0.6-0.6,1.2-1,1.7c-0.4,0.6-0.8,1.1-1.3,1.6c-1.9,1.9-4.3,3.1-6.7,4.2c-2.4,1-4.8,1.7-7.2,2.5
		c-1.2,0.4-2.4,0.7-3.5,1.1c-0.5,0.2-1.1,0.5-1.3,0.7l0,0l-0.1,0.2c0,0.1-0.1,0.2-0.1,0.4c-0.1,0.3-0.1,0.6-0.2,0.9
		c-0.5,2.4-0.9,4.9-1.3,7.4l-0.6,3.7l-0.3,1.9l-0.1,0.9l-0.1,0.5C163.3,50.8,163.4,51,163.3,51z"/>
	<path class="st7" d="M180.7,5.5c0,0-2.8,21.8-3.4,24.3c0,0,6.5-2.6,8.2-6s4-7.1,4-19.6C189.6,4.1,184,4.7,180.7,5.5z"/>
	<path class="st2" d="M180.8,5.6c0.1,0.2,0,0.5,0,0.7v0.8c0,0.5,0,1,0,1.6c0,1-0.1,2.1-0.1,3.1c-0.1,2.1-0.3,4.1-0.6,6.1
		c-0.2,2-0.6,4-1.1,6s-0.9,4-1.3,6l-0.5-0.4c2.3-0.9,4.6-2.3,6.2-4c0.4-0.4,0.8-0.9,1.1-1.4c0.1-0.2,0.2-0.5,0.4-0.8l0.4-0.9
		c0.5-1.2,1-2.3,1.3-3.5c0.7-2.3,1.1-4.8,1.4-7.3c0.3-2.5,0.5-5,0.6-7.5l1.1,1l-4.5,0.2L183,5.4C182.3,5.5,181.5,5.6,180.8,5.6z
		 M180.7,5.4c0.8-0.4,1.5-0.6,2.2-0.8c0.7-0.2,1.5-0.4,2.2-0.6c1.5-0.4,2.9-0.6,4.5-0.9l1-0.2l0.1,1.1c0.1,2.6,0.1,5.2-0.1,7.8
		c-0.3,2.6-0.8,5.2-1.8,7.7c-0.5,1.2-1.1,2.4-1.7,3.6l-0.5,0.8c-0.2,0.3-0.4,0.6-0.6,0.9c-0.5,0.5-1,1-1.5,1.5
		c-1.1,0.8-2.2,1.5-3.3,2.1c-1.2,0.6-2.3,1.2-3.5,1.7l-0.6,0.2l0.1-0.7c0.3-2,0.4-4,0.5-6.1s0.3-4.1,0.6-6.1s0.6-4,1.1-6
		c0.2-1,0.4-2,0.6-3c0.1-0.5,0.2-1,0.4-1.5l0.2-0.7C180.5,6,180.5,5.8,180.7,5.4z"/>
	<path class="st7" d="M212.9,7.3l1,23.3c0,0-7.4-4-8.3-5.5c-0.9-1.5-4.2-7.1-3.9-20.6C201.8,4.6,206.5,4.9,212.9,7.3z"/>
	<path class="st2" d="M213,7.3c0.4,1.8,0.6,3.6,0.8,5.6c0.1,1,0.2,1.9,0.3,2.9s0.2,1.9,0.2,3c0.1,2,0.2,4,0.2,6s-0.2,4-0.2,6v0.8
		l-0.6-0.4c-2.2-1.4-4.5-2.7-6.7-4c-0.6-0.4-1.1-0.7-1.7-1.3l-0.2-0.2l-0.1-0.2l-0.3-0.4c-0.2-0.3-0.4-0.6-0.5-0.9
		c-0.7-1.2-1.2-2.4-1.7-3.7c-0.8-2.5-1.3-5.2-1.7-7.8c-0.3-2.7-0.3-5.3-0.1-7.9l0.1-1.2l1.1,0.1c1.1,0.1,2,0.3,2.9,0.6
		c1,0.2,1.9,0.5,2.8,0.8c0.9,0.3,1.8,0.6,2.7,1.1c0.5,0.2,0.9,0.4,1.3,0.6C212.1,6.8,212.6,7.1,213,7.3z M212.8,7.4
		c-0.5-0.1-0.9-0.2-1.4-0.3c-0.5-0.1-1-0.2-1.4-0.3c-1-0.2-1.9-0.4-2.8-0.5c-0.9-0.1-1.9-0.3-2.8-0.4c-0.9-0.1-1.9-0.2-2.8-0.2
		l1.2-1.1c0.1,2.6,0.2,5.1,0.4,7.6s0.5,5.1,1.1,7.5c0.3,1.2,0.7,2.4,1.1,3.6c0.1,0.3,0.2,0.6,0.4,0.8l0.2,0.4l0.1,0.2l0.1,0.1
		c0.3,0.4,0.8,0.8,1.3,1.2c2,1.6,4.2,2.9,6.6,4.1l-0.6,0.4c-0.2-1.9-0.5-3.8-0.7-5.7s-0.3-3.7-0.3-5.7c0-1,0-1.9,0-2.9
		s0-1.9,0.1-2.9C212.6,11.6,212.7,9.5,212.8,7.4z"/>
	<path class="st7" d="M145.9,81.7c0,0-15.6-9.4-15.1-12.2c0.4-2.8,13.9-15.9,16.2-16.1c2.3-0.2,28.6-5,47.4-3.8
		c19.5,1.2,41,9.1,41,9.1s17.6,15.1,18.1,17c0.6,1.9-16.5,9.4-16.5,9.4l-0.1-4.8c0,0,10.5-4.4,10.5-5s-14.6-12.9-15.9-13.1
		c-1.3-0.2-30.4-7.9-38.2-8.1c-10-0.3-42.4,2.3-44.5,3.2s-13.1,11.6-13.1,12.2s10,7.4,10,7.4L145.9,81.7z"/>
	<path class="st2" d="M145.9,81.7c-2.4-1.4-4.8-2.8-7.1-4.3s-4.6-3.1-6.7-5c-0.5-0.5-1-1-1.5-1.6c-0.2-0.3-0.5-0.7-0.4-1.3
		c0.1-0.6,0.2-0.8,0.4-1.2c0.7-1.3,1.6-2.4,2.5-3.5c1.8-2.2,3.7-4.2,5.6-6.2c1-1,2-2,3-2.9c1.1-1,2.1-1.9,3.3-2.7
		c0.3-0.2,0.6-0.4,1.1-0.6c0.1,0,0.2-0.1,0.4-0.1c0.1,0,0.2,0,0.3,0h0.1l0.5-0.1l2.1-0.3l4.1-0.6c5.5-0.8,11-1.5,16.5-2
		s11.1-0.9,16.7-1c5.6-0.1,11.2,0.3,16.7,1.2c5.5,0.8,11,2,16.3,3.4c5.4,1.4,10.7,3,16,4.8l0.2,0.1l0.2,0.1c2.8,2.4,5.6,4.8,8.3,7.3
		c2.8,2.5,5.5,4.9,8.1,7.6c0.3,0.4,0.7,0.7,1,1.1c0.2,0.2,0.3,0.4,0.5,0.6s0.3,0.4,0.5,0.8c0,0.1,0.1,0.1,0.1,0.2s0,0.2,0.1,0.4
		c0,0.2,0,0.4-0.1,0.6c-0.1,0.3-0.2,0.5-0.4,0.6c-0.2,0.3-0.4,0.5-0.6,0.7c-0.4,0.4-0.8,0.6-1.2,0.9c-1.6,1.1-3.3,1.9-4.9,2.8
		c-3.3,1.7-6.7,3.3-10,4.8L236,87v-1.7l-0.1-4.8v-0.8l0.7-0.3c2.8-1.2,5.6-2.4,8.3-3.7c0.3-0.2,0.7-0.3,1-0.5l0.5-0.2
		c0.1-0.1,0.3-0.2,0.3-0.2s0,0-0.1,0.1c0,0.1,0,0.1-0.1,0.2s-0.1,0.3-0.1,0.5c0,0.1,0.1,0.3,0.1,0.4c0,0,0,0,0,0.1c0.1,0.1,0,0,0,0
		c-0.1-0.1-0.2-0.2-0.4-0.4c-0.2-0.2-0.5-0.5-0.8-0.7c-1.1-1-2.3-2-3.4-3c-2.3-2-4.7-3.9-7-5.8c-0.6-0.5-1.2-0.9-1.8-1.4l-0.9-0.6
		c-0.3-0.2-0.6-0.4-0.8-0.5l-2-0.5l-2.2-0.6c-5.9-1.5-11.9-2.9-17.8-4.2c-3-0.7-5.9-1.3-8.9-1.8c-1.5-0.3-3-0.5-4.5-0.7
		s-2.9-0.2-4.4-0.2c-6,0.1-12.1,0.4-18.2,0.8c-3,0.2-6.1,0.4-9.1,0.7c-3,0.2-6,0.6-9.1,0.8c-1.5,0.1-3,0.2-4.5,0.4
		c-0.4,0-0.7,0.1-1.1,0.1c-0.1,0-0.1,0-0.2,0c-0.1,0-0.1,0-0.1,0c-0.1,0-0.2,0.1-0.4,0.2c-0.6,0.4-1.2,0.8-1.8,1.3
		c-2.3,1.9-4.6,3.9-6.9,6c-1.1,1-2.2,2.1-3.3,3.2c-0.2,0.2-0.5,0.6-0.7,0.8c0,0,0,0,0-0.1s0-0.2,0-0.2c0-0.1,0,0,0,0
		s0.1,0.1,0.1,0.2c0.1,0.1,0.2,0.2,0.4,0.4c0.6,0.5,1.2,1,1.8,1.4c2.4,1.8,4.9,3.6,7.4,5.4h0.1v0.1
		C145.9,78.5,145.9,80.1,145.9,81.7z M145.9,81.7c-0.1-1.7-0.2-3.3-0.3-4.9l0.1,0.1c-2.6-1.6-5.2-3.3-7.7-5
		c-0.6-0.4-1.3-0.9-1.9-1.4c-0.1-0.1-0.3-0.2-0.5-0.4c-0.1-0.1-0.1-0.1-0.2-0.2c0-0.1-0.1-0.1-0.1-0.2s-0.1-0.3,0-0.4
		c0-0.1,0-0.1,0.1-0.2c0.3-0.5,0.5-0.7,0.8-1c1-1.2,2.1-2.3,3.1-3.4c2.1-2.2,4.3-4.4,6.6-6.4c0.6-0.5,1.2-1,1.8-1.5
		c0.2-0.1,0.4-0.2,0.6-0.4c0.2-0.1,0.6-0.2,0.8-0.3c0.4-0.1,0.8-0.2,1.2-0.2c1.6-0.3,3-0.5,4.6-0.7c3-0.4,6.1-0.6,9.2-0.8
		c3-0.2,6.1-0.5,9.2-0.7c6.1-0.4,12.2-0.8,18.4-0.8c0.8,0,1.5,0,2.3,0s1.6,0.1,2.4,0.2c1.6,0.2,3.1,0.5,4.6,0.7c3,0.6,6,1.2,9,1.8
		c6,1.3,11.9,2.8,17.9,4.2l2.2,0.6l1.1,0.3l0.5,0.1h0.2c0,0,0.3,0.1,0.4,0.1c0.1,0,0.2,0.1,0.2,0.1c0.5,0.2,0.8,0.5,1.1,0.7l1,0.7
		c0.6,0.5,1.2,0.9,1.8,1.4c2.4,1.9,4.8,3.9,7.1,5.8c1.2,1,2.3,2,3.5,3c0.3,0.2,0.6,0.5,0.8,0.8c0.1,0.1,0.3,0.3,0.5,0.5
		c0.1,0.1,0.1,0.1,0.3,0.4l0.1,0.1c0,0.1,0.1,0.3,0.1,0.4s0,0.4-0.1,0.5s-0.1,0.2-0.1,0.2c-0.2,0.2-0.2,0.3-0.3,0.4
		c-0.3,0.2-0.5,0.3-0.6,0.4l-0.5,0.3c-0.4,0.2-0.7,0.4-1.1,0.5c-2.8,1.3-5.6,2.5-8.4,3.7l0.7-1.1l0.1,4.8l-1.6-1
		c3.3-1.5,6.7-3,9.9-4.7c1.6-0.8,3.2-1.7,4.7-2.7c0.4-0.2,0.7-0.5,1-0.7c0.1-0.1,0.2-0.2,0.3-0.3c0,0,0-0.1,0,0c0,0,0,0.1,0,0.2
		s0,0.1,0,0.2c0,0,0,0,0,0.1s-0.1-0.2-0.2-0.3c-0.1-0.1-0.2-0.3-0.4-0.5c-0.3-0.3-0.6-0.6-0.9-1c-2.5-2.6-5.3-5-8-7.5
		c-2.7-2.4-5.5-4.9-8.3-7.3l0.4,0.2c-5.1-1.8-10.4-3.4-15.7-4.8c-5.3-1.4-10.7-2.5-16.1-3.3c-10.8-1.7-21.9-1.2-32.8-0.2
		c-5.5,0.5-11,1.2-16.4,2c-1.4,0.2-2.7,0.4-4.1,0.6l-2.1,0.3l-0.6,0.1h-0.1l0,0c0,0,0,0-0.1,0c-0.2,0.1-0.5,0.2-0.7,0.4
		c-1.1,0.7-2.2,1.5-3.2,2.4c-1.1,0.8-2.1,1.8-3.1,2.7c-2,1.8-4,3.7-5.8,5.8c-0.9,1-1.8,2.1-2.5,3.1c-0.2,0.2-0.3,0.6-0.3,0.7
		s0.1,0.4,0.2,0.6c0.3,0.5,0.8,1,1.2,1.5c1.9,1.9,4.1,3.6,6.3,5.2C141.3,78.6,143.6,80.1,145.9,81.7z"/>
	<g>
		<path class="st1" d="M122.4,180c0,0-35.4,58.5-38.2,94.5C80.6,322,78.6,348.2,45.4,387c-25.8,30.2-34.4-14-27.7-64.8
			s66.7-143.7,68.6-152.1C86.3,170.2,102.1,191.9,122.4,180z"/>
		<path class="st2" d="M122.5,179.9c0,0.1,0,0.3-0.1,0.4l-0.1,0.2l-0.3,0.5l-0.4,0.8l-1,1.7l-1.9,3.3c-1.2,2.2-2.4,4.5-3.6,6.8
			c-2.3,4.5-4.6,9.1-7,13.7c-4.5,9.2-8.7,18.5-12.4,28c-3.8,9.4-7,19.1-9.1,29.1c-0.2,1.3-0.5,2.5-0.7,3.7c-0.2,1.3-0.4,2.5-0.5,3.8
			c-0.3,2.5-0.4,5.1-0.6,7.6l-0.6,7.6c-0.2,2.5-0.4,5.1-0.7,7.7c-0.9,10.2-2.3,20.4-4.6,30.5c-2.3,10.1-5.6,19.9-10.4,28.9
			c-4.6,9.2-10.4,17.7-16.7,25.8c-1.5,2-3.2,3.9-4.8,6c-1.5,2-3.4,3.9-5.2,5.7c-1.8,1.8-3.9,3.4-6.3,4.6c-1.2,0.5-2.4,1-3.7,1.2
			c-1.3,0.2-2.7,0.1-4-0.3c-1.3-0.4-2.4-1.2-3.4-2.2c-1-1-1.8-2-2.4-3c-1.4-2.2-2.4-4.6-3.2-7.1c-1.6-4.9-2.4-10-3-15.2
			c-1.1-10.4-1-20.7-0.4-31c0.3-5.1,0.8-10.2,1.4-15.4c0.7-5.1,1.6-10.2,3-15.2c0.3-1.3,0.6-2.4,1-3.8c0.4-1.3,0.7-2.4,1.1-3.7
			c0.8-2.4,1.5-4.9,2.4-7.3l1.3-3.6l1.3-3.6c0.9-2.4,1.9-4.8,2.8-7.1c3.9-9.5,8.2-18.8,12.6-28c4.5-9.2,9.2-18.4,14-27.3
			c4.9-9,9.9-18,15-26.9l7.6-13.4c1.3-2.2,2.5-4.5,3.7-6.7c0.6-1.1,1.2-2.2,1.8-3.4c0.3-0.6,0.6-1.1,0.8-1.7
			c0.1-0.3,0.3-0.6,0.3-0.9l0.2-0.8l0.4-1.3l0.8,0.9c2,2.7,4.4,5.1,7.2,7.1c2.7,2.1,5.7,3.9,8.8,5c1.6,0.6,3.3,1,4.9,1.2
			c1.7,0.2,3.4,0.2,5,0.1c1.7-0.2,3.3-0.6,4.9-1.1c0.9-0.3,1.6-0.6,2.4-0.9c0.4-0.1,0.8-0.4,1.2-0.6L122.5,179.9z M122.2,180
			c-0.8,0.5-1.4,0.9-2.1,1.3c-0.8,0.4-1.5,0.8-2.4,1c-1.6,0.6-3.3,1.1-5,1.3c-1.8,0.2-3.5,0.2-5.2,0.1c-1.7-0.2-3.5-0.6-5.1-1
			c-3.3-1-6.4-2.8-9.1-4.8c-2.8-2.1-5.2-4.5-7.5-7.3l1.1-0.2l-0.3,1c-0.2,0.4-0.2,0.6-0.4,1c-0.2,0.6-0.5,1.2-0.8,1.8
			c-0.6,1.1-1.2,2.2-1.8,3.5c-1.2,2.2-2.3,4.5-3.6,6.8c-2.4,4.5-4.9,8.9-7.4,13.5c-4.9,8.9-9.8,18-14.6,27
			c-9.5,18.1-18.7,36.4-26.5,55.2c-1,2.4-2,4.7-2.9,7.1l-1.4,3.5l-1.3,3.5c-0.9,2.4-1.6,4.8-2.4,7.2c-0.4,1.3-0.7,2.4-1.1,3.7
			c-0.4,1.3-0.7,2.4-1,3.7c-1.4,4.9-2.3,9.9-3,14.9c-0.7,5.1-1.2,10.1-1.6,15.1c-0.4,5.1-0.6,10.2-0.7,15.3c0,5.1,0.2,10.2,0.6,15.3
			c0.4,5.1,1.3,10.1,2.8,14.9c0.7,2.4,1.7,4.8,2.9,6.9c1.3,2.1,3,4,5.3,4.9c1.2,0.4,2.4,0.5,3.6,0.4c1.2-0.2,2.4-0.5,3.5-1.2
			c2.3-1.1,4.3-2.7,6.1-4.4c1.9-1.7,3.5-3.6,5.2-5.6c1.6-2,3.3-3.9,4.9-5.9c6.3-8,11.9-16.6,16.4-25.7c4.5-9.2,7.6-18.9,9.7-28.8
			c2.1-10,3.2-20.2,4.1-30.2c0.2-2.5,0.4-5.1,0.6-7.6l0.6-7.6c0.2-2.5,0.4-5.1,0.6-7.7c0.1-1.3,0.4-2.6,0.5-3.9
			c0.2-1.3,0.5-2.6,0.7-3.8c2.1-10.1,5.5-19.8,9.4-29.4c3.9-9.5,8.3-18.7,12.9-27.9c2.4-4.6,4.8-9,7.3-13.5c1.3-2.2,2.5-4.5,3.8-6.7
			l2-3.3l1-1.7l0.5-0.8l0.3-0.5l0.1-0.2C122.1,180,122.1,180.1,122.2,180z"/>
		<g>
			<polygon class="st8" points="114.7,125.8 107.4,132.2 107.4,123.6 115,123.8 			"/>
			<g>
				<g>
					<path class="st8" d="M120.1,126.6c0,0,10.4-38.8,5.4-45.4c-5-6.6-11.8,30.2-18.3,42.3"/>
				</g>
				<g>
					<g>
						<g>
							<g>
								<defs>
									<path id="SVGID_2_" d="M120.1,126.6c0,0,10.4-38.8,5.4-45.4c-5-6.6-11.8,30.2-18.3,42.3"/>
								</defs>
								<clipPath id="SVGID_3_">
									<use xlink:href="#SVGID_2_"  style="overflow:visible;"/>
								</clipPath>
							</g>
						</g>
					</g>
				</g>
				<g>
					<path class="st2" d="M119.9,126.6c0.6-3.9,1.4-7.8,2-11.7c0.7-3.8,1.5-7.8,2.3-11.6c0.8-3.8,1.8-7.7,2.1-11.6
						c0.2-1.9,0.2-3.9,0-5.9c0-1-0.3-1.9-0.6-2.8c-0.1-0.2-0.1-0.4-0.3-0.7c-0.1-0.2-0.1-0.4-0.3-0.6c-0.1-0.3-0.5-0.7-0.8-0.7
						c-0.2,0-0.4,0-0.8,0.3c-0.2,0.3-0.6,0.6-0.8,1c-0.5,0.7-0.9,1.7-1.2,2.5c-0.8,1.8-1.4,3.6-2,5.5c-1.2,3.8-2.3,7.5-3.4,11.3
						c-1.2,3.8-2.4,7.5-3.8,11.2c-1.4,3.7-2.9,7.4-5.1,10.8l-0.2-0.1c0.8-1.8,1.3-3.7,1.9-5.6c0.5-1.8,1.1-3.8,1.6-5.7
						c1-3.8,2.1-7.6,3.2-11.3c1.1-3.8,2.3-7.6,3.7-11.2c0.7-1.8,1.4-3.7,2.4-5.5c0.5-0.9,1-1.8,1.6-2.7c0.3-0.5,0.8-0.9,1.2-1.2
						c0.2-0.2,0.6-0.3,0.9-0.5c0.4,0,0.8,0,1.1,0.2c0.7,0.3,1,0.9,1.3,1.3c0.2,0.2,0.3,0.6,0.4,0.8c0.1,0.2,0.1,0.5,0.3,0.8
						c0.1,0.5,0.2,1.1,0.3,1.6s0.1,1,0.2,1.5c0.1,2,0.1,4-0.1,6c-0.2,4-0.5,7.9-0.9,11.9c-0.3,2-0.6,3.9-1,5.8
						c-0.4,2-0.8,3.9-1.3,5.8c-1,3.9-2.1,7.7-3.6,11.4L119.9,126.6z"/>
				</g>
			</g>
			<g>
				<path class="st8" d="M107.9,131.4c0,0,5.9-31.3,1.6-36.9c-4.3-5.7-14.2,32.2-18.1,42.6c-3.9,10.3-10.4,18.8-7.1,33.1
					c1.6,6.5,11.8,13.3,19.2,14.5s13.8-1.2,16.7-3.1c2.8-1.9,5.2,1.3,9.2,1.6c8,0.5,14.7-7.7,19.5-15.6c4.8-7.8,11.9-9.3,14.6-13.8
					c2.7-4.5,10.2-6.3,10.7-10.1c0.4-3.8-10.2-6.3-19.7,2.6c-9.3,8.9-16,7.5-16.3-0.4c-0.3-8.1,4.2-20.8,8.3-20.9
					c4.2-0.1,7.6,4.5,7.2,7.2c-0.3,2.8,1.5,12.4,9.5,12.2c8-0.3-0.8-13.2-0.2-19.4c0.5-6.2-1.5-5.4-3.7-7.7c-2.4-2.3-9.7-12.7-13-12
					c-3.4,0.7-11.1,15.9-14,16.1c-3,0.1,15.1-38.9,9-43.9c-6.1-5-9.3,18.8-20,39.9"/>
				<g>
					<g>
						<g>
							<g>
								<defs>
									<path id="SVGID_4_" d="M107.9,131.4c0,0,5.9-31.3,1.6-36.9c-4.3-5.7-14.2,32.2-18.1,42.6c-3.9,10.3-10.4,18.8-7.1,33.1
										c1.6,6.5,11.8,13.3,19.2,14.5s13.8-1.2,16.7-3.1c2.8-1.9,5.2,1.3,9.2,1.6c8,0.5,14.7-7.7,19.5-15.6
										c4.8-7.8,11.9-9.3,14.6-13.8c2.7-4.5,10.2-6.3,10.7-10.1c0.4-3.8-10.2-6.3-19.7,2.6c-9.3,8.9-16,7.5-16.3-0.4
										c-0.3-8.1,4.2-20.8,8.3-20.9c4.2-0.1,7.6,4.5,7.2,7.2c-0.3,2.8,1.5,12.4,9.5,12.2c8-0.3-0.8-13.2-0.2-19.4
										c0.5-6.2-1.5-5.4-3.7-7.7c-2.4-2.3-9.7-12.7-13-12c-3.4,0.7-11.1,15.9-14,16.1c-3,0.1,15.1-38.9,9-43.9
										c-6.1-5-9.3,18.8-20,39.9"/>
								</defs>
								<clipPath id="SVGID_5_">
									<use xlink:href="#SVGID_4_"  style="overflow:visible;"/>
								</clipPath>
							</g>
						</g>
					</g>
					<g>
						<g>
							<g>
								<defs>
									<path id="SVGID_6_" d="M107.9,131.4c0,0,5.9-31.3,1.6-36.9c-4.3-5.7-14.2,32.2-18.1,42.6c-3.9,10.3-10.4,18.8-7.1,33.1
										c1.6,6.5,11.8,13.3,19.2,14.5s13.8-1.2,16.7-3.1c2.8-1.9,5.2,1.3,9.2,1.6c8,0.5,14.7-7.7,19.5-15.6
										c4.8-7.8,11.9-9.3,14.6-13.8c2.7-4.5,10.2-6.3,10.7-10.1c0.4-3.8-10.2-6.3-19.7,2.6c-9.3,8.9-16,7.5-16.3-0.4
										c-0.3-8.1,4.2-20.8,8.3-20.9c4.2-0.1,7.6,4.5,7.2,7.2c-0.3,2.8,1.5,12.4,9.5,12.2c8-0.3-0.8-13.2-0.2-19.4
										c0.5-6.2-1.5-5.4-3.7-7.7c-2.4-2.3-9.7-12.7-13-12c-3.4,0.7-11.1,15.9-14,16.1c-3,0.1,15.1-38.9,9-43.9
										c-6.1-5-9.3,18.8-20,39.9"/>
								</defs>
								<clipPath id="SVGID_7_">
									<use xlink:href="#SVGID_6_"  style="overflow:visible;"/>
								</clipPath>
							</g>
						</g>
					</g>
					<g>
						<g>
							<g>
								<defs>
									<path id="SVGID_8_" d="M107.9,131.4c0,0,5.9-31.3,1.6-36.9c-4.3-5.7-14.2,32.2-18.1,42.6c-3.9,10.3-10.4,18.8-7.1,33.1
										c1.6,6.5,11.8,13.3,19.2,14.5s13.8-1.2,16.7-3.1c2.8-1.9,5.2,1.3,9.2,1.6c8,0.5,14.7-7.7,19.5-15.6
										c4.8-7.8,11.9-9.3,14.6-13.8c2.7-4.5,10.2-6.3,10.7-10.1c0.4-3.8-10.2-6.3-19.7,2.6c-9.3,8.9-16,7.5-16.3-0.4
										c-0.3-8.1,4.2-20.8,8.3-20.9c4.2-0.1,7.6,4.5,7.2,7.2c-0.3,2.8,1.5,12.4,9.5,12.2c8-0.3-0.8-13.2-0.2-19.4
										c0.5-6.2-1.5-5.4-3.7-7.7c-2.4-2.3-9.7-12.7-13-12c-3.4,0.7-11.1,15.9-14,16.1c-3,0.1,15.1-38.9,9-43.9
										c-6.1-5-9.3,18.8-20,39.9"/>
								</defs>
								<clipPath id="SVGID_9_">
									<use xlink:href="#SVGID_8_"  style="overflow:visible;"/>
								</clipPath>
							</g>
						</g>
					</g>
					<g>
						<g>
							<g>
								<defs>
									<path id="SVGID_10_" d="M107.9,131.4c0,0,5.9-31.3,1.6-36.9c-4.3-5.7-14.2,32.2-18.1,42.6c-3.9,10.3-10.4,18.8-7.1,33.1
										c1.6,6.5,11.8,13.3,19.2,14.5s13.8-1.2,16.7-3.1c2.8-1.9,5.2,1.3,9.2,1.6c8,0.5,14.7-7.7,19.5-15.6
										c4.8-7.8,11.9-9.3,14.6-13.8c2.7-4.5,10.2-6.3,10.7-10.1c0.4-3.8-10.2-6.3-19.7,2.6c-9.3,8.9-16,7.5-16.3-0.4
										c-0.3-8.1,4.2-20.8,8.3-20.9c4.2-0.1,7.6,4.5,7.2,7.2c-0.3,2.8,1.5,12.4,9.5,12.2c8-0.3-0.8-13.2-0.2-19.4
										c0.5-6.2-1.5-5.4-3.7-7.7c-2.4-2.3-9.7-12.7-13-12c-3.4,0.7-11.1,15.9-14,16.1c-3,0.1,15.1-38.9,9-43.9
										c-6.1-5-9.3,18.8-20,39.9"/>
								</defs>
								<clipPath id="SVGID_11_">
									<use xlink:href="#SVGID_10_"  style="overflow:visible;"/>
								</clipPath>
							</g>
						</g>
					</g>
					<g>
						<g>
							<g>
								<defs>
									<path id="SVGID_12_" d="M107.9,131.4c0,0,5.9-31.3,1.6-36.9c-4.3-5.7-14.2,32.2-18.1,42.6c-3.9,10.3-10.4,18.8-7.1,33.1
										c1.6,6.5,11.8,13.3,19.2,14.5s13.8-1.2,16.7-3.1c2.8-1.9,5.2,1.3,9.2,1.6c8,0.5,14.7-7.7,19.5-15.6
										c4.8-7.8,11.9-9.3,14.6-13.8c2.7-4.5,10.2-6.3,10.7-10.1c0.4-3.8-10.2-6.3-19.7,2.6c-9.3,8.9-16,7.5-16.3-0.4
										c-0.3-8.1,4.2-20.8,8.3-20.9c4.2-0.1,7.6,4.5,7.2,7.2c-0.3,2.8,1.5,12.4,9.5,12.2c8-0.3-0.8-13.2-0.2-19.4
										c0.5-6.2-1.5-5.4-3.7-7.7c-2.4-2.3-9.7-12.7-13-12c-3.4,0.7-11.1,15.9-14,16.1c-3,0.1,15.1-38.9,9-43.9
										c-6.1-5-9.3,18.8-20,39.9"/>
								</defs>
								<clipPath id="SVGID_13_">
									<use xlink:href="#SVGID_12_"  style="overflow:visible;"/>
								</clipPath>
							</g>
						</g>
					</g>
				</g>
				<g>
					<path class="st2" d="M127.8,182.2c-1.2-0.3-2.3-0.9-3.5-1.4c-0.6-0.2-1.4-0.4-2.1-0.4c-0.8,0-1.6,0.3-2.1,0.7
						c-2.1,1.3-4.6,2.1-7,2.6c-2.4,0.5-5,0.7-7.5,0.4c-2.5-0.2-4.9-1-7.2-2c-2.3-1.1-4.5-2.3-6.5-3.9c-2-1.4-3.8-3.3-5.1-5.3
						c-0.6-1-1.2-2.1-1.4-3.3c-0.3-1.2-0.4-2.4-0.6-3.6c-0.2-2.5-0.2-5,0.1-7.5c0.6-5,2.7-9.6,4.7-14.3c1-2.4,2.1-4.7,3-7.2
						c0.9-2.5,1.6-5,2.4-7.4c1.5-4.9,3-9.8,4.6-14.8c1.7-4.9,3.3-9.7,5.3-14.4c0.5-1.1,1.1-2.3,1.7-3.4c0.3-0.6,0.6-1.1,1-1.6
						c0.3-0.5,0.9-0.9,1.1-0.9c0.1,0,0.1,0,0.3,0.1c0.1,0.1,0.2,0.3,0.4,0.6c0.2,0.5,0.4,1.1,0.5,1.7c0.3,1.3,0.4,2.5,0.5,3.7
						c0.3,5-0.1,10.2-0.6,15.3c-0.2,2.3-0.4,4.5-0.7,6.8c0.4-2.5,0.8-4.9,1.1-7.4c0.6-5.2,1.2-10.3,1-15.5c-0.1-1.3-0.2-2.6-0.5-3.9
						c-0.2-0.6-0.4-1.3-0.7-1.9c-0.2-0.2-0.3-0.6-0.7-0.9c-0.3-0.2-0.9-0.6-1.4-0.4s-1,0.3-1.2,0.6c-0.2,0.3-0.5,0.5-0.7,0.8
						c-0.5,0.5-0.9,1.1-1.2,1.6c-0.7,1.1-1.2,2.2-1.8,3.5c-2.1,4.7-3.9,9.6-5.5,14.5c-1.7,4.9-3.2,9.8-4.8,14.7
						c-0.8,2.5-1.6,4.9-2.5,7.3c-0.9,2.3-2,4.6-3.1,7c-1,2.4-2.1,4.7-3,7.2c-0.9,2.5-1.6,5-2,7.7c-0.3,2.7-0.3,5.4,0,8
						c0.1,1.2,0.4,2.6,0.7,3.9c0.3,1.4,1,2.7,1.7,3.8c1.6,2.3,3.6,4.1,5.7,5.7c2.1,1.6,4.4,2.9,6.9,3.9c2.5,1,5,1.7,7.7,2
						c2.6,0.2,5.4,0.1,7.9-0.5c2.6-0.6,5.1-1.5,7.4-3c0.5-0.3,1-0.5,1.5-0.6c0.5,0,1.1,0.2,1.7,0.4c1.2,0.4,2.4,1.1,3.6,1.4
						c1.3,0.3,2.7,0.4,4,0.2c1-0.1,2.1-0.4,3-0.8c-0.8,0.3-1.7,0.5-2.6,0.5C130.1,182.5,128.9,182.5,127.8,182.2z"/>
					<path class="st2" d="M107.8,131.3c0.5-2.9,0.9-5.7,1.3-8.6c-0.4,2.6-0.9,5.2-1.4,7.9L107.8,131.3z"/>
					<path class="st2" d="M173.1,140.4c-1.1-0.9-2.5-1.2-3.8-1.4c-0.6-0.1-1.3-0.1-1.9-0.1c-0.1-0.8-0.3-1.6-0.4-2.3
						c-0.7-2.6-1.5-5-2.2-7.5c-0.4-1.2-0.6-2.4-0.7-3.6c0-0.6,0.1-1.1,0.1-1.8s0-1.4,0-2.1c0-0.7-0.1-1.5-0.4-2.3
						c-0.3-0.9-1.1-1.6-1.6-2c-1.2-0.8-1.9-1.3-2.8-2.3c-1.6-1.9-3.2-4-5-5.9c-0.9-0.9-1.8-2-2.8-2.9s-2-1.7-3.4-2.5
						c-0.4-0.2-0.8-0.3-1.3-0.4c-0.3,0-0.5-0.1-0.8,0c-0.2,0.1-0.5,0.2-0.8,0.3c-0.9,0.4-1.4,0.9-1.9,1.4c-1.1,1-1.8,2-2.6,3.1
						c-1.6,2.2-3,4.3-4.5,6.4c-0.7,1.1-1.5,2.1-2.2,3.1c-0.3,0.3-0.5,0.6-0.9,0.9c0.1-0.4,0.2-0.8,0.3-1.1c0.3-1.3,0.7-2.4,1.1-3.7
						l2.4-7.3c1.6-4.9,3.2-9.8,4.5-14.9c0.7-2.6,1.2-5.1,1.6-7.8c0.2-1.3,0.3-2.7,0.1-4c-0.1-0.7-0.2-1.4-0.5-2.1
						c-0.1-0.3-0.4-0.7-0.6-1c-0.1-0.2-0.2-0.3-0.4-0.5c-0.1-0.1-0.3-0.1-0.5-0.3c-0.4-0.2-0.7-0.3-1.2-0.4s-0.9,0.1-1.3,0.2
						c-0.9,0.4-1.4,0.9-1.9,1.4c-1,1.1-1.5,2.2-2.1,3.4c-1.1,2.4-1.9,4.9-2.8,7.2c-1.7,4.8-3.2,9.7-5,14.6
						c-1.7,4.8-3.6,9.6-5.9,14.2l0.2,0.1c4.9-9.1,8.3-18.9,11.8-28.6c0.9-2.4,1.8-4.9,2.9-7.1c0.6-1.1,1.2-2.2,1.9-3.1
						c0.5-0.4,0.8-0.8,1.3-0.9s0.7-0.1,1.2,0.2c0.2,0.1,0.3,0.1,0.4,0.3s0.2,0.1,0.3,0.2c0.2,0.2,0.3,0.5,0.4,0.7
						c0.2,0.5,0.3,1.1,0.3,1.7c0.1,1.1,0,2.4-0.2,3.6c-0.3,2.5-1,5-1.6,7.4c-1.4,4.8-3,9.7-4.7,14.6l-2.5,7.3
						c-0.4,1.3-0.8,2.5-1.2,3.8c-0.2,0.7-0.4,1.3-0.5,1.9c-0.1,0.4-0.1,0.7-0.2,1.1c0,0.2-0.1,0.4,0,0.7c0.1,0.2,0,0.4,0.2,0.6
						c0.1,0.2,0.1,0.3,0.3,0.5c0.2,0.1,0.5,0.3,0.7,0.3s0.4,0,0.4,0c0.1,0,0.1-0.1,0.2-0.1c0.2-0.1,0.3-0.1,0.4-0.1
						c0.2-0.1,0.4-0.2,0.6-0.3c0.3-0.1,0.7-0.4,0.9-0.7c0.5-0.4,0.9-1,1.4-1.5c0.8-1.1,1.6-2.1,2.3-3.2c1.5-2.1,2.9-4.3,4.5-6.3
						c0.8-1,1.5-2,2.4-2.9c0.4-0.4,0.8-0.8,1.2-0.9c0.1-0.1,0.1-0.1,0.1-0.1c0.1,0,0.1,0,0.2,0c0.1,0,0.4,0.1,0.6,0.2
						c0.8,0.4,1.8,1.2,2.7,2.1c0.9,0.9,1.7,1.8,2.6,2.7c1.7,1.9,3.3,3.9,5,5.9c0.4,0.5,1,1,1.5,1.5c0.6,0.5,1.2,0.9,1.6,1.2
						c0.5,0.3,0.7,0.5,0.9,0.9c0.1,0.3,0.3,1,0.3,1.5c0.1,0.6,0,1.2,0,1.8s-0.1,1.4,0,2.1c0.2,1.5,0.5,2.8,0.9,4.1
						c0.7,2.5,1.6,4.9,2.3,7.4c0.2,0.6,0.3,1.1,0.4,1.7c0,0,0,0,0,0s0.2,0.7,0.2,1.9c0,0,0,0-0.1,0c0,0,0,0,0,0
						c0,0.5-0.2,0.9-0.3,1.1c-0.2,0.3-0.5,0.4-0.9,0.6c-0.4,0.1-0.9,0.2-1.5,0.2c-0.6-0.1-1.2-0.1-1.6-0.3c0,0,0,0,0,0
						c0,0-0.1,0-0.1,0c0,0-0.8-0.3-2.3-1.2c0,0,0,0,0,0c-0.2-0.1-0.3-0.3-0.5-0.4c-1.6-1.6-2.6-4-3-6.3c-0.1-0.6-0.2-1.1-0.2-1.8
						c0-0.3,0-0.6,0-0.8l0.1-0.5c0-0.2,0.1-0.4,0-0.6c-0.3-1.6-1-2.9-1.8-4c-0.8-1.1-2-2.1-3.3-2.8c-0.7-0.3-1.3-0.5-2.1-0.6
						c-0.3,0-0.7-0.1-1.1-0.1c-0.5,0-1,0.3-1.4,0.4c-0.8,0.4-1.4,0.9-1.9,1.4c-0.5,0.6-0.9,1.2-1.3,1.7c-0.7,1.2-1.3,2.4-1.8,3.7
						c-1,2.5-1.7,5-2.2,7.6c-0.4,2.7-0.7,5.2-0.6,8c0.1,1.3,0.4,2.7,1.2,4c0.3,0.7,0.8,1.2,1.4,1.8c0.6,0.5,1.4,0.8,2.1,0.9
						c1.5,0.2,2.9,0,4.2-0.4c1.3-0.5,2.5-1.1,3.6-1.8c1.1-0.7,2.3-1.6,3.2-2.4c0.9-0.8,1.9-1.7,2.8-2.6c0.8-0.7,1.6-1.3,2.4-1.8
						c0.5,0.3,1.1,0.5,1.7,0.6c0.7,0.2,1.5,0.3,2.2,0.4s1.5,0,2.3-0.2c0.7-0.2,1.6-0.7,2.2-1.6s0.7-1.7,0.7-2.4c0,0,0-0.1,0-0.1
						c0.8,0,1.5,0,2.2,0c1.2,0.1,2.5,0.4,3.4,1.2c0.4,0.4,0.8,0.7,0.8,1.2c0,0.5-0.2,1.1-0.5,1.5c-0.6,1-1.6,1.8-2.6,2.5
						c-0.5,0.4-1.1,0.8-1.7,1.2c0.5-0.3,1.1-0.7,1.7-1.1c1-0.6,2.2-1.5,3-2.7c0.3-0.6,0.6-1.3,0.5-2.1
						C174.2,141.5,173.7,140.9,173.1,140.4z M154.7,144.1c-1,1-1.9,1.7-2.8,2.6c-1,0.8-2,1.6-3.1,2.2c-1,0.6-2.1,1.3-3.3,1.6
						s-2.3,0.5-3.4,0.3c-1.1-0.3-1.9-1-2.4-1.9c-0.6-0.9-0.8-2.1-0.9-3.3c-0.1-2.4,0.2-4.9,0.7-7.4c0.5-2.5,1.3-4.9,2.3-7.1
						c0.6-1.1,1.1-2.3,1.7-3.3c0.6-1,1.4-2,2.2-2.4c0.2-0.1,0.4-0.1,0.5-0.1c0.3-0.1,0.6,0,0.8,0c0.5,0.1,1.1,0.3,1.5,0.5
						c1,0.5,1.9,1.2,2.6,2.1c0.7,0.9,1.3,1.9,1.3,3c0.1,0.2,0.1,0.3,0,0.4l-0.1,0.4c0,0.4,0,0.7,0,1.1c0.1,0.7,0.2,1.4,0.3,2.1
						c0.5,2.7,1.6,5.4,3.7,7.5c0.1,0.1,0.2,0.2,0.3,0.2C156,143,155.3,143.5,154.7,144.1z"/>
					<path class="st2" d="M164.6,151.7c-0.5,0.4-0.8,1-1,1.5c-0.3,0.6-0.8,1.1-1.3,1.6c-1.8,1.9-4.2,3.3-6.1,4.8
						c-2.1,1.5-4.1,3.2-5.6,5.2c-0.8,1-1.5,2.1-2.2,3.2c-0.7,1.1-1.5,2.2-2.1,3.2c-1.5,2.1-3.1,4.2-5,6c-1.8,1.8-3.9,3.5-6.4,4.5
						c-0.3,0.1-0.5,0.2-0.8,0.3c0.3-0.1,0.7-0.2,1-0.4c2.3-0.9,4.4-2.5,6.2-4.4s3.5-3.8,5-5.8c0.8-1,1.5-2.1,2.1-3.2
						c0.7-1.1,1.4-2.2,2.2-3.2c1.7-2.1,3.6-3.8,5.7-5.4c2.1-1.6,4.3-2.8,6-4.7c0.5-0.4,0.8-1,1.1-1.4c0.3-0.6,0.8-1.1,1.2-1.6
						c0.9-1,1.9-1.8,3-2.5c0.5-0.4,1-0.7,1.5-1c-0.5,0.3-1.1,0.7-1.6,1C166.5,150,165.5,150.8,164.6,151.7z"/>
				</g>
				<g>
					<g>
						<g>
							<g>
								<defs>
									<path id="SVGID_14_" d="M160.6,142.7c0,0-1.2-0.6-1.5-0.7c0,0,1.7-1.5,3.4-1.8s2.9-0.4,2.9-0.4s0.1,0.7,0.1,1.3
										C165.4,141,162,142.6,160.6,142.7z"/>
								</defs>
								<clipPath id="SVGID_15_">
									<use xlink:href="#SVGID_14_"  style="overflow:visible;"/>
								</clipPath>
							</g>
						</g>
					</g>
				</g>
				<g>
					<g>
						<g>
							<g>
								<defs>
									<path id="SVGID_16_" d="M160.6,142.7c0,0-1.2-0.6-1.5-0.7c0,0,1.7-1.5,3.4-1.8s2.9-0.4,2.9-0.4s0.1,0.7,0.1,1.3
										C165.4,141,162,142.6,160.6,142.7z"/>
								</defs>
								<clipPath id="SVGID_17_">
									<use xlink:href="#SVGID_16_"  style="overflow:visible;"/>
								</clipPath>
							</g>
						</g>
					</g>
				</g>
			</g>
			<g class="st9">
				<path class="st10" d="M120.1,177.9c-0.4-1.4-0.5-2.8-0.5-4.2c0-1.4,0.1-2.9,0.3-4.3c0.5-2.9,1.4-5.6,2.8-8.3
					c1.4-2.5,3.1-4.9,5.1-7c1-1.1,2-2,3.2-2.9c0.6-0.4,1.2-0.9,1.7-1.3l1.8-1.2l0,0c-2.3,1.8-4.5,3.5-6.4,5.8
					c-1,1.1-1.9,2.1-2.8,3.3c-0.8,1.2-1.6,2.4-2.2,3.7c-1.3,2.5-2.4,5.3-2.8,8.2c-0.2,1.5-0.4,2.9-0.4,4.3
					C119.7,175.1,119.8,176.5,120.1,177.9L120.1,177.9z"/>
			</g>
			<g class="st9">
				<path class="st10" d="M136,148.8c-1.7-0.3-3.4-0.5-5.1-0.7c-1.7-0.2-3.4-0.4-5.1-0.5c-3.4-0.3-6.8-0.5-10.3-0.4
					c-3.4,0-6.8,0.2-10.2,0.8c-1.7,0.2-3.3,0.6-5,1c-1.7,0.4-3.3,1-4.8,1.7l0,0c3.1-1.5,6.4-2.4,9.8-3c1.7-0.3,3.4-0.5,5.1-0.6
					c1.7-0.1,3.4-0.2,5.1-0.2c3.5,0,6.9,0.2,10.2,0.5C129.3,147.7,132.7,148.1,136,148.8L136,148.8z"/>
			</g>
			<g class="st9">
				<path class="st10" d="M92.2,138.3c1.5,0.2,3,0.4,4.5,0.6c1.5,0.2,3,0.4,4.5,0.5c1.5,0.1,3,0.3,4.5,0.4c1.5,0.1,3,0.2,4.5,0.2
					c3,0.2,6,0.2,9,0c1.5-0.1,3-0.2,4.5-0.5c1.5-0.3,2.9-0.5,4.4-1l0,0c-1.4,0.5-2.9,0.9-4.3,1.1c-1.5,0.3-3,0.4-4.5,0.5
					c-3,0.2-6,0.2-9,0.1c-3-0.1-6-0.4-9-0.7C98.2,139.4,95.2,138.9,92.2,138.3L92.2,138.3z"/>
			</g>
		</g>
	</g>
</g>
<g class="st11">
	<g class="st12">
		
			<linearGradient id="SVGID_18_" gradientUnits="userSpaceOnUse" x1="406.628" y1="1106.2842" x2="221.7384" y2="1426.5226" gradientTransform="matrix(1 0 0 -1 -124.3622 1584.8346)">
			<stop  offset="0" style="stop-color:#7A793F"/>
			<stop  offset="0.4247" style="stop-color:#7C7A3F"/>
			<stop  offset="0.5777" style="stop-color:#837F3E"/>
			<stop  offset="0.6868" style="stop-color:#8E873C"/>
			<stop  offset="0.7749" style="stop-color:#9F9339"/>
			<stop  offset="0.8505" style="stop-color:#B5A236"/>
			<stop  offset="0.9173" style="stop-color:#D1B432"/>
			<stop  offset="0.9763" style="stop-color:#F0CA2D"/>
			<stop  offset="1" style="stop-color:#FFD42B"/>
		</linearGradient>
		<path class="st13" d="M189.8,503.3c102.1,0,184.8-82.7,184.8-184.8s-82.7-184.9-184.8-184.9S5,216.3,5,318.4
			S87.7,503.3,189.8,503.3z"/>
		<path class="st1" d="M273.9,338c-0.2,1.4-0.4,2.8-0.5,4.2l-0.4,4.2c-0.4,5.7-0.6,11.4-0.7,17.1c-0.2,11.4,0.1,22.9,0.6,34.2
			c0.3,5.7,1,11.3,1.9,16.9s2,11.2,3.3,16.8c2.5,11.1,5.6,22.1,8.8,33.1c0.9,3.1,1.9,6.3,2.9,9.4c5.6-3.7,17.7-12,25.2-19.4
			c7.1-7.1,11.5-11.4,15.2-15.7c-0.8-7.5-1.6-14.9-3.1-22.2l-0.7-3.6c-0.1-0.6-0.2-1.2-0.4-1.8l-0.5-1.7l-1-3.5l-1-3.5
			c-0.7-2.3-1.3-4.7-1.9-7.1s-1.1-4.8-1.6-7.2c-1.9-9.6-3.3-19.3-4.2-29c-0.5-4.9-0.8-9.8-1.1-14.6c-0.1-2.4-0.2-4.9-0.3-7.3
			l-0.1-3.7v-1.8v-0.9v-0.5c0-0.1,0-0.2,0-0.4c-1.5,0.6-3.1,1-4.7,1.5s-3.3,0.8-4.9,1.2c-3.3,0.6-6.7,1-10,1.5
			c-1.7,0.2-3.4,0.2-5.1,0.1s-3.4-0.4-5-0.8c-3.1-0.7-6.1-1.7-9-3c0,0.1-0.1,0.2-0.1,0.4c-0.1,0.3-0.2,0.7-0.3,1
			c-0.2,0.7-0.3,1.4-0.5,2.1C274.3,335.2,274.1,336.6,273.9,338z"/>
		<path class="st1" d="M82.8,324.2c0,0-17.4,65.2-51.4,72.7c0,0,45-72.7,29.2-94.9C60.5,301.9,70.2,308.1,82.8,324.2z"/>
		<path class="st2" d="M82.9,324.1c-0.1,0.3-0.1,0.5-0.2,0.8l-0.2,0.7l-0.4,1.4l-0.8,2.8c-0.5,1.9-1.1,3.7-1.7,5.6
			c-1.2,3.7-2.5,7.3-3.9,10.9c-2.8,7.2-6.2,14.3-10.1,21c-2,3.4-4.1,6.6-6.5,9.7s-5,6-7.8,8.7s-5.9,5.1-9.3,7.1
			c-3.4,2-7,3.6-10.8,4.4l-0.8,0.2l0.4-0.7c4.4-7.3,8.4-14.9,12.1-22.5c1.8-3.9,3.7-7.7,5.4-11.6s3.4-7.8,5-11.7s3-7.9,4.4-12
			c1.3-4,2.5-8.1,3.3-12.2c0.9-4.1,1.5-8.3,1.5-12.5c0-4.1-0.7-8.3-3-11.7l-2.8-4.1l4,2.8c1.2,0.8,2.2,1.6,3.2,2.4
			c1,0.8,2,1.7,3,2.6c1.9,1.8,3.8,3.7,5.6,5.6c1.8,1.9,3.5,3.9,5.2,6c0.8,1,1.6,2.1,2.4,3.1C81.3,322,82.1,323.1,82.9,324.1z
			 M82.6,324.2l-2.5-2.9c-0.9-1-1.7-1.9-2.6-2.9s-1.8-1.9-2.7-2.8c-0.9-1-1.8-1.9-2.8-2.8c-1.9-1.8-3.8-3.6-5.8-5.3
			c-2-1.7-4-3.3-6.2-4.7l1.3-1.3c1.3,1.8,2.2,4,2.8,6.1c0.6,2.2,0.8,4.4,0.9,6.6c0.1,4.4-0.5,8.7-1.3,13c-1.8,8.5-4.7,16.6-8.1,24.6
			c-1.7,4-3.4,7.9-5.3,11.7c-1.9,3.9-3.8,7.7-5.9,11.4c-4.1,7.5-8.4,14.9-12.8,22.3l-0.4-0.5c3.7-0.8,7.3-2.4,10.5-4.5l1.2-0.8
			c0.4-0.3,0.8-0.6,1.2-0.8c0.7-0.6,1.6-1.1,2.2-1.8c0.7-0.6,1.5-1.2,2.2-1.9l2-2c5.3-5.6,9.6-11.9,13.5-18.5
			c2-3.3,3.8-6.7,5.5-10.1s3.3-6.9,4.9-10.4c1.5-3.5,3-7.1,4.4-10.7c0.7-1.8,1.4-3.6,2-5.4l1-2.7L82.6,324.2z"/>
		<path class="st3" d="M100.9,316.3c0,0,2.2,10.3,4,10.4s1.7-13.7,1.7-14C106.6,312.4,105.4,314.4,100.9,316.3z"/>
		<path class="st4" d="M318.2,319.3c0,0-0.2,7.1,0,8.5s-12.5,5.4-23.6,5.9s-19.5-4.2-19.5-4.2l0.8-8.2"/>
		<path class="st2" d="M318.3,319.3c0.3,2.2,0.5,4.5,0.6,6.7c0,0.5,0.1,1.1,0.1,1.6v0.1l0,0v0.1c0,0.1,0,0.1,0,0.2
			c0,0.2-0.1,0.3-0.1,0.4s-0.1,0.2-0.1,0.2c-0.2,0.2-0.4,0.4-0.5,0.5c-0.3,0.2-0.6,0.4-0.8,0.6c-1.1,0.6-2.1,1-3.2,1.4
			c-2.2,0.7-4.4,1.1-6.6,1.4s-4.4,0.7-6.6,1.1s-4.4,0.8-6.7,1.1c-2.3,0.3-4.6,0.2-6.8,0c-4.6-0.4-9-1.8-13-4.2l-0.6-0.3l0.1-0.6
			c0.2-1.3,0.5-2.7,0.7-4.1c0.2-1.3,0.5-2.7,0.9-4h0.2c0.1,1.4,0.1,2.8,0.1,4.1c0,1.4,0,2.8-0.1,4.1l-0.5-0.9c1.9,0.8,4,1.6,6.1,2.1
			c2.1,0.6,4.2,1.1,6.3,1.5c2.1,0.4,4.3,0.5,6.5,0.6s4.4,0,6.6-0.2s4.4-0.7,6.5-1.4c2.1-0.7,4.2-1.5,6.2-2.2c1-0.4,2.1-0.7,2.9-1.2
			c0.2-0.1,0.4-0.2,0.6-0.3c0.1,0,0.1-0.1,0.1-0.1c0,0.1,0,0-0.1,0.2v0.1l0,0l0,0v-0.1c0-0.7,0-1.2,0-1.8c0.1-2.3,0.4-4.5,0.8-6.7
			L318.3,319.3z"/>
		<path class="st4" d="M292.5,200.2c0,0,2.9,0.8,5.4,11.2s21.6,62.6,26.5,70.5c5,7.9-6.2,33.6-6.2,37.3c0,0-13.3,6.2-22,6.7
			c-8.7,0.4-20.3-4.6-20.3-4.6S282.5,223.9,292.5,200.2z"/>
		<path class="st2" d="M292.4,200.1h0.1l0,0h0.1l0.1,0.1c0.1,0,0.1,0.1,0.2,0.1c0.1,0.1,0.3,0.2,0.4,0.3c0.2,0.2,0.5,0.5,0.7,0.7
			c0.4,0.5,0.8,1.1,1.1,1.7c0.7,1.2,1.2,2.4,1.7,3.6c1,2.5,1.6,5.1,2.4,7.6c1.6,5,3.4,10,5.2,14.9c3.6,9.9,7.3,19.8,11.1,29.6
			c1.9,4.9,3.8,9.8,5.8,14.7c1,2.4,2,4.9,3.2,7.1l0.5,0.8c0.2,0.3,0.4,0.6,0.5,1s0.2,0.7,0.4,1c0.1,0.4,0.2,0.7,0.2,1
			c0.2,1.4,0.2,2.7,0.2,4.1c-0.1,2.7-0.7,5.3-1.2,7.9c-0.6,2.6-1.3,5.1-2.1,7.7c-0.7,2.5-1.6,5.1-2.4,7.6l-1.2,3.8
			c-0.2,0.6-0.4,1.3-0.5,1.9s-0.3,1.3-0.4,1.8v0.2l-0.2,0.1c-1.7,0.8-3.4,1.5-5.1,2.2s-3.4,1.3-5.2,1.9c-1.7,0.6-3.5,1.2-5.3,1.6
			c-1.8,0.5-3.6,0.8-5.5,1.1c-1.9,0.2-3.8,0.2-5.6,0c-1.9-0.2-3.7-0.5-5.5-0.9c-3.6-0.8-7.1-1.9-10.6-3.3l-0.7,0v-0.7
			c0.6-10.2,1.4-20.4,2.3-30.6c0.8-10.2,1.9-20.3,3.1-30.5c1.3-10.2,2.7-20.3,4.4-30.4c0.9-5,1.9-10,3-15c0.6-2.5,1.2-5,2-7.4
			l0.6-1.8c0.2-0.6,0.4-1.2,0.6-1.8C291.3,202.6,291.9,201.3,292.4,200.1z M292.5,200.4c-0.4,1.2-0.8,2.3-1.1,3.6l-0.5,1.8l-0.5,1.8
			c-0.6,2.5-1.1,5-1.6,7.5c-1,5-1.8,10-2.5,15.1c-1.5,10.1-2.7,20.2-3.7,30.4c-1.1,10.2-2.1,20.3-3.1,30.5s-1.9,20.3-2.7,30.5
			l-0.6-1c3.3,1.4,6.8,2.6,10.3,3.5c1.7,0.5,3.5,0.8,5.3,1.1c1.8,0.2,3.6,0.4,5.3,0.2c1.8-0.1,3.6-0.5,5.3-0.9
			c1.8-0.4,3.5-0.9,5.3-1.5c3.5-1.1,6.9-2.4,10.2-3.9l-0.2,0.4c0-0.7,0.2-1.4,0.4-2.1c0.2-0.6,0.4-1.3,0.6-1.9l1.2-3.8
			c0.8-2.5,1.6-5,2.3-7.6c1.4-5.1,2.7-10.2,2.8-15.4c0-1.3,0-2.6-0.3-3.8l-0.2-0.9c-0.1-0.3-0.2-0.6-0.3-0.8l-0.4-0.8l-0.5-0.9
			c-1.3-2.4-2.4-4.8-3.5-7.2c-1.1-2.4-2.2-4.8-3.1-7.3c-1-2.4-2-4.9-3-7.4c-3.8-9.9-7.4-19.8-10.8-29.8c-1.7-5-3.3-10-4.7-15.1
			c-0.7-2.6-1.2-5.2-1.9-7.6c-0.4-1.2-0.8-2.5-1.4-3.6c-0.3-0.6-0.6-1.2-1-1.7c-0.2-0.2-0.4-0.5-0.6-0.7c-0.1-0.1-0.2-0.2-0.4-0.3
			c-0.1,0-0.1-0.1-0.2-0.1l-0.1-0.1L292.5,200.4C292.6,200.4,292.6,200.4,292.5,200.4L292.5,200.4z"/>
		<path class="st4" d="M96,319.3c0,0-9.7,9.8-12.7,10.3c0,0-3.8-6.5-23.9-28.2c-20.1-21.6-20.3-23-21.2-23s4.9-9,8.1-10.5"/>
		<path class="st2" d="M96.1,319.4c-1.7,2.2-3.6,4.2-5.6,6.1c-1,1-2,1.9-3.1,2.8c-0.3,0.2-0.6,0.4-0.8,0.6c-0.3,0.2-0.6,0.4-0.9,0.6
			s-0.6,0.4-1,0.6c-0.3,0.2-0.8,0.3-1.2,0.5l-0.6,0.1l-0.4-0.6c-0.8-1.3-1.9-2.7-2.9-4s-2.1-2.7-3-4.1c-2-2.7-4-5.5-6.3-8.1
			c-2.2-2.6-4.5-5.1-6.9-7.5c-2.4-2.4-4.9-4.8-7.3-7.2c-4.7-4.9-9.5-9.8-13.9-15.1l-3.2-3.9c-0.2-0.3-0.6-0.7-0.7-0.8
			c-0.1-0.1,0,0,0,0h0.1c0,0,0,0-0.1,0s-0.1,0-0.2,0c-0.1,0-0.3-0.1-0.4-0.3c-0.1-0.1-0.2-0.2-0.2-0.4c0-0.1,0-0.2-0.1-0.2
			c0-0.5,0.1-0.5,0.1-0.7c0-0.1,0.1-0.2,0.1-0.4c0.4-0.9,0.9-1.6,1.4-2.3c1-1.4,2.1-2.8,3.3-4c0.6-0.6,1.2-1.2,1.9-1.8
			c0.7-0.6,1.4-1.1,2.2-1.4l0.1,0.2c-1.4,0.9-2.4,2.3-3.4,3.6c-1,1.3-1.9,2.8-2.7,4.2c-0.4,0.7-0.8,1.5-1.1,2.2
			c0,0.1-0.1,0.2-0.1,0.2s0,0.1,0-0.1c0-0.1,0-0.1,0-0.2s-0.1-0.2-0.2-0.3c-0.2-0.2-0.6-0.3-0.6-0.3c0.1,0,0.3,0,0.4,0
			c0.2,0.1,0.5,0.2,0.6,0.3c0.5,0.4,0.8,0.7,1.1,1c1.2,1.3,2.3,2.5,3.5,3.7c4.6,5,9.1,10.2,13.6,15.2c4.5,5.1,8.7,10.5,13.3,15.6
			c2.3,2.5,4.7,5,7,7.5c1.2,1.3,2.3,2.6,3.3,3.9c1.1,1.4,2.1,2.7,3,4.3l-1-0.5c0.2-0.1,0.4-0.1,0.7-0.2l0.4-0.2l0.4-0.2
			c0.3-0.1,0.6-0.3,0.8-0.5c0.3-0.2,0.6-0.4,0.8-0.6c1.1-0.8,2.2-1.6,3.2-2.4s2.1-1.7,3.2-2.6l3.2-2.6L96.1,319.4z"/>
		<path class="st4" d="M128.2,287.4c0,0-16.3,25.9-32.2,31.9c0,0-38.3-31.9-49.6-51.4c0,0,13.9-49.3,45.8-76.5
			C92.2,191.4,133.9,227,128.2,287.4z"/>
		<path class="st2" d="M128.3,287.4c-2,3.4-4.1,6.5-6.4,9.6s-4.7,6.1-7.3,8.9c-2.6,2.9-5.3,5.6-8.3,8.1c-1.5,1.2-3.1,2.4-4.7,3.4
			c-1.7,1-3.4,2-5.3,2.7l-0.5,0.2l-0.4-0.4c-4.6-3.8-9.1-7.8-13.5-11.8S73.1,300,69,295.7c-4.2-4.3-8.3-8.7-12.2-13.2
			c-2-2.3-3.8-4.6-5.6-7l-2.6-3.6l-2.4-3.8l-0.1-0.1v-0.1c2.2-7.2,4.8-14.3,7.8-21.2c2.9-6.9,6.2-13.8,9.8-20.4
			c3.6-6.6,7.7-13,12.3-19c2.3-3,4.8-5.9,7.3-8.7c2.6-2.8,5.3-5.4,8.2-7.9l0.7-0.7l0.7,0.7c3.4,3,6.4,6.3,9.3,9.7s5.5,7,8,10.8
			c2.4,3.7,4.7,7.6,6.7,11.6s3.7,8.1,5.3,12.3c1.6,4.2,2.8,8.5,3.9,12.8l0.7,3.3c0.2,1.1,0.4,2.2,0.6,3.3l0.3,1.6l0.2,1.7l0.5,3.3
			C129.4,269.7,129.4,278.6,128.3,287.4z M128.1,287.3c0.5-8.8,0.2-17.7-1-26.4c-1.4-8.7-3.6-17.2-6.8-25.4
			c-3.2-8.1-7.3-16-12.1-23.3c-2.4-3.6-5-7.2-7.8-10.6c-2.8-3.4-5.7-6.7-8.9-9.5H93c-2.8,2.4-5.6,5-8.1,7.7s-5,5.5-7.3,8.5
			c-2.3,2.9-4.6,5.9-6.7,9.1c-2.1,3.1-4.1,6.3-6,9.5c-3.8,6.4-7.3,13.2-10.3,20c-3,6.9-5.7,13.9-7.8,21.1v-0.3
			c3,5.1,6.9,9.6,10.9,14s8.2,8.6,12.5,12.7s8.6,8.2,13.1,12.2c4.4,4,8.8,8,13.4,11.9l-1-0.1c3.4-1.3,6.7-3.4,9.6-5.7
			c3-2.3,5.8-4.9,8.4-7.7c2.6-2.8,5.1-5.6,7.5-8.6C123.6,293.5,125.9,290.4,128.1,287.3z"/>
		<path class="st3" d="M221.6,154.4c0,0,6.9-5.8,8.3-5.5c1.4,0.3-4.7,20.2-8.3,26.2c-3.6,6.1-25.8,25.2-29.5,30.1c0,0-6.2-5-10-7.7
			c-3.9-2.8-16.3-11.6-22.1-22.1s-11.3-28.7-8.8-28.2s9.9,4.4,9.9,4.4s21.6,13.2,35.4,14.1C211.5,166.6,218.1,157.1,221.6,154.4z"/>
		<path class="st1" d="M160.3,140.6c0,0,2.9,19.4-14.4,46.1c0,0,30.1,31.1,49.3,30.5c19.3-0.7,42.8-30.9,42.8-30.9
			s-14.3-8.9-15.6-42.1c0,0-11.4,14.1-29.1,12.3C175.5,154.8,160.3,140.6,160.3,140.6z"/>
		<path class="st4" d="M288,210.5c1.2-6.2,2.5-12.3,4-18.4l-7.9-2.4c-1.5-0.5-3-1.1-4.4-1.7c-1.4-0.6-2.8-1.3-4.2-1.9
			c-5.6-2.7-11-5.5-16.4-8.4c-10.6-5.7-21-11.5-31.5-17.3c-0.8,4.8-2.4,9.4-4.7,13.6c-1.2,2.3-2.7,4.4-4.3,6.3
			c-1.6,1.9-3.3,3.9-5,5.7c-3.5,3.7-7.1,7.2-10.7,10.7c-0.9,0.9-1.8,1.7-2.7,2.6c-0.8,0.9-1.6,1.9-2.3,3c-1.4,2.1-2.6,4.3-3.6,6.6
			l-0.1,0.3L194,209c-1.9-1.5-3.6-3.2-5.3-4.8l-5.1-5c-3.4-3.3-6.9-6.5-10.6-9.6c-1.8-1.5-3.7-3-5.4-4.6c-1.7-1.7-3.3-3.4-4.7-5.3
			c-2.9-3.8-5.3-8-6.8-12.5l-2.4-7.4c-1.4-0.2-2.9-0.2-4.3-0.2c-1.5,0.1-2.9,0.2-4.4,0.4c-2.9,0.4-5.8,1-8.7,1.8
			c-1.4,0.4-2.8,1-4.1,1.6s-2.6,1.3-3.9,2.1c-2.6,1.5-5.1,3.1-7.5,4.7c-4.9,3.3-9.7,6.9-14.3,10.5c-4.6,3.6-9.1,7.3-13.6,11.1
			c2.8,11.2,5.1,22.6,7,34c2,11.5,3.5,23,4.8,34.6c1.2,11.6,2.1,23.2,2.7,34.8c0.3,5.8,0.5,11.6,0.5,17.5c0,2.9,0,5.8-0.2,8.8
			c0,0.7-0.1,1.5-0.2,2.2c0,0.4-0.1,0.8-0.2,1.2c0,0.2-0.1,0.4-0.2,0.6c0,0.1-0.1,0.2-0.1,0.4c0,0.1-0.1,0.1-0.1,0.2
			c-0.1,0.1-0.1,0.2-0.3,0.4c-0.2,0.2-0.4,0.3-0.8,0.3c-0.1,0-0.2,0-0.3,0c-0.1,0,0,0-0.1,0h-0.1l-0.4-0.1c-0.2-0.1-0.5-0.2-0.7-0.3
			l0,0c1.9,16.3,2.8,32.7,2.8,49.1c0,17.6-1,35.1-2.5,52.6c-1.5,17.4-3.6,34.7-5.3,52.1c10.8,6.9,39.5,23.2,73,23.4
			c41.7,0.3,80.9-6.2,106.9-22.9c-0.1-1.5-0.1-3.1-0.2-4.6c-0.2-3.3-0.3-6.5-0.4-9.8l-0.3-9.8c-0.1-3.3-0.1-6.5-0.2-9.8l-0.2-9.8
			l-0.1-9.8c-0.2-13.1-0.2-26.2-0.2-39.4c0-13.1,0.1-26.2,0.2-39.4l0.3-19.7l0.5-19.7c0.4-13.1,0.8-26.2,1.7-39.4
			c1-13.1,2.7-26.2,4.8-39.2C285.5,223.4,286.7,216.9,288,210.5z"/>
		<path class="st5" d="M113.8,175.5c-3.6,2.6-7.1,5.3-10.6,8.1c-3.2,2.6-6.4,5.3-9.5,8.1c1.4,2.5,2.1,5.2,2.9,7.8
			c0.8,2.9,1.4,5.9,2,8.8c1.1,5.9,2,11.8,2.7,17.8c1.5,11.9,2.5,23.8,3.4,35.7c0.9,11.9,1.5,23.8,2,35.8c0.2,6,0.4,11.9,0.5,17.9
			c0,1.5,0,3,0,4.5s-0.1,3-0.3,4.6c-0.1,0.8-0.2,1.5-0.5,2.3c-0.1,0.2-0.2,0.4-0.3,0.6c-0.1,0.1-0.1,0.2-0.2,0.4
			c-0.1,0.1-0.2,0.3-0.5,0.4c-0.2,0.1-0.6,0.1-0.8,0.1c-0.3-0.1-0.4-0.2-0.6-0.3l0,0c1.7,15.7,2.2,31.5,2.2,47.3
			c0,17.5-0.9,35.1-2.5,52.6c-1.5,17.3-4,34.5-5.3,51.7c10.3,6.7,39.5,23.5,73.5,23.8c41.5,0.3,80.5-6.2,106.5-22.6
			c-0.4-4.9-0.6-9.8-0.8-14.6l-0.5-9.8l-0.2-4.9l-0.1-4.9l-0.4-19.7v-2.5V422v-4.9v-9.8v-9.8l0.2-9.8c0.2-6.5,0.3-13.1,0.5-19.7
			l0.8-19.7c1.3-26.2,3.2-52.4,5.6-78.5c1.2-13.1,2.6-26.1,4.1-39.1l1.2-9.8l1.2-9.8c0.4-3.3,0.9-6.5,1.3-9.7l0.7-4.9l0.4-2.4
			c0.1-0.8,0.2-1.6,0.4-2.3c-1.1-0.2-2.1-0.4-3.1-0.6c-1-0.3-2.1-0.6-3.1-1l-3.1-1.1l-3-1.2c-4-1.7-7.9-3.6-11.8-5.6
			c-7.7-3.9-15.2-8.1-22.6-12.6c-2.3,2.2-4.1,5-5.7,7.8c-1.7,2.9-3.1,6-4.5,9.1c-2.8,6.2-5.1,12.5-7.4,18.9
			c-4.4,12.8-8.2,25.8-11.8,38.9c-3.5,13.1-6.8,26.2-10,39.4c-3.1,13.2-6.1,26.4-8.8,39.7l-0.7,3.5l-1.3-3.3l-15-40.7l-15.2-40.4
			l-30-79.7c-3.7,1.5-7.3,3.3-10.7,5.4C121.1,170.4,117.4,172.9,113.8,175.5z"/>
		<path class="st6" d="M281.8,187.8c0,0-41.7,102.3-40.9,162.4c0,0,17.9,2.9,37,0.7c0,0-0.2,23.1-0.1,29.5c0,0-59.9,6.3-91.7,3.7
			c0,0,5.8-29.1,6.1-33.4l15.4-1.3c0,0,15.1-120.9,46.8-174.6C254.4,174.8,269.1,179.9,281.8,187.8z"/>
		<path class="st6" d="M191,350.8l-21.2,0.7c0,0-33.6-168.6-40.6-187.1c0,0-16.4,10.4-26,17.7c0,0,28.1,94.3,33.6,169.3
			c0,0-19.2,1-31.8-1.2l0.7,37.1c0,0,53.8-5.8,79.1-3.4C184.7,384.1,187.9,365,191,350.8z"/>
		<path class="st2" d="M246.2,168.9c-0.2,0.1-0.4,0.2-0.5,0.4c-0.2,0.1-0.4,0.3-0.5,0.5l-0.9,1c-0.5,0.7-1.1,1.5-1.6,2.2l-1.5,2.3
			c-0.5,0.8-0.9,1.6-1.3,2.4c-0.4,0.8-0.9,1.6-1.3,2.4l-1.2,2.5l-1.2,2.5l-1.1,2.5c-0.7,1.7-1.5,3.4-2.1,5.1l-1.9,5.1l-1,2.6
			l-0.9,2.6l-1.8,5.2l-0.9,2.6l-0.8,2.6l-1.7,5.2l-1.7,5.3l-1.5,5.3l-1.5,5.3c-0.5,1.8-1.1,3.5-1.5,5.3l-2.9,10.6l-1.5,5.3L212,261
			l-2.8,10.7c-1.9,7.1-3.5,14.3-5.2,21.4s-3.1,14.4-4.6,21.6c-1.6,7.2-2.8,14.4-4.2,21.7l-2,10.9l-1.9,10.9
			c-1.3,7.3-2.6,14.5-3.8,21.7c-1.2,7.3-2.5,14.5-3.6,21.8l-1.8,10.9l-1.7,10.9c-2.2,14.5-4.3,29.1-6,43.7
			c-0.8,7.3-1.6,14.6-2.3,21.9c-0.6,7.3-1.1,14.7-1.1,22h-0.2c-0.3-3.7-0.3-7.4-0.2-11.1c0-3.7,0.2-7.4,0.4-11
			c0.2-3.7,0.4-7.4,0.7-11c0.3-3.7,0.5-7.4,0.9-11c0.7-7.3,1.5-14.6,2.4-22c0.9-7.3,1.9-14.6,3-21.9l1.7-10.9l1.8-10.9
			c1.2-7.3,2.5-14.5,3.9-21.8c1.3-7.3,2.7-14.5,4.2-21.7c1.4-7.2,2.9-14.4,4.5-21.6l2.3-10.8c0.4-1.8,0.8-3.6,1.2-5.4l1.2-5.4
			l2.3-10.8l1.1-5.4c0.4-1.8,0.8-3.6,1.2-5.4l2.4-10.8c0.8-3.6,1.5-7.2,2.4-10.8l2.5-10.8l1.2-5.4c0.4-1.8,0.9-3.6,1.3-5.3l2.8-10.7
			c1-3.6,2.1-7.1,3.1-10.6l1.6-5.3l1.7-5.3l1.7-5.2l0.9-2.6l1-2.6l1.9-5.2l1-2.6l1.1-2.5l2.1-5.1c0.7-1.7,1.5-3.4,2.3-5.1l1.2-2.5
			l1.3-2.4l1.3-2.4c0.4-0.8,1-1.6,1.4-2.4c0.5-0.8,0.9-1.6,1.5-2.4l1.6-2.3c0.5-0.7,1.2-1.5,1.8-2.2c0.7-0.7,1.3-1.3,2.1-1.8
			L246.2,168.9L246.2,168.9z"/>
		<path class="st4" d="M258.1,207.5c0,0-11-26-6-40.9c3.6-10.6-18.1-19.8-23.9-16.7c0,0,1.7-0.3,0,5.7s-4.6,14-5.2,17.6
			c-0.6,3.6-5,6.8-5,6.8l2.8,15.1c0,0,6.2,0.4,19.5,6.6C253.6,207.7,258.1,207.5,258.1,207.5z"/>
		<path class="st2" d="M258,207.4C257.9,207.4,257.9,207.5,258,207.4C257.9,207.5,257.9,207.4,258,207.4l-0.1-0.2l-0.1-0.3l-0.2-0.5
			c-0.2-0.4-0.3-0.7-0.5-1.1l-0.9-2.2c-0.6-1.5-1.2-2.9-1.7-4.4c-1.1-3-1.9-6-2.7-9.1c-0.7-3.1-1.3-6.2-1.6-9.4s-0.4-6.4,0.1-9.7
			l0.2-1.2c0.1-0.4,0.2-0.8,0.3-1.2s0.2-0.8,0.4-1.2c0.1-0.4,0.3-0.8,0.4-1.1c0.4-1.3,0.4-2.8,0-4.1c-0.9-2.8-3.2-5.1-5.6-6.9
			c-2.5-1.8-5.3-3.2-8.3-4.2c-1.5-0.5-3-0.8-4.5-1c-1.5-0.1-3.1-0.1-4.4,0.5l-0.3-0.9c0.5,0,0.7,0.1,0.9,0.4
			c0.2,0.2,0.3,0.4,0.3,0.6c0.1,0.4,0.1,0.8,0.1,1.2c0,0.7-0.1,1.5-0.2,2.2c-0.2,1.4-0.6,2.7-1,4.1c-0.7,2.7-1.5,5.3-2.3,8
			s-1.5,5.3-2,7.9c-0.3,1.6-1.2,2.9-2.1,4.1c-1,1.2-2,2.2-3.2,3.1l0.5-1.2c0.5,2.5,1,5,1.5,7.5s1,5,1.3,7.5l-1.1-1
			c1,0.1,1.8,0.3,2.6,0.5s1.6,0.4,2.4,0.6c1.6,0.5,3.2,1,4.7,1.6c3.1,1.2,6.2,2.5,9.1,4c2.9,1.5,5.9,2.9,8.9,4.1
			c1.5,0.6,3,1.2,4.6,1.7c0.8,0.2,1.6,0.5,2.3,0.7c0.4,0.1,0.8,0.2,1.2,0.3c0.2,0,0.4,0.1,0.6,0.1h0.3h0.1
			C258,207.4,258,207.3,258,207.4z M258.2,207.5c-0.2,0.1-0.2,0-0.2,0.1h-0.2h-0.3c-0.2,0-0.4,0-0.6,0c-0.4,0-0.8-0.1-1.2-0.1
			c-0.8-0.1-1.6-0.3-2.4-0.5c-1.6-0.4-3.2-0.8-4.8-1.3c-3.1-1.1-6.2-2.3-9.2-3.6s-6-2.4-9.1-3.5c-1.6-0.5-3.1-1-4.6-1.4
			c-0.8-0.2-1.6-0.4-2.3-0.6c-0.7-0.2-1.6-0.3-2.3-0.4l-0.9-0.1l-0.2-0.9c-0.5-2.5-0.9-5-1.4-7.5s-0.9-5-1.3-7.5l-0.1-0.7l0.6-0.4
			c2-1.5,4-3.5,4.5-5.7c0.1-0.2,0.1-0.7,0.2-1l0.2-1c0.2-0.7,0.4-1.3,0.6-2c0.4-1.3,0.8-2.7,1.3-4c0.8-2.6,1.8-5.2,2.7-7.8
			c0.4-1.3,0.9-2.6,1.2-3.9c0.1-0.6,0.3-1.3,0.3-1.9c0-0.3,0-0.6-0.1-0.9c0-0.1-0.1-0.2-0.1-0.3s-0.1,0,0-0.1l-0.3-0.9
			c1.6-0.7,3.3-0.6,4.9-0.5c1.6,0.2,3.1,0.6,4.7,1.1c3,1,5.9,2.3,8.6,4.1c1.3,0.9,2.6,1.9,3.7,3c1.1,1.2,2.2,2.5,2.8,4.1
			c0.7,1.6,0.8,3.4,0.4,5.1c-0.1,0.5-0.2,0.8-0.3,1.2s-0.2,0.7-0.3,1.1c-0.1,0.4-0.1,0.7-0.2,1.1l-0.2,1.1c-0.7,6,0,12.3,1.2,18.4
			c0.6,3.1,1.3,6.1,2.2,9.1c0.4,1.5,0.8,3,1.3,4.5l0.7,2.3l0.4,1.1l0.2,0.6l0.1,0.3L258.2,207.5L258.2,207.5
			C258.2,207.4,258.2,207.5,258.2,207.5z"/>
		<path class="st4" d="M165.7,182.4l-4.2,16.1c0,0-13.6,4.2-27,17.9c0,0-6.9-41-2.2-53.5c4.7-12.4,15.4-16.9,18.8-16.4
			C151.1,146.5,153.4,170.8,165.7,182.4z"/>
		<path class="st2" d="M165.8,182.3c-0.5,2.7-1.1,5.3-1.7,8.1c-0.6,2.7-1.2,5.5-1.9,8.2l-0.1,0.4l-0.4,0.2c-2.4,0.9-4.9,2.1-7.3,3.4
			c-2.4,1.3-4.7,2.7-6.9,4.2s-4.4,3.1-6.5,4.8c-1.1,0.8-2.1,1.7-3.1,2.6c-1,0.9-2,1.8-3,2.7l-1.1,1l-0.2-1.4
			c-0.5-3.3-0.8-6.7-1.2-10l-1.1-10c-0.7-6.7-1.4-13.3-1.6-20c0-1.7-0.1-3.4,0-5.1c0.1-1.7,0.2-3.4,0.5-5.1c0.1-0.8,0.3-1.7,0.5-2.5
			l0.4-1.3l0.5-1.2l0.5-1.2l0.6-1.2c0.4-0.8,0.8-1.5,1.3-2.3c1.8-2.9,4.2-5.6,7-7.6c1.4-1,2.9-1.9,4.6-2.7l1.2-0.5
			c0.4-0.1,0.8-0.3,1.3-0.4c0.9-0.2,1.8-0.4,3-0.2l0.9,0.1l0.1,1c0.1,1.6,0.4,3.2,0.7,4.8c0.2,1.6,0.6,3.2,0.9,4.8
			c0.7,3.2,1.5,6.3,2.5,9.4c1,3.1,2.3,6.1,3.8,8.9c0.8,1.4,1.6,2.9,2.5,4.1C163.6,179.8,164.8,181.1,165.8,182.3z M165.6,182.4
			l-1.8-1.7c-0.6-0.5-1.1-1.2-1.6-1.8s-1.1-1.3-1.5-1.9c-0.5-0.7-1-1.3-1.4-2.1c-1.7-2.8-3.2-5.8-4.5-8.9c-1.2-3.1-2.2-6.3-3-9.5
			s-1.5-6.5-1.8-9.8l1,1.1c-0.5-0.1-1.3,0.1-2,0.2c-0.4,0.1-0.7,0.2-1.1,0.4l-1.1,0.4c-1.5,0.6-2.8,1.5-4.1,2.4s-2.5,2-3.6,3.1
			c-0.5,0.6-1.1,1.2-1.6,1.8s-1,1.3-1.4,1.9s-0.9,1.3-1.2,2.1l-0.6,1.1l-0.5,1.1l-0.5,1.1l-0.4,1.1c-0.2,0.8-0.4,1.5-0.6,2.3
			c-0.6,3.2-0.8,6.5-0.9,9.8c-0.2,6.6,0.1,13.3,0.8,20c0.3,3.3,0.7,6.6,1.3,9.9c0.5,3.3,1.1,6.6,1.7,9.8l-1.3-0.4
			c1.9-2,3.8-4,5.9-5.8c2.1-1.8,4.3-3.5,6.6-5s4.7-2.9,7.1-4.2c2.5-1.2,5-2.4,7.7-3.2l-0.5,0.6c0.7-2.6,1.5-5.2,2.3-7.9
			C163.9,187.8,164.7,185.1,165.6,182.4z"/>
		<path class="st4" d="M165.7,182.4c0,0-4.7,21.5-8.4,28.7c0,0,24.3-6.9,33.8,6.2c0,0,0.9-5.4,2.9-8.6
			C194,208.6,169.1,186.2,165.7,182.4z"/>
		<path class="st2" d="M165.7,182.5c0,0.1,0.1,0.1,0,0.1v0.2l-0.1,0.5l-0.1,0.9l-0.3,1.8c-0.2,1.2-0.4,2.5-0.7,3.7
			c-0.5,2.4-1,4.9-1.6,7.3c-0.6,2.4-1.3,4.8-2,7.3c-0.8,2.4-1.6,4.8-2.9,7.1l-1.1-1.3c3-0.7,6.1-1,9.1-1.2s6.1-0.2,9.2,0.1
			c1.5,0.1,3,0.4,4.6,0.7c1.5,0.3,3,0.7,4.5,1.3s2.9,1.3,4.1,2.3c1.3,1,2.4,2.1,3.4,3.3L190,217c0.1-0.8,0.3-1.6,0.4-2.3
			c0.2-0.8,0.4-1.5,0.6-2.3c0.5-1.5,1-3,1.9-4.5l0.2,1.5c-2.4-2.1-4.8-4.2-7.2-6.4s-4.7-4.4-7-6.6c-2.3-2.2-4.6-4.5-6.9-6.8
			c-1.1-1.2-2.2-2.3-3.3-3.5c-0.5-0.6-1.1-1.2-1.6-1.8c-0.2-0.3-0.6-0.6-0.8-0.9C166.1,183.1,166,182.8,165.7,182.5z M165.6,182.2
			l7.4,6.3c2.4,2.1,4.9,4.2,7.3,6.3c2.4,2.1,4.8,4.2,7.3,6.4c2.4,2.2,4.8,4.3,7.1,6.5l0.7,0.7l-0.5,0.8c-0.7,1.1-1.3,2.5-1.8,3.9
			c-0.2,0.7-0.5,1.4-0.6,2.1c-0.2,0.7-0.4,1.5-0.5,2.2l-0.5,2.3l-1.3-1.8c-0.8-1.2-1.8-2.2-2.9-3.2c-1.1-1-2.3-1.7-3.6-2.4
			c-2.6-1.3-5.6-2.1-8.5-2.4c-3-0.4-6-0.2-9,0.2s-5.9,1.1-8.7,1.9l-1.8,0.6l0.8-1.8l0.7-1.7l0.6-1.7l0.6-1.7l0.6-1.8
			c0.8-2.3,1.5-4.7,2.2-7.1l2.2-7.1l1.1-3.6l0.6-1.8l0.3-0.9l0.1-0.5l0.1-0.2C165.5,182.5,165.6,182.3,165.6,182.2z"/>
		<path class="st2" d="M218.2,180c-1.2,2-2.6,3.8-4,5.6c-0.7,0.9-1.5,1.8-2.2,2.6s-1.6,1.7-2.4,2.5c-1.7,1.6-3.5,2.9-5.2,4.5
			c-0.4,0.4-0.8,0.8-1.3,1.2c-0.4,0.4-0.8,0.8-1.2,1.2s-0.8,0.8-1.1,1.3s-0.7,0.9-1,1.4c-2.4,3.8-4.3,7.9-5.8,12.1
			c-1.6,4.2-2.9,8.5-3.3,13h-0.2c-0.6-2.3-0.6-4.7-0.4-7c0.2-2.3,0.8-4.6,1.5-6.9c0.7-2.2,1.8-4.4,2.9-6.4c0.6-1,1.2-2,1.9-3
			c0.4-0.5,0.7-0.9,1.1-1.4c0.4-0.5,0.8-0.9,1.2-1.3c0.8-0.8,1.6-1.7,2.5-2.4c0.8-0.8,1.7-1.5,2.5-2.3c1.6-1.6,2.9-3.5,4.4-5.3
			c0.7-0.9,1.5-1.7,2.3-2.5s1.6-1.6,2.4-2.4c1.7-1.6,3.3-3.1,5.2-4.6L218.2,180z"/>
		<path class="st2" d="M196.2,257.4c-0.7-3.1-1.2-6.2-1.7-9.3c-0.4-3.1-0.7-6.2-1-9.4c-0.5-6.3,0-12.6,0.8-18.8
			c0.2-1.6,0.5-3.1,0.9-4.7c0.1-0.4,0.2-0.8,0.4-1.1c0.1-0.4,0.3-0.7,0.5-1.1l0.5-1.1l0.5-1.1c0.4-0.7,0.8-1.4,1.2-2.1
			c0.2-0.4,0.5-0.7,0.7-1l0.4-0.5l0.4-0.5c1-1.3,2.3-2.4,3.7-3.3c1.4-0.9,3-1.5,4.6-1.9s3.2-0.6,4.8-0.7c3.2-0.2,6.4,0,9.6,0.4
			l-1.3,1.4c-0.7-3.8-1.3-7.6-1.9-11.4c-0.3-1.9-0.5-3.8-0.8-5.7c-0.2-1.9-0.5-3.8-0.6-5.8h0.2c0.6,1.9,1,3.7,1.6,5.6
			c0.5,1.9,1,3.7,1.4,5.6c0.9,3.7,1.7,7.5,2.5,11.2l0.3,1.6l-1.7-0.2c-3.1-0.3-6.1-0.6-9.1-0.5c-1.5,0-3,0.2-4.5,0.5
			c-0.4,0.1-0.7,0.2-1.1,0.3c-0.4,0.1-0.7,0.2-1.1,0.3l-1,0.4l-1,0.5c-2.6,1.3-4.8,3.5-6.4,6.1l-0.6,1l-0.6,1
			c-0.2,0.4-0.4,0.7-0.5,1c-0.2,0.4-0.3,0.7-0.4,1.1c-0.5,1.5-0.7,3-0.9,4.5c-0.4,3.1-0.2,6.2-0.1,9.3c0.2,3.1,0.4,6.2,0.5,9.3
			c0.3,6.2,0.7,12.5,0.8,18.7L196.2,257.4z"/>
		<path class="st2" d="M204.5,237.2c-1.2,0-2.5-0.5-3.4-1.3c-1-0.9-1.6-2.1-1.6-3.3c0-1.7,0.5-3,1.5-4c0.8-0.8,1.9-1.3,3.1-1.2
			c3.3,0,5.3,2.1,5.3,5.1c0,2.8-1.7,4.5-4.5,4.8C204.8,237.2,204.7,237.2,204.5,237.2z M204.1,228.1c-1,0-1.9,0.4-2.5,1
			c-0.8,0.8-1.2,2-1.2,3.5c0,1,0.5,2,1.3,2.8c0.9,0.8,2.1,1.2,3.3,1.1c2.4-0.2,3.8-1.7,3.8-4.1C208.7,229.7,206.9,228.1,204.1,228.1
			L204.1,228.1z"/>
		<path class="st1" d="M86.7,168.3c0,0-25.6,63.4-22.6,99.4c4.1,47.5,6.3,73.7-20.3,117.3c-20.7,33.9-36.2-8.3-37.7-59.5
			S49,173,49.5,164.4C49.5,164.4,68.6,183.3,86.7,168.3z"/>
		<path class="st2" d="M86.8,168.2c0,0.1,0,0.3,0,0.4l-0.1,0.2l-0.2,0.5l-0.3,0.9l-0.7,1.8l-1.3,3.6c-0.8,2.4-1.7,4.8-2.5,7.3
			c-1.6,4.8-3.1,9.7-4.7,14.6c-3,9.8-5.6,19.6-7.8,29.6c-2.2,9.9-3.9,20-4.3,30.2c0,1.3-0.1,2.5-0.1,3.8s0,2.5,0.1,3.8
			c0.1,2.5,0.4,5.1,0.6,7.6l0.6,7.6c0.2,2.5,0.4,5.1,0.5,7.7c0.7,10.2,1,20.5,0.3,30.8s-2.4,20.5-5.7,30.2
			c-3.1,9.8-7.4,19.1-12.4,28.1c-1.2,2.2-2.5,4.4-3.8,6.7c-1.2,2.2-2.7,4.4-4.2,6.5s-3.3,4-5.5,5.5c-1.1,0.7-2.2,1.4-3.5,1.8
			c-1.3,0.4-2.7,0.5-4,0.3s-2.6-0.8-3.7-1.6s-2.1-1.7-2.9-2.6c-1.7-2-3.1-4.2-4.3-6.5c-2.4-4.6-4-9.5-5.4-14.5
			c-2.7-10.1-4.3-20.3-5.3-30.5c-0.5-5.1-0.8-10.2-1.1-15.4c-0.1-5.2,0-10.3,0.5-15.5c0.1-1.3,0.2-2.5,0.4-3.9
			c0.2-1.3,0.3-2.5,0.5-3.8c0.4-2.5,0.7-5.1,1.2-7.6l0.7-3.8l0.7-3.8c0.5-2.5,1.1-5,1.6-7.5c2.3-10,5.1-19.9,8-29.7
			c3-9.8,6.1-19.6,9.5-29.2c3.4-9.7,6.9-19.3,10.5-28.9l5.4-14.4c0.9-2.4,1.8-4.8,2.6-7.2c0.4-1.2,0.8-2.4,1.2-3.6
			c0.2-0.6,0.4-1.2,0.5-1.8c0.1-0.3,0.2-0.6,0.2-0.9l0.1-0.8l0.2-1.3l0.9,0.8c2.4,2.3,5.2,4.3,8.2,5.9c3,1.6,6.2,2.9,9.5,3.5
			c1.7,0.3,3.4,0.5,5,0.4c1.7-0.1,3.4-0.3,5-0.7c1.6-0.5,3.2-1.1,4.7-1.9c0.8-0.4,1.5-0.8,2.2-1.3c0.4-0.2,0.7-0.5,1.1-0.8
			L86.8,168.2z M86.6,168.4c-0.7,0.6-1.2,1.1-1.9,1.6c-0.7,0.5-1.4,1-2.2,1.4c-1.5,0.9-3.1,1.6-4.7,2.1c-1.7,0.5-3.4,0.8-5.1,0.9
			c-1.7,0.1-3.5,0-5.2-0.2c-3.4-0.5-6.8-1.7-9.8-3.3c-3.1-1.6-5.9-3.6-8.6-6l1.1-0.4l-0.1,1c-0.1,0.4-0.1,0.6-0.2,1
			c-0.1,0.6-0.3,1.3-0.5,1.9c-0.4,1.2-0.8,2.4-1.2,3.7c-0.8,2.4-1.6,4.8-2.5,7.3c-1.7,4.8-3.4,9.6-5.2,14.5
			c-3.4,9.6-6.8,19.3-10.1,29c-6.5,19.4-12.7,38.9-17.3,58.7c-0.6,2.5-1.2,5-1.7,7.5l-0.8,3.7l-0.7,3.7c-0.5,2.5-0.8,5-1.2,7.5
			c-0.2,1.3-0.3,2.5-0.5,3.8s-0.3,2.5-0.4,3.8c-0.6,5.1-0.7,10.1-0.6,15.2C7.3,331.9,7.6,337,8,342c0.4,5.1,1,10.2,1.8,15.2
			s1.8,10,3,15s2.9,9.8,5.1,14.3c1.1,2.3,2.4,4.5,4,6.3c1.6,1.9,3.6,3.5,6,4c1.2,0.2,2.4,0.1,3.6-0.2c1.2-0.4,2.3-0.9,3.3-1.7
			c2.1-1.5,3.8-3.3,5.3-5.3c1.6-2,2.9-4.1,4.2-6.4c1.3-2.2,2.6-4.4,3.9-6.6c4.9-8.9,9.1-18.3,12.1-28c3-9.8,4.5-19.9,5-30
			c0.5-10.2-0.1-20.4-0.8-30.5c-0.2-2.5-0.4-5.1-0.6-7.6l-0.6-7.6c-0.2-2.5-0.4-5.1-0.6-7.7c-0.1-1.3,0-2.6-0.1-3.9
			c0-1.3,0.1-2.6,0.1-3.9c0.5-10.3,2.3-20.4,4.6-30.5c2.3-10,5.2-19.8,8.3-29.6c1.6-4.9,3.3-9.7,5.1-14.5c0.9-2.4,1.8-4.8,2.7-7.2
			l1.4-3.6l0.7-1.8l0.4-0.9l0.2-0.5l0.1-0.2C86.5,168.4,86.5,168.5,86.6,168.4z"/>
		<g>
			<polygon class="st8" points="70.5,116 64.3,123.5 62.9,115.1 70.5,114 			"/>
			<g>
				<g>
					<path class="st8" d="M76,116c0,0,4.1-40-1.9-45.7S67.3,102,62.8,115"/>
				</g>
				<g>
					<g>
						<g>
							<g>
								<defs>
									<path id="SVGID_19_" d="M76,116c0,0,4.1-40-1.9-45.7S67.3,102,62.8,115"/>
								</defs>
								<clipPath id="SVGID_20_">
									<use xlink:href="#SVGID_19_"  style="overflow:visible;"/>
								</clipPath>
								<g class="st14">
								</g>
							</g>
						</g>
					</g>
				</g>
				<g>
					<path class="st2" d="M75.8,116c0-4,0.1-7.9,0.1-11.9c0.1-3.9,0.2-7.9,0.4-11.8c0.2-3.9,0.5-7.9,0.2-11.8
						c-0.1-1.9-0.4-3.9-0.9-5.8c-0.2-1-0.6-1.8-1-2.7c-0.1-0.2-0.2-0.4-0.4-0.6c-0.1-0.2-0.2-0.4-0.4-0.5c-0.2-0.3-0.6-0.6-0.9-0.6
						c-0.2,0-0.4,0.1-0.7,0.4c-0.2,0.3-0.5,0.7-0.6,1.1c-0.4,0.8-0.6,1.8-0.8,2.7c-0.5,1.9-0.8,3.8-1.1,5.7
						c-0.6,3.9-1.1,7.8-1.6,11.7c-0.6,3.9-1.2,7.8-2,11.7c-0.8,3.9-1.7,7.8-3.3,11.5l-0.2-0.1c0.5-1.9,0.7-3.9,1-5.8
						c0.2-1.9,0.5-3.9,0.7-5.9c0.4-3.9,0.9-7.8,1.3-11.7c0.5-3.9,1.1-7.9,1.9-11.7c0.4-1.9,0.8-3.9,1.5-5.8c0.3-1,0.7-1.9,1.2-2.9
						c0.2-0.5,0.6-1,1-1.4c0.2-0.2,0.5-0.4,0.8-0.6c0.4-0.1,0.8-0.1,1.1,0c0.7,0.2,1.1,0.7,1.5,1.1c0.2,0.2,0.4,0.5,0.5,0.7
						s0.2,0.5,0.4,0.7c0.2,0.5,0.4,1,0.5,1.5s0.3,1,0.4,1.5c0.4,2,0.7,3.9,0.9,5.9c0.4,4,0.8,7.9,1,11.9c0,2,0,4-0.1,5.9
						c-0.1,2-0.2,4-0.4,5.9c-0.4,4-0.9,7.9-1.7,11.8L75.8,116z"/>
				</g>
			</g>
			<g>
				<path class="st8" d="M64.7,122.7c0,0,0.8-31.8-4.3-36.7c-5.1-4.9-8.9,34.1-11.1,44.9c-2.2,10.8-7.3,20.2-1.7,33.8
					c2.6,6.2,13.8,11.2,21.3,11.2s13.4-3.4,16-5.7c2.5-2.3,5.3,0.5,9.3,0.1c8-0.8,13.3-10,16.8-18.5s10.3-11.1,12.2-16
					s9.1-7.9,8.9-11.7c-0.2-3.8-11.1-4.6-19,5.7c-7.8,10.3-14.6,10-16.2,2.2c-1.6-7.9,0.8-21.2,4.9-22s8.2,3.2,8.3,6
					c0.1,2.8,3.5,12,11.3,10.5c7.8-1.6-2.9-12.9-3.3-19.1c-0.5-6.2-2.3-5.1-4.9-7c-2.7-1.9-11.6-11-14.8-9.8s-8.4,17.5-11.3,18.1
					s8.7-40.8,1.9-44.8c-6.8-4-6.2,20-13.4,42.6"/>
				<g>
					<g>
						<g>
							<g>
								<defs>
									<path id="SVGID_21_" d="M64.7,122.7c0,0,0.8-31.8-4.3-36.7c-5.1-4.9-8.9,34.1-11.1,44.9c-2.2,10.8-7.3,20.2-1.7,33.8
										c2.6,6.2,13.8,11.2,21.3,11.2s13.4-3.4,16-5.7c2.5-2.3,5.3,0.5,9.3,0.1c8-0.8,13.3-10,16.8-18.5s10.3-11.1,12.2-16
										s9.1-7.9,8.9-11.7c-0.2-3.8-11.1-4.6-19,5.7c-7.8,10.3-14.6,10-16.2,2.2c-1.6-7.9,0.8-21.2,4.9-22s8.2,3.2,8.3,6
										c0.1,2.8,3.5,12,11.3,10.5c7.8-1.6-2.9-12.9-3.3-19.1c-0.5-6.2-2.3-5.1-4.9-7c-2.7-1.9-11.6-11-14.8-9.8
										s-8.4,17.5-11.3,18.1s8.7-40.8,1.9-44.8c-6.8-4-6.2,20-13.4,42.6"/>
								</defs>
								<clipPath id="SVGID_22_">
									<use xlink:href="#SVGID_21_"  style="overflow:visible;"/>
								</clipPath>
								<g class="st15">
								</g>
							</g>
						</g>
					</g>
					<g>
						<g>
							<g>
								<defs>
									<path id="SVGID_23_" d="M64.7,122.7c0,0,0.8-31.8-4.3-36.7c-5.1-4.9-8.9,34.1-11.1,44.9c-2.2,10.8-7.3,20.2-1.7,33.8
										c2.6,6.2,13.8,11.2,21.3,11.2s13.4-3.4,16-5.7c2.5-2.3,5.3,0.5,9.3,0.1c8-0.8,13.3-10,16.8-18.5s10.3-11.1,12.2-16
										s9.1-7.9,8.9-11.7c-0.2-3.8-11.1-4.6-19,5.7c-7.8,10.3-14.6,10-16.2,2.2c-1.6-7.9,0.8-21.2,4.9-22s8.2,3.2,8.3,6
										c0.1,2.8,3.5,12,11.3,10.5c7.8-1.6-2.9-12.9-3.3-19.1c-0.5-6.2-2.3-5.1-4.9-7c-2.7-1.9-11.6-11-14.8-9.8
										s-8.4,17.5-11.3,18.1s8.7-40.8,1.9-44.8c-6.8-4-6.2,20-13.4,42.6"/>
								</defs>
								<clipPath id="SVGID_24_">
									<use xlink:href="#SVGID_23_"  style="overflow:visible;"/>
								</clipPath>
								<g class="st16">
								</g>
							</g>
						</g>
					</g>
					<g>
						<g>
							<g>
								<defs>
									<path id="SVGID_25_" d="M64.7,122.7c0,0,0.8-31.8-4.3-36.7c-5.1-4.9-8.9,34.1-11.1,44.9c-2.2,10.8-7.3,20.2-1.7,33.8
										c2.6,6.2,13.8,11.2,21.3,11.2s13.4-3.4,16-5.7c2.5-2.3,5.3,0.5,9.3,0.1c8-0.8,13.3-10,16.8-18.5s10.3-11.1,12.2-16
										s9.1-7.9,8.9-11.7c-0.2-3.8-11.1-4.6-19,5.7c-7.8,10.3-14.6,10-16.2,2.2c-1.6-7.9,0.8-21.2,4.9-22s8.2,3.2,8.3,6
										c0.1,2.8,3.5,12,11.3,10.5c7.8-1.6-2.9-12.9-3.3-19.1c-0.5-6.2-2.3-5.1-4.9-7c-2.7-1.9-11.6-11-14.8-9.8
										s-8.4,17.5-11.3,18.1s8.7-40.8,1.9-44.8c-6.8-4-6.2,20-13.4,42.6"/>
								</defs>
								<clipPath id="SVGID_26_">
									<use xlink:href="#SVGID_25_"  style="overflow:visible;"/>
								</clipPath>
								<g class="st17">
								</g>
							</g>
						</g>
					</g>
					<g>
						<g>
							<g>
								<defs>
									<path id="SVGID_27_" d="M64.7,122.7c0,0,0.8-31.8-4.3-36.7c-5.1-4.9-8.9,34.1-11.1,44.9c-2.2,10.8-7.3,20.2-1.7,33.8
										c2.6,6.2,13.8,11.2,21.3,11.2s13.4-3.4,16-5.7c2.5-2.3,5.3,0.5,9.3,0.1c8-0.8,13.3-10,16.8-18.5s10.3-11.1,12.2-16
										s9.1-7.9,8.9-11.7c-0.2-3.8-11.1-4.6-19,5.7c-7.8,10.3-14.6,10-16.2,2.2c-1.6-7.9,0.8-21.2,4.9-22s8.2,3.2,8.3,6
										c0.1,2.8,3.5,12,11.3,10.5c7.8-1.6-2.9-12.9-3.3-19.1c-0.5-6.2-2.3-5.1-4.9-7c-2.7-1.9-11.6-11-14.8-9.8
										s-8.4,17.5-11.3,18.1s8.7-40.8,1.9-44.8c-6.8-4-6.2,20-13.4,42.6"/>
								</defs>
								<clipPath id="SVGID_28_">
									<use xlink:href="#SVGID_27_"  style="overflow:visible;"/>
								</clipPath>
								<g class="st18">
								</g>
							</g>
						</g>
					</g>
					<g>
						<g>
							<g>
								<defs>
									<path id="SVGID_29_" d="M64.7,122.7c0,0,0.8-31.8-4.3-36.7c-5.1-4.9-8.9,34.1-11.1,44.9c-2.2,10.8-7.3,20.2-1.7,33.8
										c2.6,6.2,13.8,11.2,21.3,11.2s13.4-3.4,16-5.7c2.5-2.3,5.3,0.5,9.3,0.1c8-0.8,13.3-10,16.8-18.5s10.3-11.1,12.2-16
										s9.1-7.9,8.9-11.7c-0.2-3.8-11.1-4.6-19,5.7c-7.8,10.3-14.6,10-16.2,2.2c-1.6-7.9,0.8-21.2,4.9-22s8.2,3.2,8.3,6
										c0.1,2.8,3.5,12,11.3,10.5c7.8-1.6-2.9-12.9-3.3-19.1c-0.5-6.2-2.3-5.1-4.9-7c-2.7-1.9-11.6-11-14.8-9.8
										s-8.4,17.5-11.3,18.1s8.7-40.8,1.9-44.8c-6.8-4-6.2,20-13.4,42.6"/>
								</defs>
								<clipPath id="SVGID_30_">
									<use xlink:href="#SVGID_29_"  style="overflow:visible;"/>
								</clipPath>
								<g class="st19">
								</g>
							</g>
						</g>
					</g>
				</g>
				<g>
					<path class="st2" d="M64.6,122.6c0-5.2-0.1-10.3-0.5-15.5c-0.4-5.1-0.8-10.3-1.9-15.2c-0.3-1.2-0.6-2.4-1.1-3.6
						c-0.2-0.6-0.5-1.1-0.8-1.6c-0.2-0.2-0.4-0.4-0.5-0.5c-0.2-0.1-0.2-0.1-0.3-0.1c-0.2,0.1-0.7,0.6-0.9,1.1
						c-0.3,0.5-0.5,1.1-0.7,1.7c-0.4,1.2-0.8,2.4-1.1,3.6c-1.2,5-2,10-2.9,15.1c-0.8,5.1-1.5,10.2-2.2,15.3
						c-0.4,2.5-0.7,5.1-1.2,7.7s-1.2,5.1-1.8,7.6c-1.3,5-2.6,9.9-2.4,14.9c0.1,2.5,0.5,5,1.1,7.4c0.4,1.2,0.7,2.4,1.2,3.5
						c0.4,1.1,1.1,2.1,1.9,3c1.6,1.8,3.7,3.3,5.9,4.4c2.2,1.2,4.6,2.1,7,2.8c2.4,0.6,4.9,1,7.4,0.8c2.5-0.1,5-0.7,7.3-1.6
						c2.3-0.9,4.6-2.1,6.5-3.7c0.5-0.5,1.2-0.9,2-1c0.7-0.1,1.5,0,2.1,0.1c1.3,0.3,2.5,0.7,3.7,0.8c1.2,0.2,2.4,0,3.6-0.3
						s2.3-0.8,3.4-1.5c2.1-1.3,3.9-3.2,5.4-5.3s2.8-4.3,4-6.5c0.6-1.1,1.1-2.3,1.6-3.5s1-2.4,1.7-3.5c1.3-2.3,3-4.3,4.8-6.2
						s3.8-3.5,5.2-5.6c0.4-0.5,0.6-1.1,0.9-1.6c0.2-0.6,0.6-1.2,0.9-1.8c0.7-1.1,1.6-2.1,2.6-3c0.9-0.9,1.9-1.8,2.8-2.7
						c0.9-0.9,1.8-1.8,2.2-2.9c0.2-0.5,0.3-1.1,0.2-1.6s-0.5-0.8-1-1.1c-1-0.6-2.3-0.7-3.5-0.6c-2.4,0.1-4.9,1-7,2.3
						c-2.2,1.3-4,3-5.6,4.9c-0.8,1-1.6,2.1-2.4,3c-0.8,1-1.8,2-2.8,2.9s-2.1,1.7-3.3,2.4c-1.2,0.6-2.6,1.1-4.1,1.1
						c-0.7,0-1.5-0.2-2.2-0.6s-1.3-0.9-1.7-1.5c-1-1.2-1.5-2.5-1.8-3.8c-0.6-2.7-0.7-5.3-0.7-8c0.1-2.7,0.4-5.3,1-7.9
						c0.3-1.3,0.7-2.6,1.2-3.9c0.3-0.6,0.6-1.2,1-1.9c0.4-0.6,0.9-1.2,1.6-1.7c0.4-0.2,0.8-0.5,1.3-0.6c0.4-0.1,0.8-0.1,1.1-0.1
						c0.8,0,1.5,0.1,2.2,0.3c1.4,0.4,2.7,1.2,3.7,2.2s1.9,2.2,2.4,3.7c0.1,0.2,0.1,0.4,0.1,0.6v0.5c0,0.2,0.1,0.5,0.1,0.8
						c0.1,0.6,0.3,1.1,0.5,1.7c0.8,2.2,2.2,4.4,4,5.7c0.9,0.6,1.9,1,3,1.1c0.5,0.1,1.1,0,1.7,0c0.6-0.1,1.1-0.2,1.5-0.4
						c0.4-0.2,0.6-0.4,0.8-0.7c0.1-0.3,0.2-0.8,0.1-1.3c-0.1-1-0.6-2.2-1.1-3.3c-1-2.3-2.3-4.5-3.4-6.9c-0.6-1.2-1.1-2.4-1.5-3.9
						c-0.2-0.7-0.2-1.5-0.3-2.1c-0.1-0.6-0.1-1.2-0.3-1.8c-0.1-0.5-0.3-1.1-0.5-1.4c-0.2-0.4-0.5-0.6-1-0.8
						c-0.5-0.2-1.1-0.5-1.8-0.9c-0.6-0.4-1.2-0.8-1.7-1.2c-2-1.7-3.9-3.4-5.9-5c-1-0.8-2-1.6-3-2.3c-1-0.7-2.1-1.3-3-1.6
						c-0.2-0.1-0.5-0.1-0.6-0.1s-0.1,0-0.2,0c0,0,0,0-0.1,0.1c-0.3,0.2-0.7,0.6-1,1.1c-0.7,1-1.3,2.1-1.9,3.2
						c-1.2,2.2-2.3,4.6-3.4,6.9c-0.6,1.2-1.2,2.3-1.8,3.5c-0.4,0.6-0.7,1.2-1.1,1.7c-0.2,0.3-0.5,0.6-0.8,0.8
						c-0.1,0.1-0.3,0.3-0.5,0.4c-0.1,0.1-0.2,0.1-0.4,0.2c-0.1,0-0.1,0.1-0.2,0.1c0,0-0.2,0.1-0.4,0.1c-0.2,0-0.5-0.1-0.7-0.2
						s-0.3-0.2-0.4-0.4c-0.2-0.2-0.2-0.4-0.3-0.6c-0.1-0.3-0.1-0.5-0.1-0.7c0-0.4,0-0.7,0-1.1c0-0.7,0.1-1.3,0.2-2
						c0.2-1.3,0.4-2.6,0.6-3.9l1.3-7.6c0.9-5.1,1.7-10.2,2.3-15.2c0.2-2.5,0.5-5.1,0.4-7.6c0-1.2-0.1-2.5-0.4-3.6
						c-0.1-0.6-0.3-1.1-0.6-1.6c-0.1-0.2-0.3-0.4-0.5-0.6c-0.1-0.1-0.2-0.1-0.3-0.2c-0.1-0.1-0.2-0.1-0.4-0.2
						c-0.5-0.2-0.8-0.2-1.2,0c-0.4,0.2-0.7,0.6-1.1,1.1c-0.6,1-1,2.2-1.4,3.4c-0.7,2.4-1.2,5-1.7,7.5c-1.9,10.1-3.7,20.3-7.1,30.1
						l-0.2-0.1c1.5-5,2.6-10,3.5-15c1-5.1,1.7-10.2,2.6-15.2c0.5-2.5,0.9-5.1,1.6-7.6c0.4-1.3,0.7-2.5,1.5-3.7
						c0.4-0.6,0.8-1.2,1.6-1.7c0.4-0.2,0.8-0.4,1.3-0.4s0.8,0.1,1.2,0.2c0.2,0.1,0.4,0.1,0.5,0.2c0.2,0.1,0.4,0.2,0.5,0.4
						c0.3,0.3,0.6,0.6,0.8,0.9c0.4,0.6,0.6,1.3,0.8,2c0.4,1.3,0.5,2.7,0.5,4c0.1,2.7,0,5.2-0.3,7.9c-0.5,5.2-1.3,10.3-2.1,15.4
						l-1.2,7.6c-0.2,1.3-0.4,2.5-0.5,3.8c-0.1,0.6-0.1,1.2-0.1,1.8c0,0.3,0,0.6,0,0.8c0,0.1,0,0.2,0,0.2s0,0-0.1-0.1
						c0-0.1-0.1-0.1-0.2-0.2s-0.3-0.1-0.5-0.1c-0.1,0-0.2,0-0.2,0l0,0l0,0c0,0,0.1-0.1,0.2-0.2c0.2-0.1,0.4-0.4,0.5-0.6
						c0.4-0.5,0.7-1,1-1.5c0.6-1.1,1.2-2.2,1.7-3.4c1.1-2.3,2.2-4.6,3.4-7c0.6-1.2,1.2-2.3,2.1-3.5c0.4-0.6,0.8-1.2,1.6-1.7
						c0.2-0.1,0.5-0.3,0.7-0.4c0.3-0.1,0.5-0.1,0.8-0.1c0.5,0,0.9,0.1,1.3,0.2c1.5,0.5,2.7,1.2,3.8,1.9c1.1,0.7,2.2,1.6,3.2,2.4
						c2.1,1.6,4,3.4,5.9,5c1,0.8,1.8,1.2,3.1,1.8c0.6,0.3,1.5,0.9,1.9,1.7c0.5,0.7,0.7,1.5,0.8,2.2c0.1,0.7,0.2,1.4,0.3,2.1
						c0.1,0.7,0.1,1.2,0.2,1.8c0.3,1.1,0.7,2.3,1.3,3.4c1.1,2.3,2.3,4.5,3.4,7c0.5,1.2,1,2.5,1.2,4c0.1,0.7,0.1,1.6-0.3,2.5
						s-1.2,1.6-1.9,1.9c-0.7,0.4-1.5,0.5-2.2,0.6s-1.5,0.1-2.2,0c-1.5-0.1-2.9-0.7-4.1-1.6c-2.4-1.7-3.9-4.2-4.8-6.8
						c-0.2-0.6-0.4-1.3-0.6-2c-0.1-0.4-0.1-0.7-0.2-1.1v-0.4c0-0.1,0-0.2-0.1-0.4c-0.2-1-1-1.9-1.8-2.7s-1.8-1.4-2.9-1.7
						c-0.5-0.1-1.1-0.2-1.6-0.2c-0.2,0-0.5,0-0.8,0.1c-0.1,0-0.3,0.1-0.5,0.2c-0.7,0.5-1.4,1.6-1.8,2.7c-0.5,1.1-0.8,2.3-1.2,3.5
						c-0.6,2.4-1,4.9-1.1,7.4s0,5.1,0.5,7.4c0.3,1.2,0.7,2.3,1.4,3.1c0.7,0.8,1.6,1.4,2.7,1.5s2.2-0.3,3.3-0.8
						c1.1-0.5,2.1-1.3,3-2.1c1-0.8,1.8-1.7,2.7-2.7c0.8-1,1.6-1.9,2.4-3c1.7-2,3.7-3.8,6-5.1c2.3-1.3,4.9-2.2,7.6-2.3
						c1.3,0,2.8,0.1,4,0.8c0.6,0.4,1.2,1,1.5,1.8c0.2,0.8,0,1.6-0.2,2.2c-0.6,1.3-1.6,2.3-2.5,3.1c-1,0.9-1.9,1.7-2.9,2.6
						c-0.9,0.9-1.8,1.8-2.5,2.8c-0.4,0.5-0.6,1.1-0.8,1.6c-0.2,0.6-0.6,1.2-1,1.8c-1.5,2.2-3.6,3.9-5.3,5.7c-1.8,1.8-3.5,3.8-4.7,6
						c-0.6,1.1-1.1,2.3-1.7,3.5c-0.5,1.2-1.1,2.4-1.6,3.5c-1.1,2.3-2.4,4.6-4,6.7c-1.5,2.1-3.3,4.1-5.6,5.5
						c-1.1,0.7-2.3,1.3-3.6,1.7c-1.3,0.4-2.7,0.5-4,0.4s-2.6-0.6-3.8-0.8c-0.6-0.1-1.2-0.2-1.7-0.1s-1,0.4-1.4,0.8
						c-2,1.8-4.3,3.1-6.8,4.1c-2.4,1-5.1,1.6-7.7,1.8c-2.7,0.2-5.3-0.1-7.9-0.7c-2.6-0.6-5.1-1.6-7.4-2.8c-2.3-1.2-4.6-2.7-6.5-4.7
						c-0.9-1-1.8-2.2-2.3-3.5c-0.5-1.2-1-2.5-1.3-3.7c-0.7-2.5-1.2-5.2-1.3-7.9s0.2-5.3,0.7-7.9c0.5-2.6,1.2-5.1,1.8-7.6
						c0.7-2.5,1.4-5,1.9-7.4c0.5-2.5,0.9-5,1.3-7.6c0.8-5.1,1.5-10.2,2.4-15.3c0.8-5.1,1.8-10.2,3.1-15.2c0.4-1.3,0.7-2.5,1.2-3.7
						c0.2-0.6,0.5-1.2,0.9-1.8c0.2-0.3,0.4-0.6,0.6-0.9c0.2-0.3,0.6-0.6,1.1-0.8c0.5-0.2,1.2,0,1.5,0.2c0.4,0.3,0.6,0.6,0.8,0.8
						c0.4,0.6,0.7,1.2,1,1.8c0.5,1.3,0.8,2.5,1.1,3.8c1,5.1,1.3,10.3,1.5,15.5c0.1,5.2,0.1,10.3-0.1,15.5L64.6,122.6z"/>
				</g>
				<path class="st8" d="M118.8,125.1c0,0-1.3-0.3-2.5-0.8c0,0,1.4-1.7,3.1-2.3c1.7-0.6,3-1,3-1s0.3,0.9,0.4,1.8
					C122.8,122.8,120.2,124.8,118.8,125.1z"/>
				<g>
					<g>
						<g>
							<g>
								<defs>
									<path id="SVGID_31_" d="M118.5,125.4c0,0-1.3-0.4-1.6-0.5c0,0,1.4-1.7,3.1-2.3c1.7-0.6,2.8-0.9,2.8-0.9s0.2,0.7,0.3,1.3
										C123,123,119.9,125.1,118.5,125.4z"/>
								</defs>
								<clipPath id="SVGID_32_">
									<use xlink:href="#SVGID_31_"  style="overflow:visible;"/>
								</clipPath>
								<g class="st20">
								</g>
							</g>
						</g>
					</g>
				</g>
				<g>
					<g>
						<g>
							<g>
								<defs>
									<path id="SVGID_33_" d="M118.5,125.4c0,0-1.3-0.4-1.6-0.5c0,0,1.4-1.7,3.1-2.3c1.7-0.6,2.8-0.9,2.8-0.9s0.2,0.7,0.3,1.3
										C123,123,119.9,125.1,118.5,125.4z"/>
								</defs>
								<clipPath id="SVGID_34_">
									<use xlink:href="#SVGID_33_"  style="overflow:visible;"/>
								</clipPath>
								<g class="st21">
								</g>
							</g>
						</g>
					</g>
				</g>
			</g>
			<g class="st9">
				<path class="st10" d="M84.1,166.6c-0.6-1.3-0.9-2.7-1.2-4.1c-0.2-1.4-0.4-2.9-0.4-4.3c0-2.9,0.5-5.8,1.4-8.6
					c1-2.7,2.3-5.3,3.9-7.7c0.8-1.2,1.7-2.3,2.7-3.4c0.5-0.5,1-1.1,1.5-1.6l1.6-1.5l0,0c-2,2.1-3.9,4.2-5.4,6.7
					c-0.8,1.2-1.5,2.4-2.2,3.7c-0.6,1.3-1.2,2.6-1.6,4c-0.9,2.7-1.5,5.6-1.5,8.5c0,1.5,0.1,2.9,0.3,4.3
					C83.3,163.9,83.6,165.3,84.1,166.6L84.1,166.6z"/>
			</g>
			<g class="st9">
				<path class="st10" d="M95.2,135.4c-1.7,0-3.4,0-5.1,0.1s-3.4,0.1-5.1,0.3c-3.4,0.2-6.8,0.6-10.2,1.2c-3.4,0.5-6.7,1.3-9.9,2.4
					c-1.6,0.5-3.2,1.1-4.8,1.8s-3.1,1.5-4.5,2.4l0,0c2.8-2,5.9-3.4,9.2-4.5c1.6-0.6,3.3-1,4.9-1.4c1.7-0.4,3.3-0.7,5-1
					c3.4-0.6,6.8-0.9,10.2-1.1C88.4,135.3,91.8,135.2,95.2,135.4L95.2,135.4z"/>
			</g>
			<g class="st9">
				<path class="st10" d="M50.3,132c1.5,0,3-0.1,4.5-0.1s3-0.1,4.5-0.2c1.5-0.1,3-0.2,4.5-0.3c1.5-0.1,3-0.3,4.5-0.5
					c3-0.3,5.9-0.8,8.9-1.4c1.5-0.3,2.9-0.7,4.4-1.2c1.4-0.5,2.8-1,4.2-1.7l0,0c-1.3,0.7-2.7,1.3-4.1,1.8s-2.9,0.9-4.4,1.2
					c-2.9,0.7-5.9,1.2-8.9,1.5c-3,0.4-6,0.6-9,0.7C56.4,132.1,53.3,132.1,50.3,132L50.3,132z"/>
			</g>
		</g>
		<path class="st6" d="M169.8,503.2c0.2-14.1,2.2-33.5,2.2-33.5c-54.9,4.3-72.8-3.9-72.8-3.9c-0.6,5-1.1,9.3-1.5,13.2
			C107.2,485.3,135.9,502.3,169.8,503.2z"/>
		<path class="st6" d="M171.9,503.2c39.4,2.1,79.9-5.2,107.1-23.1c-0.5-9.8-0.8-20.1-0.8-20.1s-13.2,1.1-26.1,3.3
			c-29.4,5-78.3,6.3-78.3,6.3c-1.4,16.3-1.9,27.2-2.2,33.5C171.7,503.2,171.8,503.2,171.9,503.2z"/>
		<path class="st1" d="M233.3,95c0,0,6.7-10.5,9.2-10.5s7.1,5,7.1,7.1s-8.8,25.1-10.5,25.1s-5.9,0-5.9,0S230.6,105.5,233.3,95z"/>
		<path class="st1" d="M149,91.1c0,0-5.4-10.8-7.5-10.8c-2,0-6.4,9.3-6.1,14.2c0.4,4.9,6.3,19.6,8,19.6s5.6-3,5.6-3
			S151.9,101.3,149,91.1z"/>
		<path class="st1" d="M151.3,56.3c0,0,2.4,47.2,3.3,49.3c0.8,2.1,11.8,16.3,12.4,17.8c0.6,1.5,1.5,8.9,1.5,8.9s5.7-9.4,6.3-10.2
			c0.6-0.8,14.8-2.8,18.9-2.8c4.1,0,16,3.1,18.6,4.1s5.6,8.8,5.6,8.8s14-26.3,14.3-30.6c0.2-4.3,0-40.4,0-40.4s-23.3-7.6-38.3-7.6
			C178.9,53.7,151.3,56.3,151.3,56.3z"/>
		<path class="st2" d="M152,55.9c0,0-4,1.8-5.6,3s1.8,63.6,1.8,64.5s17.4,25.5,35.5,45.7c1.8,2,19.4,1.5,22.6,0
			c3.3-1.5,26.6-42.1,28.8-48.2s1-53.9,0-56.5c-1-2.5-5.1-3.2-5.1-3.2s0.1,40.4-1.2,45.6c-1.3,5.1-10.6,25.3-10.6,25.3
			s-4.4-10.4-6.3-11c-1.9-0.6-14.8-2.5-17.1-2.5c-2.2,0-17.9,2.1-19.5,2.8c-1.6,0.6-6.4,7.3-6.4,7.3s-1.8-9.6-3.4-10.2
			s-10.9-9.6-10.5-16C155.2,96,152,55.9,152,55.9z"/>
		<path class="st1" d="M172.6,134.7c0,0,4.1-6.4,5-6.7c0.8-0.2,14.2,3.4,16.3,3.3c2.2-0.1,13.8-3.8,15.3-3.3c1.5,0.4,4.7,5,5,6.7
			c0.2,1.7-9.9,12.9-13.8,12.9c-3.9,0-7-5-7-5s-3.3,5.4-6.1,5C184.4,147.3,176.3,140.9,172.6,134.7z"/>
		<path class="st3" d="M135.7,69.4c0,0,5.7-6.7,10.6-10.5c0,0-0.5,3.6-0.4,10.5s0.2,7.4,0.2,7.4S138,71.6,135.7,69.4z"/>
		<path class="st3" d="M235,64.5c0,0,12.1,9.8,12.5,10.7c0.4,0.9-11.6,5.1-11.6,5.1L235,64.5z"/>
		<path class="st7" d="M136.8,63.3c0,0,4.6-59.8,57.9-59.2s49.7,64.3,49.7,64.3s-8.4-8.8-11.4-8.8s-36.5-8.2-39.8-8.2
			s-33.1,2.4-34.1,2.4s-12,1.8-12,1.8L136.8,63.3z"/>
		<path class="st2" d="M244.8,69.4l-0.6-0.6c-2.3-2.4-8.8-8.7-11.1-8.7c-1.5,0-10-1.9-19-3.9c-9.4-2.1-19.1-4.3-20.8-4.3
			c-2.2,0-15.8,1-24.8,1.7c-5.7,0.4-9,0.7-9.3,0.7c-0.8,0-8.7,1.2-11.8,1.7l-10.9,8.2l0.1-0.8c0-0.1,1.2-15.2,9-30
			c7.2-13.7,21.6-29.9,49.3-29.6C209.1,4,220.6,8.6,229,17.7c17.5,18.8,15.9,50.6,15.9,50.9L244.8,69.4z M193.3,51
			c1.8,0,11.5,2.2,21,4.3c8.6,1.9,17.4,3.9,18.8,3.9c2.7,0,8.9,6.1,11,8.3c0.1-5.3-0.1-32.6-15.7-49.4C220,9.3,208.8,4.7,194.8,4.6
			c-27.3-0.3-41.5,15.7-48.6,29.1c-6.7,12.6-8.5,25.4-8.8,28.8l9.7-7.3h0.1c0.5-0.1,11-1.8,12-1.8c0.3,0,4.5-0.3,9.3-0.7
			C178,52,191.1,51,193.3,51z"/>
		<path class="st7" d="M163.2,51.1c0,0,1.3-14.3,2.2-16.6c1-2.2,15.6-3.5,20.2-10.8s4-19.6,4-19.6s2-2.8,6.9-2.6
			c4.9,0.1,5.2,3.1,5.2,3.1s-0.3,18.1,5,21.7s15.5,9,16.8,10c1.2,1,0,18.6,0,18.6s-19-5.2-29.1-5.4C184.2,49.4,176,49.3,163.2,51.1z
			"/>
		<path class="st2" d="M163.1,51.1c-0.1-0.3,0-0.4,0-0.6V50v-1l0.1-1.9l0.2-3.8c0.2-2.5,0.4-5,0.8-7.5c0-0.3,0.1-0.6,0.2-1
			c0-0.1,0.1-0.4,0.1-0.5l0.1-0.2c0.1-0.1,0.1-0.2,0.2-0.4c0.3-0.4,0.6-0.6,1-0.8c0.3-0.2,0.6-0.3,0.9-0.5c1.2-0.5,2.4-0.9,3.6-1.3
			c2.4-0.8,4.7-1.6,7-2.6c2.2-1,4.4-2.2,6-3.9c0.4-0.4,0.8-0.8,1.1-1.3c0.4-0.4,0.6-1,0.9-1.5c0.3-0.5,0.5-1.1,0.8-1.6
			c0.2-0.6,0.4-1.1,0.6-1.7c1.5-4.6,2.1-9.6,2.1-14.5V3.9l0.1-0.1c0.5-0.6,1-1,1.5-1.3c0.5-0.4,1.1-0.6,1.7-0.8
			c1.2-0.4,2.4-0.6,3.7-0.6c1.2,0,2.5,0.2,3.6,0.7c1.2,0.5,2.2,1.5,2.5,2.9l0,0c0,2.5,0.1,5.1,0.3,7.6s0.6,5,1.3,7.5
			c0.4,1.2,0.7,2.4,1.3,3.5c0.5,1.1,1.2,2.1,2.2,2.7c2.1,1.3,4.3,2.6,6.5,3.8l6.7,3.6c1.1,0.6,2.2,1.2,3.4,1.9l0.2,0.2l0.1,0.1
			l0.2,0.2c0.2,0.2,0.2,0.3,0.2,0.5c0.1,0.1,0.1,0.2,0.1,0.3c0.1,0.4,0.1,0.7,0.2,1.1c0.1,0.7,0.1,1.3,0.1,2
			c0.1,5.2-0.1,10.3-0.4,15.4l-0.1,1.5l-1.5-0.4c-4.9-1.3-9.8-2.4-14.8-3.5c-2.5-0.5-5-1-7.4-1.3c-2.5-0.4-5-0.6-7.4-0.7
			c-2.5-0.1-5.1-0.1-7.6-0.2c-2.5,0-5.1-0.1-7.6,0s-5.1,0.2-7.6,0.3c-1.3,0.1-2.5,0.1-3.8,0.2C165.8,51,164.4,51.1,163.1,51.1z
			 M163.3,51l1.8-0.4c0.6-0.1,1.2-0.2,1.8-0.3c1.3-0.2,2.5-0.4,3.8-0.5c2.5-0.4,5.1-0.6,7.6-0.8s5.1-0.3,7.6-0.4
			c2.5-0.1,5.1-0.1,7.6-0.1c5.2,0,10.3,0.7,15.3,1.7c2.5,0.5,5,1,7.5,1.6s5,1.2,7.4,1.9l-1.5,1.1c0.4-5,0.7-10.1,0.7-15.1
			c0-0.6,0-1.2-0.1-1.8c0-0.3-0.1-0.6-0.1-0.8V37c0,0,0-0.1,0,0l0.1,0.1l0-0.1l-0.1-0.1c-1-0.6-2.1-1.3-3.2-1.9
			c-2.2-1.3-4.4-2.6-6.5-3.9c-2.2-1.3-4.3-2.7-6.4-4.2c-1.2-0.8-1.9-2.1-2.4-3.3c-0.5-1.2-0.9-2.5-1.2-3.7c-1.1-5-1.4-10.2-1.5-15.2
			l0,0c-0.1-0.4-0.4-1-0.7-1.3c-0.4-0.4-0.8-0.7-1.3-0.8c-1-0.4-2.2-0.5-3.3-0.5s-2.3,0.2-3.3,0.7c-0.5,0.2-1,0.5-1.5,0.8
			c-0.4,0.3-0.9,0.7-1.1,1.1l0.1-0.4c0.1,2.6,0.1,5.1-0.1,7.7c-0.2,2.5-0.7,5.1-1.4,7.6c-0.2,0.6-0.4,1.2-0.7,1.8
			c-0.3,0.6-0.5,1.2-0.8,1.8c-0.4,0.6-0.6,1.2-1,1.7c-0.4,0.6-0.8,1.1-1.3,1.6c-1.9,1.9-4.3,3.1-6.7,4.2c-2.4,1-4.8,1.7-7.2,2.5
			c-1.2,0.4-2.4,0.7-3.5,1.1c-0.5,0.2-1.1,0.5-1.3,0.7l0,0l-0.1,0.2c0,0.1-0.1,0.2-0.1,0.4c-0.1,0.3-0.1,0.6-0.2,0.9
			c-0.5,2.4-0.9,4.9-1.3,7.4l-0.6,3.7l-0.3,1.9l-0.1,0.9l-0.1,0.5C163.3,50.8,163.4,51,163.3,51z"/>
		<path class="st7" d="M180.7,5.5c0,0-2.8,21.8-3.4,24.3c0,0,6.5-2.6,8.2-6s4-7.1,4-19.6C189.6,4.1,184,4.7,180.7,5.5z"/>
		<path class="st2" d="M180.8,5.6c0.1,0.2,0,0.5,0,0.7v0.8c0,0.5,0,1,0,1.6c0,1-0.1,2.1-0.1,3.1c-0.1,2.1-0.3,4.1-0.6,6.1
			c-0.2,2-0.6,4-1.1,6s-0.9,4-1.3,6l-0.5-0.4c2.3-0.9,4.6-2.3,6.2-4c0.4-0.4,0.8-0.9,1.1-1.4c0.1-0.2,0.2-0.5,0.4-0.8l0.4-0.9
			c0.5-1.2,1-2.3,1.3-3.5c0.7-2.3,1.1-4.8,1.4-7.3c0.3-2.5,0.5-5,0.6-7.5l1.1,1l-4.5,0.2L183,5.4C182.3,5.5,181.5,5.6,180.8,5.6z
			 M180.7,5.4c0.8-0.4,1.5-0.6,2.2-0.8c0.7-0.2,1.5-0.4,2.2-0.6c1.5-0.4,2.9-0.6,4.5-0.9l1-0.2l0.1,1.1c0.1,2.6,0.1,5.2-0.1,7.8
			c-0.3,2.6-0.8,5.2-1.8,7.7c-0.5,1.2-1.1,2.4-1.7,3.6l-0.5,0.8c-0.2,0.3-0.4,0.6-0.6,0.9c-0.5,0.5-1,1-1.5,1.5
			c-1.1,0.8-2.2,1.5-3.3,2.1c-1.2,0.6-2.3,1.2-3.5,1.7l-0.6,0.2l0.1-0.7c0.3-2,0.4-4,0.5-6.1s0.3-4.1,0.6-6.1s0.6-4,1.1-6
			c0.2-1,0.4-2,0.6-3c0.1-0.5,0.2-1,0.4-1.5l0.2-0.7C180.5,6,180.5,5.8,180.7,5.4z"/>
		<path class="st7" d="M212.9,7.3l1,23.3c0,0-7.4-4-8.3-5.5c-0.9-1.5-4.2-7.1-3.9-20.6C201.8,4.6,206.5,4.9,212.9,7.3z"/>
		<path class="st2" d="M213,7.3c0.4,1.8,0.6,3.6,0.8,5.6c0.1,1,0.2,1.9,0.3,2.9s0.2,1.9,0.2,3c0.1,2,0.2,4,0.2,6s-0.2,4-0.2,6v0.8
			l-0.6-0.4c-2.2-1.4-4.5-2.7-6.7-4c-0.6-0.4-1.1-0.7-1.7-1.3l-0.2-0.2l-0.1-0.2l-0.3-0.4c-0.2-0.3-0.4-0.6-0.5-0.9
			c-0.7-1.2-1.2-2.4-1.7-3.7c-0.8-2.5-1.3-5.2-1.7-7.8c-0.3-2.7-0.3-5.3-0.1-7.9l0.1-1.2l1.1,0.1c1.1,0.1,2,0.3,2.9,0.6
			c1,0.2,1.9,0.5,2.8,0.8c0.9,0.3,1.8,0.6,2.7,1.1c0.5,0.2,0.9,0.4,1.3,0.6C212.1,6.8,212.6,7.1,213,7.3z M212.8,7.4
			c-0.5-0.1-0.9-0.2-1.4-0.3c-0.5-0.1-1-0.2-1.4-0.3c-1-0.2-1.9-0.4-2.8-0.5c-0.9-0.1-1.9-0.3-2.8-0.4c-0.9-0.1-1.9-0.2-2.8-0.2
			l1.2-1.1c0.1,2.6,0.2,5.1,0.4,7.6s0.5,5.1,1.1,7.5c0.3,1.2,0.7,2.4,1.1,3.6c0.1,0.3,0.2,0.6,0.4,0.8l0.2,0.4l0.1,0.2l0.1,0.1
			c0.3,0.4,0.8,0.8,1.3,1.2c2,1.6,4.2,2.9,6.6,4.1l-0.6,0.4c-0.2-1.9-0.5-3.8-0.7-5.7s-0.3-3.7-0.3-5.7c0-1,0-1.9,0-2.9
			s0-1.9,0.1-2.9C212.6,11.6,212.7,9.5,212.8,7.4z"/>
		<path class="st7" d="M145.9,81.7c0,0-15.6-9.4-15.1-12.2c0.4-2.8,13.9-15.9,16.2-16.1c2.3-0.2,28.6-5,47.4-3.8
			c19.5,1.2,41,9.1,41,9.1s17.6,15.1,18.1,17c0.6,1.9-16.5,9.4-16.5,9.4l-0.1-4.8c0,0,10.5-4.4,10.5-5s-14.6-12.9-15.9-13.1
			c-1.3-0.2-30.4-7.9-38.2-8.1c-10-0.3-42.4,2.3-44.5,3.2s-13.1,11.6-13.1,12.2s10,7.4,10,7.4L145.9,81.7z"/>
		<path class="st2" d="M145.9,81.7c-2.4-1.4-4.8-2.8-7.1-4.3s-4.6-3.1-6.7-5c-0.5-0.5-1-1-1.5-1.6c-0.2-0.3-0.5-0.7-0.4-1.3
			c0.1-0.6,0.2-0.8,0.4-1.2c0.7-1.3,1.6-2.4,2.5-3.5c1.8-2.2,3.7-4.2,5.6-6.2c1-1,2-2,3-2.9c1.1-1,2.1-1.9,3.3-2.7
			c0.3-0.2,0.6-0.4,1.1-0.6c0.1,0,0.2-0.1,0.4-0.1c0.1,0,0.2,0,0.3,0h0.1l0.5-0.1l2.1-0.3l4.1-0.6c5.5-0.8,11-1.5,16.5-2
			s11.1-0.9,16.7-1c5.6-0.1,11.2,0.3,16.7,1.2c5.5,0.8,11,2,16.3,3.4c5.4,1.4,10.7,3,16,4.8l0.2,0.1l0.2,0.1
			c2.8,2.4,5.6,4.8,8.3,7.3c2.8,2.5,5.5,4.9,8.1,7.6c0.3,0.4,0.7,0.7,1,1.1c0.2,0.2,0.3,0.4,0.5,0.6s0.3,0.4,0.5,0.8
			c0,0.1,0.1,0.1,0.1,0.2s0,0.2,0.1,0.4c0,0.2,0,0.4-0.1,0.6c-0.1,0.3-0.2,0.5-0.4,0.6c-0.2,0.3-0.4,0.5-0.6,0.7
			c-0.4,0.4-0.8,0.6-1.2,0.9c-1.6,1.1-3.3,1.9-4.9,2.8c-3.3,1.7-6.7,3.3-10,4.8L236,87v-1.7l-0.1-4.8v-0.8l0.7-0.3
			c2.8-1.2,5.6-2.4,8.3-3.7c0.3-0.2,0.7-0.3,1-0.5l0.5-0.2c0.1-0.1,0.3-0.2,0.3-0.2s0,0-0.1,0.1c0,0.1,0,0.1-0.1,0.2
			s-0.1,0.3-0.1,0.5c0,0.1,0.1,0.3,0.1,0.4c0,0,0,0,0,0.1c0.1,0.1,0,0,0,0c-0.1-0.1-0.2-0.2-0.4-0.4c-0.2-0.2-0.5-0.5-0.8-0.7
			c-1.1-1-2.3-2-3.4-3c-2.3-2-4.7-3.9-7-5.8c-0.6-0.5-1.2-0.9-1.8-1.4l-0.9-0.6c-0.3-0.2-0.6-0.4-0.8-0.5l-2-0.5l-2.2-0.6
			c-5.9-1.5-11.9-2.9-17.8-4.2c-3-0.7-5.9-1.3-8.9-1.8c-1.5-0.3-3-0.5-4.5-0.7s-2.9-0.2-4.4-0.2c-6,0.1-12.1,0.4-18.2,0.8
			c-3,0.2-6.1,0.4-9.1,0.7c-3,0.2-6,0.6-9.1,0.8c-1.5,0.1-3,0.2-4.5,0.4c-0.4,0-0.7,0.1-1.1,0.1c-0.1,0-0.1,0-0.2,0
			c-0.1,0-0.1,0-0.1,0c-0.1,0-0.2,0.1-0.4,0.2c-0.6,0.4-1.2,0.8-1.8,1.3c-2.3,1.9-4.6,3.9-6.9,6c-1.1,1-2.2,2.1-3.3,3.2
			c-0.2,0.2-0.5,0.6-0.7,0.8c0,0,0,0,0-0.1s0-0.2,0-0.2c0-0.1,0,0,0,0s0.1,0.1,0.1,0.2c0.1,0.1,0.2,0.2,0.4,0.4
			c0.6,0.5,1.2,1,1.8,1.4c2.4,1.8,4.9,3.6,7.4,5.4h0.1v0.1C145.9,78.5,145.9,80.1,145.9,81.7z M145.9,81.7c-0.1-1.7-0.2-3.3-0.3-4.9
			l0.1,0.1c-2.6-1.6-5.2-3.3-7.7-5c-0.6-0.4-1.3-0.9-1.9-1.4c-0.1-0.1-0.3-0.2-0.5-0.4c-0.1-0.1-0.1-0.1-0.2-0.2
			c0-0.1-0.1-0.1-0.1-0.2s-0.1-0.3,0-0.4c0-0.1,0-0.1,0.1-0.2c0.3-0.5,0.5-0.7,0.8-1c1-1.2,2.1-2.3,3.1-3.4c2.1-2.2,4.3-4.4,6.6-6.4
			c0.6-0.5,1.2-1,1.8-1.5c0.2-0.1,0.4-0.2,0.6-0.4c0.2-0.1,0.6-0.2,0.8-0.3c0.4-0.1,0.8-0.2,1.2-0.2c1.6-0.3,3-0.5,4.6-0.7
			c3-0.4,6.1-0.6,9.2-0.8c3-0.2,6.1-0.5,9.2-0.7c6.1-0.4,12.2-0.8,18.4-0.8c0.8,0,1.5,0,2.3,0s1.6,0.1,2.4,0.2
			c1.6,0.2,3.1,0.5,4.6,0.7c3,0.6,6,1.2,9,1.8c6,1.3,11.9,2.8,17.9,4.2l2.2,0.6l1.1,0.3l0.5,0.1h0.2c0,0,0.3,0.1,0.4,0.1
			c0.1,0,0.2,0.1,0.2,0.1c0.5,0.2,0.8,0.5,1.1,0.7l1,0.7c0.6,0.5,1.2,0.9,1.8,1.4c2.4,1.9,4.8,3.9,7.1,5.8c1.2,1,2.3,2,3.5,3
			c0.3,0.2,0.6,0.5,0.8,0.8c0.1,0.1,0.3,0.3,0.5,0.5c0.1,0.1,0.1,0.1,0.3,0.4l0.1,0.1c0,0.1,0.1,0.3,0.1,0.4s0,0.4-0.1,0.5
			s-0.1,0.2-0.1,0.2c-0.2,0.2-0.2,0.3-0.3,0.4c-0.3,0.2-0.5,0.3-0.6,0.4l-0.5,0.3c-0.4,0.2-0.7,0.4-1.1,0.5
			c-2.8,1.3-5.6,2.5-8.4,3.7l0.7-1.1l0.1,4.8l-1.6-1c3.3-1.5,6.7-3,9.9-4.7c1.6-0.8,3.2-1.7,4.7-2.7c0.4-0.2,0.7-0.5,1-0.7
			c0.1-0.1,0.2-0.2,0.3-0.3c0,0,0-0.1,0,0c0,0,0,0.1,0,0.2s0,0.1,0,0.2c0,0,0,0,0,0.1s-0.1-0.2-0.2-0.3c-0.1-0.1-0.2-0.3-0.4-0.5
			c-0.3-0.3-0.6-0.6-0.9-1c-2.5-2.6-5.3-5-8-7.5c-2.7-2.4-5.5-4.9-8.3-7.3l0.4,0.2c-5.1-1.8-10.4-3.4-15.7-4.8
			c-5.3-1.4-10.7-2.5-16.1-3.3c-10.8-1.7-21.9-1.2-32.8-0.2c-5.5,0.5-11,1.2-16.4,2c-1.4,0.2-2.7,0.4-4.1,0.6l-2.1,0.3l-0.6,0.1
			h-0.1l0,0c0,0,0,0-0.1,0c-0.2,0.1-0.5,0.2-0.7,0.4c-1.1,0.7-2.2,1.5-3.2,2.4c-1.1,0.8-2.1,1.8-3.1,2.7c-2,1.8-4,3.7-5.8,5.8
			c-0.9,1-1.8,2.1-2.5,3.1c-0.2,0.2-0.3,0.6-0.3,0.7s0.1,0.4,0.2,0.6c0.3,0.5,0.8,1,1.2,1.5c1.9,1.9,4.1,3.6,6.3,5.2
			C141.3,78.6,143.6,80.1,145.9,81.7z"/>
	</g>
</g>
</svg>
