<?xml version="1.0" standalone="no"?>
<!DOCTYPE svg PUBLIC "-//W3C//DTD SVG 20010904//EN"
 "http://www.w3.org/TR/2001/REC-SVG-20010904/DTD/svg10.dtd">
<svg version="1.0" xmlns="http://www.w3.org/2000/svg"
 width="512.000000pt" height="512.000000pt" viewBox="0 0 512.000000 512.000000"
 preserveAspectRatio="xMidYMid meet">
<metadata>
Created by potrace 1.14, written by Peter Selinger 2001-2017
</metadata>
<g transform="translate(0.000000,512.000000) scale(0.100000,-0.100000)"
fill="#000000" stroke="none">
<path d="M2527 5114 c-1 -1 -42 -4 -92 -8 -103 -7 -125 -10 -253 -36 -380 -79
-751 -303 -1007 -610 -158 -190 -291 -438 -352 -655 -54 -193 -71 -329 -68
-530 2 -193 6 -231 36 -370 87 -397 311 -764 629 -1026 190 -157 458 -292 705
-355 69 -17 206 -42 243 -43 l22 -1 0 -735 0 -735 180 0 c164 0 180 2 181 18
0 9 1 338 1 730 0 392 3 714 7 716 3 3 27 7 51 11 25 3 52 8 60 10 8 2 31 6
50 9 58 9 79 14 173 42 98 29 121 37 242 92 238 106 495 306 657 512 133 168
230 343 297 533 75 213 101 371 101 608 0 159 -6 215 -35 364 -55 275 -163
514 -335 740 -338 445 -858 706 -1433 719 -32 0 -59 0 -60 0z m245 -380 c98
-13 206 -37 243 -53 11 -5 43 -17 70 -26 250 -87 534 -310 687 -540 107 -160
198 -366 223 -502 2 -15 7 -39 10 -53 29 -140 27 -440 -4 -558 -6 -20 -12 -50
-15 -66 -16 -92 -107 -304 -178 -416 -190 -296 -469 -514 -789 -614 -137 -43
-136 -43 -269 -60 -107 -13 -285 -14 -375 -1 -122 17 -289 66 -405 117 -126
56 -317 187 -420 289 -230 225 -381 532 -424 859 -12 98 -14 328 -2 368 3 9 8
37 11 62 16 115 67 268 135 405 216 432 650 739 1120 791 30 4 56 8 58 9 10 8
243 1 324 -11z"/>
<path d="M2665 4388 c-16 -11 -111 -67 -210 -126 l-180 -107 0 -154 c0 -179 8
-167 -115 -164 l-80 1 0 -172 0 -173 95 2 c59 0 95 -3 96 -10 1 -5 2 -212 4
-460 3 -522 7 -570 55 -665 39 -76 128 -136 238 -161 102 -22 319 -4 420 36
35 14 40 20 37 43 -2 15 -6 53 -9 85 -19 181 -22 207 -28 212 -2 2 -36 -5 -75
-16 -40 -10 -89 -16 -109 -14 -47 4 -84 41 -93 91 -4 22 -7 224 -7 449 l1 410
143 -1 142 -1 1 31 c0 17 2 95 2 172 l2 141 -135 1 c-74 0 -140 0 -146 1 -8 1
-11 86 -11 281 0 155 -2 282 -4 284 -2 2 -17 -5 -34 -16z"/>
</g>
</svg>
