<?xml version="1.0" encoding="utf-8"?>
<!-- Generator: Adobe Illustrator 24.0.2, SVG Export Plug-In . SVG Version: 6.00 Build 0)  -->
<svg version="1.1" id="Layer_1" xmlns="http://www.w3.org/2000/svg" xmlns:xlink="http://www.w3.org/1999/xlink" x="0px" y="0px"
	 viewBox="0 0 512 256" style="enable-background:new 0 0 512 256;" xml:space="preserve">
<style type="text/css">
	.st0{display:none;}
	.st1{display:inline;fill:#BAB86C;}
	.st2{display:inline;}
	.st3{fill:#BAB86C;}
	.st4{display:inline;fill:#999999;}
	.st5{display:none;fill:#999999;}
	.st6{display:inline;fill:none;stroke:#999999;stroke-width:21;stroke-miterlimit:10;}
	.st7{fill:none;}
	.st8{enable-background:new    ;}
	.st9{fill:#FFD754;}
</style>
<g class="st0">
	<path class="st1" d="M232.9,75.6v9.8h-8.4v18.8c0,3.8,0.1,6,0.2,6.7c0.2,0.6,0.5,1.1,1.1,1.6c0.6,0.4,1.3,0.6,2.1,0.6
		c1.1,0,2.8-0.4,5-1.2l1.1,9.6c-2.9,1.2-6.1,1.8-9.8,1.8c-2.2,0-4.2-0.4-6-1.1s-3.1-1.7-3.9-2.9s-1.4-2.8-1.7-4.8
		c-0.3-1.4-0.4-4.3-0.4-8.7V85.4h-5.7v-9.8h5.7v-9.3l12.4-7.2v16.5C224.6,75.6,232.9,75.6,232.9,75.6z"/>
	<path class="st1" d="M250.7,89.8l-11.2-2c1.3-4.5,3.4-7.9,6.5-10c3.1-2.2,7.6-3.3,13.7-3.3c5.5,0,9.6,0.7,12.3,2
		c2.7,1.3,4.6,3,5.7,5s1.6,5.7,1.6,11.1l-0.1,14.4c0,4.1,0.2,7.1,0.6,9.1c0.4,1.9,1.1,4,2.2,6.3h-12.2c-0.3-0.8-0.7-2-1.2-3.6
		c-0.2-0.7-0.4-1.2-0.4-1.5c-2.1,2.1-4.4,3.6-6.8,4.6s-5,1.5-7.7,1.5c-4.8,0-8.6-1.3-11.4-3.9c-2.8-2.6-4.2-5.9-4.2-9.9
		c0-2.6,0.6-5,1.9-7.1c1.3-2.1,3-3.6,5.3-4.7s5.5-2.1,9.8-2.9c5.8-1.1,9.8-2.1,12-3v-1.2c0-2.4-0.6-4.1-1.8-5.1
		c-1.2-1-3.4-1.5-6.6-1.5c-2.2,0-3.9,0.4-5.1,1.3C252.4,86.1,251.4,87.6,250.7,89.8z M267.2,99.8c-1.6,0.5-4.1,1.2-7.5,1.9
		c-3.4,0.7-5.7,1.5-6.7,2.2c-1.6,1.1-2.4,2.6-2.4,4.4c0,1.7,0.6,3.2,1.9,4.5c1.3,1.3,2.9,1.9,4.9,1.9c2.2,0,4.4-0.7,6.4-2.2
		c1.5-1.1,2.5-2.5,2.9-4.1c0.3-1.1,0.5-3.1,0.5-6V99.8z"/>
	<path class="st1" d="M291.5,122.2V57.8h12.3v64.4H291.5z"/>
	<path class="st1" d="M343.5,107.4l12.3,2.1c-1.6,4.5-4.1,7.9-7.5,10.3s-7.7,3.5-12.8,3.5c-8.1,0-14.1-2.7-18-8
		c-3.1-4.2-4.6-9.6-4.6-16.1c0-7.7,2-13.8,6.1-18.2c4-4.4,9.2-6.6,15.3-6.6c6.9,0,12.4,2.3,16.4,6.9s5.9,11.6,5.8,21.1h-30.9
		c0.1,3.7,1.1,6.5,3,8.5s4.3,3.1,7.1,3.1c1.9,0,3.6-0.5,4.9-1.6S342.8,109.7,343.5,107.4z M344.2,94.9c-0.1-3.6-1-6.3-2.8-8.2
		c-1.8-1.9-3.9-2.8-6.4-2.8c-2.7,0-4.9,1-6.7,2.9c-1.8,2-2.6,4.6-2.6,8L344.2,94.9L344.2,94.9z"/>
	<path class="st1" d="M442.9,75.6v9.8h-8.4v18.8c0,3.8,0.1,6,0.2,6.7c0.2,0.6,0.5,1.1,1.1,1.6c0.6,0.4,1.3,0.6,2.1,0.6
		c1.1,0,2.8-0.4,5-1.2l1.1,9.6c-2.9,1.2-6.1,1.8-9.8,1.8c-2.2,0-4.2-0.4-6-1.1s-3.1-1.7-3.9-2.9c-0.8-1.2-1.4-2.8-1.7-4.8
		c-0.3-1.4-0.4-4.3-0.4-8.7V85.4h-5.7v-9.8h5.7v-9.3l12.4-7.2v16.5C434.6,75.6,442.9,75.6,442.9,75.6z"/>
	<g class="st2">
		<path class="st3" d="M408.3,84.9c-0.5-1.9-1.3-3.7-2.4-5.2c-1.2-1.5-2.9-2.8-5.1-3.8c-1.3-0.6-2.6-0.9-4.1-1.2
			c-1.3,3.7-2,7.6-2.1,11.6c0.5,0.6,1,1.4,1.3,2.2c0.5,1.5,0.8,4.7,0.8,9.8v2.7c2.2,6.7,6.1,12.8,11.5,17.6c0.3,0.3,0.6,0.5,0.9,0.8
			V93.2C409,89.6,408.8,86.9,408.3,84.9z"/>
		<path class="st3" d="M366.5,108.4v13.9h5.7C369.8,117.8,367.9,113.2,366.5,108.4z"/>
	</g>
	<path class="st1" d="M436.1,41.5c11.5,0,22.6,4.3,31.2,12.1c8.6,7.9,14,18.6,15,30.2c1.1,12.4-2.7,24.4-10.6,34
		c-8,9.5-19.2,15.4-31.5,16.5c-1.4,0.1-2.8,0.2-4.3,0.2c-11.5,0-22.6-4.3-31.2-12.1c-8.6-7.9-14-18.6-15-30.2
		c-1.1-12.4,2.7-24.4,10.6-34c8-9.5,19.2-15.4,31.5-16.5C433.3,41.6,434.7,41.5,436.1,41.5L436.1,41.5 M436.1,20.5
		c-2,0-4.1,0.1-6.1,0.3c-37.1,3.3-64.5,36.2-61.2,73.3c3.2,35.1,32.6,61.4,67.1,61.4c2,0,4.1-0.1,6.1-0.3
		c37.1-3.3,64.5-36.2,61.2-73.3C500.1,46.9,470.7,20.5,436.1,20.5L436.1,20.5z"/>
</g>
<g class="st0">
	<path class="st4" d="M213,70.5v10.9h-9.4v20.9c0,4.2,0.1,6.7,0.3,7.4c0.2,0.7,0.6,1.3,1.2,1.7c0.6,0.5,1.4,0.7,2.3,0.7
		c1.3,0,3.1-0.4,5.5-1.3l1.2,10.6c-3.2,1.4-6.8,2.1-10.8,2.1c-2.5,0-4.7-0.4-6.7-1.2c-2-0.8-3.4-1.9-4.4-3.2s-1.6-3.1-1.9-5.3
		c-0.3-1.6-0.4-4.8-0.4-9.7V81.5h-6.3v-11h6.3V60.2l13.8-8v18.3H213z"/>
	<path class="st4" d="M232.7,86.4l-12.5-2.2c1.4-5,3.8-8.7,7.2-11.1s8.5-3.6,15.2-3.6c6.1,0,10.7,0.7,13.7,2.2
		c3,1.4,5.1,3.3,6.3,5.5c1.2,2.2,1.8,6.3,1.8,12.3l-0.1,16c0,4.6,0.2,7.9,0.7,10.1c0.4,2.2,1.3,4.5,2.5,7H254
		c-0.4-0.9-0.8-2.3-1.3-4.1c-0.2-0.8-0.4-1.4-0.5-1.6c-2.3,2.3-4.9,4-7.5,5.1c-2.7,1.1-5.5,1.7-8.5,1.7c-5.3,0-9.5-1.4-12.6-4.3
		s-4.6-6.6-4.6-11c0-2.9,0.7-5.5,2.1-7.8c1.4-2.3,3.4-4.1,5.9-5.3c2.5-1.2,6.2-2.3,10.9-3.2c6.4-1.2,10.9-2.3,13.3-3.4v-1.4
		c0-2.6-0.7-4.5-2-5.6s-3.8-1.7-7.4-1.7c-2.4,0-4.3,0.5-5.7,1.4S233.6,83.9,232.7,86.4z M251.1,97.5c-1.8,0.6-4.5,1.3-8.3,2.1
		c-3.8,0.8-6.3,1.6-7.5,2.4c-1.8,1.3-2.7,2.9-2.7,4.8s0.7,3.6,2.1,5c1.4,1.4,3.3,2.1,5.5,2.1c2.5,0,4.8-0.8,7.1-2.4
		c1.7-1.2,2.8-2.8,3.3-4.5c0.4-1.2,0.5-3.4,0.5-6.7L251.1,97.5L251.1,97.5z"/>
	<path class="st4" d="M278.1,122.4V50.8h13.7v71.6C291.8,122.4,278.1,122.4,278.1,122.4z"/>
	<path class="st4" d="M335.9,105.9l13.7,2.3c-1.8,5-4.5,8.8-8.3,11.5c-3.8,2.6-8.5,3.9-14.2,3.9c-9,0-15.7-2.9-20-8.8
		c-3.4-4.7-5.1-10.7-5.1-17.9c0-8.6,2.2-15.3,6.7-20.2s10.2-7.3,17-7.3c7.7,0,13.8,2.5,18.3,7.6s6.6,12.9,6.4,23.4H316
		c0.1,4.1,1.2,7.2,3.3,9.5c2.1,2.3,4.8,3.4,7.9,3.4c2.1,0,4-0.6,5.4-1.8S335.2,108.5,335.9,105.9z M336.7,92c-0.1-4-1.1-7-3.1-9.1
		s-4.3-3.1-7.1-3.1c-3,0-5.5,1.1-7.4,3.3c-2,2.2-2.9,5.1-2.9,8.9C316.2,92,336.7,92,336.7,92z"/>
	<path class="st4" d="M446.4,70.5v10.9H437v20.9c0,4.2,0.1,6.7,0.3,7.4c0.2,0.7,0.6,1.3,1.2,1.7c0.6,0.5,1.4,0.7,2.3,0.7
		c1.3,0,3.1-0.4,5.5-1.3l1.2,10.6c-3.2,1.4-6.8,2.1-10.8,2.1c-2.5,0-4.7-0.4-6.7-1.2c-2-0.8-3.4-1.9-4.4-3.2s-1.6-3.1-1.9-5.3
		c-0.3-1.6-0.4-4.8-0.4-9.7V81.5H417v-11h6.3V60.2l13.8-8v18.3H446.4z"/>
</g>
<path class="st5" d="M408.7,122.4H395V95.9c0-5.6-0.3-9.2-0.9-10.9c-0.6-1.6-1.5-2.9-2.9-3.8c-1.3-0.9-2.9-1.4-4.8-1.4
	c-2.4,0-4.5,0.7-6.4,2s-3.2,3-3.9,5.2s-1,6.1-1,11.9v23.5h-13.7V70.5h12.7v7.6c4.5-5.9,10.2-8.8,17.1-8.8c3,0,5.8,0.5,8.3,1.6
	s4.4,2.5,5.7,4.2c1.3,1.7,2.2,3.6,2.7,5.8s0.8,5.2,0.8,9.2L408.7,122.4L408.7,122.4z"/>
<g class="st0">
	<path class="st4" d="M436.1,41.5c11.5,0,22.6,4.3,31.2,12.1c8.6,7.9,14,18.6,15,30.2c1.1,12.4-2.7,24.4-10.6,34
		c-8,9.5-19.2,15.4-31.5,16.5c-1.4,0.1-2.8,0.2-4.3,0.2c-11.5,0-22.6-4.3-31.2-12.1c-8.6-7.9-14-18.6-15-30.2
		c-1.1-12.4,2.7-24.4,10.6-34c8-9.5,19.2-15.4,31.5-16.5C433.3,41.6,434.7,41.5,436.1,41.5L436.1,41.5 M436.1,20.5
		c-2,0-4.1,0.1-6.1,0.3c-37.1,3.3-64.5,36.2-61.2,73.3c3.2,35.1,32.6,61.4,67.1,61.4c2,0,4.1-0.1,6.1-0.3
		c37.1-3.3,64.5-36.2,61.2-73.3C500.1,46.9,470.7,20.5,436.1,20.5L436.1,20.5z"/>
	<line class="st6" x1="436" y1="144.2" x2="436" y2="204.2"/>
</g>
<g>
	<g>
		<g>
			<g>
				<path class="st3" d="M374.3,1.8v15c15.1,0,29.5,5.6,40.8,15.8s18.2,24.3,19.6,39.4c3,33.3-21.7,62.9-55,65.9
					c-1.8,0.2-3.7,0.3-5.5,0.3c-15.1,0-29.5-5.6-40.8-15.8S315.2,98.1,313.8,83c-1.5-16.1,3.5-31.9,13.8-44.3
					c10.4-12.4,25-20.1,41.1-21.6c1.8-0.2,3.7-0.2,5.5-0.3L374.3,1.8 M374.3,1.8c-2.3,0-4.6,0.1-6.9,0.3
					c-41.6,3.8-72.3,40.6-68.6,82.2c3.5,39.3,36.6,68.9,75.3,68.9c2.3,0,4.6-0.1,6.9-0.3c41.6-3.8,72.3-40.6,68.6-82.2
					C446,31.4,413,1.8,374.3,1.8L374.3,1.8z"/>
			</g>
		</g>
		<g>
			<rect x="366.6" y="143.5" class="st3" width="15" height="70.4"/>
		</g>
	</g>
	<g>
		<rect x="-0.2" y="82.2" class="st7" width="512" height="172.5"/>
	</g>
	<g class="st8">
		<path class="st9" d="M5.3,215.5l32.3-4.9c1.4,6.3,4.2,11,8.4,14.3c4.2,3.2,10.1,4.9,17.6,4.9c8.3,0,14.6-1.5,18.8-4.6
			c2.8-2.1,4.2-5,4.2-8.6c0-2.4-0.8-4.5-2.3-6.1c-1.6-1.5-5.2-2.9-10.8-4.2c-26-5.7-42.4-11-49.4-15.7c-9.6-6.6-14.4-15.7-14.4-27.4
			c0-10.5,4.2-19.4,12.5-26.6c8.3-7.2,21.2-10.8,38.7-10.8c16.7,0,29,2.7,37.1,8.1c8.1,5.4,13.7,13.4,16.7,24.1l-30.4,5.6
			c-1.3-4.7-3.8-8.4-7.4-10.9c-3.6-2.5-8.8-3.8-15.5-3.8c-8.5,0-14.6,1.2-18.2,3.6c-2.4,1.7-3.7,3.9-3.7,6.5c0,2.3,1.1,4.2,3.2,5.8
			c2.9,2.1,12.9,5.2,30.1,9.1c17.2,3.9,29.1,8.7,35.9,14.3c6.7,5.7,10.1,13.7,10.1,24c0,11.2-4.7,20.7-14,28.8
			c-9.3,8-23.1,12-41.4,12c-16.6,0-29.7-3.4-39.4-10.1C14.6,236.2,8.2,227.1,5.3,215.5z"/>
	</g>
	<g class="st8">
		<path class="st9" d="M229.7,175.2l-27.8,5c-0.9-5.5-3.1-9.7-6.4-12.5c-3.3-2.8-7.6-4.2-12.9-4.2c-7,0-12.6,2.4-16.8,7.3
			c-4.2,4.8-6.3,13-6.3,24.3c0,12.6,2.1,21.6,6.4,26.8c4.2,5.2,9.9,7.8,17.1,7.8c5.3,0,9.7-1.5,13.1-4.6c3.4-3,5.8-8.3,7.2-15.7
			l27.7,4.7c-2.9,12.7-8.4,22.3-16.5,28.8c-8.2,6.5-19.1,9.7-32.8,9.7c-15.6,0-28-4.9-37.3-14.7c-9.3-9.8-13.9-23.4-13.9-40.8
			c0-17.6,4.6-31.3,13.9-41.1c9.3-9.8,21.9-14.7,37.7-14.7c13,0,23.3,2.8,30.9,8.4C220.8,155.3,226.3,163.8,229.7,175.2z"/>
		<path class="st9" d="M237.5,195.5c0-9.4,2.3-18.4,6.9-27.2c4.6-8.8,11.1-15.4,19.6-20.1c8.5-4.6,17.9-6.9,28.3-6.9
			c16.1,0,29.3,5.2,39.6,15.7c10.3,10.5,15.4,23.7,15.4,39.7c0,16.1-5.2,29.5-15.6,40.1c-10.4,10.6-23.5,15.9-39.3,15.9
			c-9.8,0-19.1-2.2-27.9-6.6c-8.9-4.4-15.6-10.9-20.2-19.4C239.8,218.1,237.5,207.7,237.5,195.5z M266.4,197
			c0,10.6,2.5,18.7,7.5,24.3c5,5.6,11.2,8.4,18.6,8.4c7.4,0,13.5-2.8,18.5-8.4c5-5.6,7.5-13.8,7.5-24.5c0-10.4-2.5-18.5-7.5-24.1
			c-5-5.6-11.1-8.4-18.5-8.4c-7.4,0-13.5,2.8-18.6,8.4C268.9,178.3,266.4,186.4,266.4,197z"/>
		<path class="st9" d="M474.3,216.3l28.1,4.7c-3.6,10.3-9.3,18.1-17.1,23.5c-7.8,5.4-17.5,8.1-29.2,8.1c-18.5,0-32.2-6.1-41.1-18.2
			c-7-9.7-10.5-21.9-10.5-36.7c0-17.7,4.6-31.5,13.8-41.5c9.2-10,20.9-15,35-15c15.8,0,28.3,5.2,37.5,15.7
			c9.2,10.5,13.5,26.5,13.1,48.1h-70.6c0.2,8.4,2.5,14.9,6.8,19.5c4.3,4.6,9.8,7,16.2,7c4.4,0,8.1-1.2,11.1-3.6
			C470.4,225.6,472.7,221.7,474.3,216.3z M475.9,187.9c-0.2-8.2-2.3-14.4-6.3-18.6c-4-4.2-8.9-6.4-14.6-6.4
			c-6.2,0-11.2,2.2-15.2,6.7c-4,4.5-6,10.6-5.9,18.3H475.9z"/>
	</g>
	<g>
		<rect x="51.4" y="42" class="st7" width="248.8" height="124.7"/>
	</g>
	<g class="st8">
		<path class="st3" d="M84.1,62.9v11.6h-9.9v22.1c0,4.5,0.1,7.1,0.3,7.8c0.2,0.7,0.6,1.3,1.3,1.8c0.7,0.5,1.5,0.7,2.4,0.7
			c1.3,0,3.3-0.5,5.8-1.4l1.2,11.2c-3.4,1.4-7.2,2.2-11.4,2.2c-2.6,0-5-0.4-7.1-1.3c-2.1-0.9-3.6-2-4.6-3.4s-1.7-3.3-2-5.6
			c-0.3-1.7-0.5-5.1-0.5-10.2V74.4H53V62.9h6.7V52l14.5-8.5v19.3H84.1z"/>
		<path class="st3" d="M105,79.6l-13.2-2.4c1.5-5.3,4-9.2,7.6-11.8c3.6-2.5,9-3.8,16.1-3.8c6.5,0,11.3,0.8,14.4,2.3
			c3.2,1.5,5.4,3.5,6.7,5.8c1.3,2.4,1.9,6.7,1.9,13l-0.2,16.9c0,4.8,0.2,8.4,0.7,10.6c0.5,2.3,1.3,4.7,2.6,7.3h-14.3
			c-0.4-1-0.8-2.4-1.4-4.3c-0.2-0.9-0.4-1.4-0.5-1.7c-2.5,2.4-5.1,4.2-7.9,5.4c-2.8,1.2-5.8,1.8-9,1.8c-5.6,0-10.1-1.5-13.3-4.6
			c-3.2-3.1-4.9-6.9-4.9-11.6c0-3.1,0.7-5.9,2.2-8.3c1.5-2.4,3.5-4.3,6.2-5.6c2.7-1.3,6.5-2.4,11.5-3.4c6.8-1.3,11.5-2.5,14.1-3.6
			v-1.4c0-2.8-0.7-4.8-2.1-6c-1.4-1.2-4-1.8-7.8-1.8c-2.6,0-4.6,0.5-6,1.5C107,75.3,105.9,77.1,105,79.6z M124.4,91.4
			c-1.9,0.6-4.8,1.4-8.8,2.2s-6.7,1.7-7.9,2.5c-1.9,1.3-2.8,3-2.8,5.1c0,2,0.8,3.8,2.3,5.3c1.5,1.5,3.4,2.2,5.8,2.2
			c2.6,0,5.1-0.9,7.5-2.6c1.8-1.3,2.9-2.9,3.5-4.8c0.4-1.2,0.6-3.6,0.6-7.1V91.4z"/>
		<path class="st3" d="M152.9,117.7V42.1h14.5v75.6H152.9z"/>
		<path class="st3" d="M214,100.2l14.4,2.4c-1.9,5.3-4.8,9.3-8.8,12.1c-4,2.8-9,4.2-15,4.2c-9.5,0-16.6-3.1-21.1-9.3
			c-3.6-5-5.4-11.3-5.4-18.9c0-9.1,2.4-16.2,7.1-21.3c4.7-5.1,10.7-7.7,18-7.7c8.1,0,14.6,2.7,19.3,8.1c4.7,5.4,7,13.6,6.8,24.7
			h-36.3c0.1,4.3,1.3,7.6,3.5,10c2.2,2.4,5,3.6,8.4,3.6c2.3,0,4.2-0.6,5.7-1.9C212,105,213.2,103,214,100.2z M214.8,85.6
			c-0.1-4.2-1.2-7.4-3.2-9.6c-2.1-2.2-4.6-3.3-7.5-3.3c-3.2,0-5.8,1.2-7.8,3.5c-2.1,2.3-3.1,5.4-3,9.4H214.8z"/>
		<path class="st3" d="M290.8,117.7h-14.5v-28c0-5.9-0.3-9.7-0.9-11.5c-0.6-1.7-1.6-3.1-3-4c-1.4-1-3.1-1.4-5-1.4
			c-2.5,0-4.8,0.7-6.8,2.1c-2,1.4-3.4,3.2-4.1,5.5s-1.1,6.5-1.1,12.6v24.8h-14.5V62.9h13.5v8c4.8-6.2,10.8-9.3,18.1-9.3
			c3.2,0,6.1,0.6,8.8,1.7c2.6,1.2,4.6,2.6,6,4.4c1.4,1.8,2.3,3.8,2.8,6.1c0.5,2.3,0.8,5.5,0.8,9.7V117.7z"/>
	</g>
	<g>
		<rect x="351.8" y="29.4" class="st7" width="48.2" height="103.4"/>
	</g>
	<g class="st8">
		<path class="st3" d="M391.8,54.9V69h-12.1v27c0,5.5,0.1,8.6,0.3,9.5c0.2,0.9,0.8,1.7,1.6,2.2c0.8,0.6,1.8,0.9,3,0.9
			c1.6,0,4-0.6,7.1-1.7l1.5,13.7c-4.1,1.8-8.8,2.6-14,2.6c-3.2,0-6.1-0.5-8.6-1.6c-2.6-1.1-4.4-2.5-5.6-4.2c-1.2-1.7-2-4-2.5-6.9
			c-0.4-2.1-0.6-6.2-0.6-12.5V69h-8.1V54.9h8.1V41.6l17.8-10.3v23.6H391.8z"/>
	</g>
</g>
</svg>
